<?xml version="1.0" standalone="no"?>
<!DOCTYPE svg PUBLIC "-//W3C//DTD SVG 1.1//EN" "http://www.w3.org/Graphics/SVG/1.1/DTD/svg11.dtd" >
<svg xmlns="http://www.w3.org/2000/svg" xmlns:xlink="http://www.w3.org/1999/xlink" version="1.1">
<metadata>
Created by FontForge 20201107 at Mon Jan 23 19:00:32 2017
 By 
Copyright 2015 The Cormorant Project Authors (github.com/CatharsisFonts/Cormorant)
</metadata>
<defs>
<font id="CormorantUpright-Bold" horiz-adv-x="0" >
  <font-face 
    font-family="Cormorant Upright"
    font-weight="700"
    font-stretch="normal"
    units-per-em="1000"
    panose-1="0 0 8 0 0 0 0 0 0 0"
    ascent="800"
    descent="-200"
    x-height="395"
    cap-height="625"
    bbox="-365.889 -281 1278.06 928"
    underline-thickness="50"
    underline-position="-100"
    unicode-range="U+000D-FB06"
  />
<missing-glyph horiz-adv-x="501" 
d="M94 -275v1000h317v-1000h-317zM168 626h65v-38h-66v-32h166v32h-66v38h66v32h-165v-32zM167 426h166v34h-66v69h-100v-103zM200 460v35h33v-35h-33zM167 365h66v-36h-66v-34h100v70h66v33h-166v-33zM301 273h-134v-34h166v99h-32v-65zM233 160h34v24h34v-48h-101v80h-33
v-113h166v113h-100v-56zM167 -70h166v113h-166v-113zM200 -37v48h101v-48h-101zM167 -126h70l-70 -47v-33h166v33h-101l69 47h32v34h-166v-34z" />
    <glyph glyph-name="f_f.liga" unicode="ff" horiz-adv-x="578" 
d="M621 709.5q30 -16.5 30 -40.5q0 -20 -12 -31t-33 -11q-29 0 -41.5 12t-21.5 35q-7 16 -13 23.5t-19 7.5q-31 0 -43.5 -50t-12.5 -156l1 -60l2 -59q46 2 66 4q26 2 36 2q5 0 8 -4t3 -8q-1 -10 -10.5 -23t-19.5 -12l-21 3q-12 1 -27 3t-34 4l11 -370l1 -35
q0 -82 -14.5 -130t-44 -68.5t-77.5 -20.5t-75 16.5t-27 40.5q0 19 12 29.5t30 10.5q27 0 38.5 -12t20.5 -35q7 -16 12.5 -23t16.5 -7t14.5 14.5t3.5 57.5q0 44 -3 136l-12 353v2q-1 21 -11.5 29.5t-36.5 11.5q-29 2 -154 4l11 -374q1 -16 1 -44q0 -79 -13 -124.5t-41 -65.5
t-75 -20q-48 0 -78 16.5t-31 40.5q-1 19 11 29.5t31 10.5q27 0 38.5 -12t20.5 -35q7 -16 12.5 -23t16.5 -7t14.5 14.5t3.5 57.5q0 44 -3 136l-12 353q-1 25 -6.5 36t-18 14t-42.5 3q-1 0 -2.5 2.5t-1.5 5.5t1.5 5.5t2.5 2.5q35 0 49 9t15 34q2 116 55 184t155 68
q54 0 115 -18q20 40 56 57t94 17q48 0 78 -16.5zM163 377q108 0 136 1q31 1 45 7t18 18q1 5 1 15v38q0 70 5 109q-27 44 -54 64t-58 20q-51 0 -74 -51.5t-21 -158.5z" />
    <glyph glyph-name="fi" unicode="fi" horiz-adv-x="517" 
d="M512 79q4 0 7 -3.5t1 -6.5q-30 -41 -54.5 -59.5t-56.5 -18.5q-35 0 -51 24.5t-15 73.5l1 205q1 27 -11 39.5t-49 17.5t-120 6l11 -378q1 -16 1 -44q0 -79 -13 -124.5t-41 -65.5t-75 -20q-48 0 -78 16.5t-31 40.5q-1 19 11 29.5t31 10.5q27 0 38.5 -12t20.5 -35
q7 -16 12.5 -23t16.5 -7t14.5 14.5t3.5 57.5q0 44 -3 136l-12 353q-1 26 -6 36.5t-17.5 13.5t-42.5 3q-4 0 -4.5 8t3.5 8q35 0 49.5 9t14.5 34q1 157 55.5 232.5t163.5 75.5q57 0 93.5 -19.5t38.5 -49.5q1 -20 -12 -31t-35 -11q-26 0 -40.5 12.5t-31.5 37.5q-12 20 -23 30
t-28 10q-43 0 -66 -58.5t-23 -172.5l1 -35l2 -61q79 1 191 6l66 2q10 0 13 -3.5t3 -15.5q0 -5 -0.5 -21.5t0.5 -36.5l-1 -220q-1 -47 23 -47q11 0 22.5 8.5t28.5 26.5q2 2 3 2z" />
    <glyph glyph-name="fl" unicode="fl" horiz-adv-x="553" 
d="M535 78q4 0 6 -3t1 -6q-31 -41 -56 -59.5t-56 -18.5q-36 0 -51.5 24.5t-14.5 73.5l5 526q-19 43 -46 66.5t-58 23.5q-54 0 -79.5 -56t-25.5 -175l1 -35l2 -59q46 2 66 4q26 2 36 2q5 0 8 -4t3 -8q-1 -10 -10.5 -23t-19.5 -12l-21 3q-12 1 -27 3t-34 4l11 -370
q1 -16 1 -44q0 -79 -13 -124.5t-41 -65.5t-75 -20q-48 0 -78 16.5t-31 40.5q-1 19 11 29.5t31 10.5q27 0 38.5 -12t20.5 -35q7 -16 12.5 -23t16.5 -7t14.5 14.5t3.5 57.5q0 44 -3 136l-12 353q-1 26 -6 36.5t-17.5 13.5t-42.5 3q-4 0 -4.5 8t3.5 8q35 0 49.5 9t14.5 34
q-1 156 49 232t170 76q38 0 70.5 -6.5t51.5 -18.5q34 19 35 44q0 2 2 3t4 1t4.5 -1.5t2.5 -3.5l-1 -655q-1 -47 24 -47q10 0 22 8.5t29 25.5z" />
    <glyph glyph-name="f_f_i.liga" unicode="ffi" horiz-adv-x="812" 
d="M807 79q4 0 7 -3.5t1 -6.5q-30 -41 -54.5 -59.5t-56.5 -18.5q-35 0 -51 24.5t-15 73.5l1 205q1 27 -11 39.5t-49 17.5t-120 6l11 -378q1 -16 1 -44q0 -79 -13 -124.5t-41 -65.5t-75 -20q-48 0 -78 16.5t-31 40.5q-1 19 11 29.5t31 10.5q27 0 38.5 -12t20.5 -35
q7 -16 12.5 -23t16.5 -7t14.5 14.5t3.5 57.5q0 44 -3 136l-12 353v2q-1 21 -11.5 29.5t-36.5 11.5q-29 2 -154 4l11 -374q1 -16 1 -44q0 -79 -13 -124.5t-41 -65.5t-75 -20q-48 0 -78 16.5t-31 40.5q-1 19 11 29.5t31 10.5q27 0 38.5 -12t20.5 -35q7 -16 12.5 -23t16.5 -7
t14.5 14.5t3.5 57.5q0 44 -3 136l-12 353q-1 25 -6.5 36t-18 14t-42.5 3q-1 0 -2.5 2.5t-1.5 5.5t1.5 5.5t2.5 2.5q35 0 49 9t15 34q2 116 55 184t155 68q31 0 68.5 -7t68.5 -18q53 81 167 81q57 0 93.5 -19.5t38.5 -49.5q1 -20 -12 -31t-35 -11q-26 0 -40.5 12.5
t-31.5 37.5q-12 20 -23 30t-28 10q-43 0 -66 -58.5t-23 -172.5l1 -35l2 -61q79 1 191 6l66 2q10 0 13 -3.5t3 -15.5q0 -5 -0.5 -21.5t0.5 -36.5l-1 -220q-1 -47 23 -47q11 0 22.5 8.5t28.5 26.5q2 2 3 2zM163 377q108 0 136 1q31 1 45 7t18 18q1 5 1 15q0 71 13 133
q-29 52 -57.5 75t-62.5 23q-51 0 -74 -51.5t-21 -158.5z" />
    <glyph glyph-name="f_f_l.liga" unicode="ffl" horiz-adv-x="848" 
d="M830 78q4 0 6 -3t1 -6q-31 -41 -56 -59.5t-56 -18.5q-36 0 -51.5 24.5t-14.5 73.5l5 526q-19 43 -46 66.5t-58 23.5q-54 0 -79.5 -56t-25.5 -175l1 -35l2 -59q46 2 66 4q26 2 36 2q5 0 8 -4t3 -8q-1 -10 -10.5 -23t-19.5 -12l-21 3q-12 1 -27 3t-34 4l11 -370
q1 -16 1 -44q0 -79 -13 -124.5t-41 -65.5t-75 -20q-48 0 -78 16.5t-31 40.5q-1 19 11 29.5t31 10.5q27 0 38.5 -12t20.5 -35q7 -16 12.5 -23t16.5 -7t14.5 14.5t3.5 57.5q0 44 -3 136l-12 353v2q-1 21 -11.5 29.5t-36.5 11.5q-29 2 -154 4l11 -374q1 -16 1 -44
q0 -79 -13 -124.5t-41 -65.5t-75 -20q-48 0 -78 16.5t-31 40.5q-1 19 11 29.5t31 10.5q27 0 38.5 -12t20.5 -35q7 -16 12.5 -23t16.5 -7t14.5 14.5t3.5 57.5q0 44 -3 136l-12 353q-1 25 -6.5 36t-18 14t-42.5 3q-1 0 -2.5 2.5t-1.5 5.5t1.5 5.5t2.5 2.5q35 0 49 9t15 34
q2 116 55 184t155 68q30 0 66 -6.5t66 -16.5q52 79 172 79q38 0 70.5 -6.5t51.5 -18.5q34 19 35 44q0 2 2 3t4 1t4.5 -1.5t2.5 -3.5l-1 -655q-1 -47 24 -47q10 0 22 8.5t29 25.5zM163 377q108 0 136 1q31 1 45 7t18 18q1 5 1 15q0 82 11 137q-29 50 -57 72t-61 22
q-51 0 -74 -51.5t-21 -158.5z" />
    <glyph glyph-name="Aogonek_acutecomb.liga" unicode="&#x104;&#x301;" horiz-adv-x="654" 
d="M663 6q0 -6 -3 -6l-104 1q-45 0 -72 -38t-27 -94q0 -45 26.5 -71.5t70.5 -26.5q18 0 26 4t20 14q0 1 2 1q3 0 5 -3.5t0 -5.5q-27 -30 -52 -43t-57 -13q-49 0 -87.5 25t-38.5 73q0 31 13.5 55t40.5 56q26 32 38 53t12 47q0 22 -12 50l-88 211h-158l-68 -166
q-16 -38 -16 -61q0 -29 23 -42.5t71 -13.5q4 0 4 -6t-5 -6q-13 0 -57 2q-50 2 -76 2q-24 0 -56 -2q-28 -2 -46 -2q-4 0 -4 6t4 6q30 0 65.5 32.5t61.5 91.5l211 498q0 3 7 3q9 0 13 -4l224 -549q19 -43 36 -57.5t50 -14.5q3 0 3 -6zM230 323h135l-68 163zM295 678
q-4 0 -6 4.5t1 6.5q25 20 66 63l41 41q5 5 36.5 -3.5t57 -20t14.5 -13.5q-107 -28 -208 -77z" />
    <glyph glyph-name="Eogonek_acutecomb.liga" unicode="&#x118;&#x301;" horiz-adv-x="572" 
d="M530 -211q3 0 5.5 -4t0.5 -6q-23 -29 -45.5 -41.5t-50.5 -12.5q-46 0 -74.5 29.5t-28.5 73.5q0 42 28 82.5t82 89.5h-393q-4 0 -4 6t3 6q30 0 43.5 5t18 19t4.5 45v463q0 30 -5 44t-19 19.5t-42 5.5q-3 0 -3.5 6t1.5 6h431q8 0 8 -9l2 -132q0 -3 -5.5 -3t-6.5 2
q-17 56 -61.5 88.5t-105.5 32.5h-19q-31 0 -44.5 -4.5t-17.5 -16.5t-5 -40v-204h125q51 0 75 18t24 58q0 4 7 4t7 -5l-1 -55q-1 -12 -1 -34q0 -32 1 -48l1 -54q0 -5 -6 -5q-3 0 -5.5 1.5t-2.5 3.5q0 43 -26.5 65.5t-74.5 22.5h-123v-226q0 -40 12.5 -52t52.5 -12h28
q65 0 119 37.5t83 100.5q2 2 5 2t6 -1.5t2 -2.5q-10 -65 -10 -142q0 -8 -3 -11.5t-12 -3.5h-41q-24 -38 -37 -70.5t-12 -67.5q0 -39 17.5 -66.5t47.5 -27.5q13 0 24.5 5.5t18.5 14.5zM234 678q-4 0 -6 4.5t1 6.5q25 20 66 63l41 41q5 5 36.5 -3.5t57 -20t14.5 -13.5
q-107 -28 -208 -77z" />
    <glyph glyph-name="IJ_acutecomb.liga" unicode="&#x132;&#x301;" horiz-adv-x="669" 
d="M20.5 275q-0.5 6 4.5 6q32 0 46.5 5t19.5 19t5 45v194q0 30 -5.5 44t-20 19.5t-45.5 5.5q-4 0 -4 6t4 6l56 -1q44 -2 72 -2q31 0 79 2l50 1q5 0 5 -6t-5 -6q-32 0 -47 -6t-20 -20t-6 -45v-192q0 -30 5.5 -44.5t20.5 -19.5t46 -5q4 0 4.5 -6t-3.5 -6q-34 0 -54 1l-77 1
l-72 -1q-20 -1 -53 -1q-5 0 -5.5 6zM211.5 7.5q-53.5 21.5 -85.5 56t-34 72.5q-2 25 11.5 40t43.5 15q37 0 50 -20t21 -61q6 -33 14.5 -53.5t31 -35t65.5 -14.5q77 0 114 51t37 142v344q0 30 -6 44t-23.5 19.5t-54.5 5.5q-3 0 -3 6t3 6l61 -1q48 -2 76 -2q29 0 73 2l48 1
q5 0 5 -6t-5 -6q-28 0 -41 -6t-17.5 -20.5t-4.5 -44.5l2 -284q0 -86 -33.5 -147.5t-93 -93t-136.5 -31.5q-65 0 -118.5 21.5zM72 678q-4 0 -6 4.5t1 6.5q25 20 66 63l41 41q5 5 36.5 -3.5t57 -20t14.5 -13.5q-107 -28 -208 -77zM446 678q-4 0 -6 4.5t1 6.5q25 20 66 63
l41 41q5 5 36.5 -3.5t57 -20t14.5 -13.5q-107 -28 -208 -77z" />
    <glyph glyph-name="Iogonek_acutecomb.liga" unicode="&#x12e;&#x301;" horiz-adv-x="358" 
d="M304 6q0 -6 -2 -6q-28 0 -43 1l-63 1q-21 -65 -21 -115q0 -16 1 -25q1 -39 17 -65t43 -26q24 0 36 17l2 1q3 0 5.5 -4t0.5 -6q-23 -29 -45.5 -41.5t-50.5 -12.5q-40 0 -65.5 30.5t-25.5 74.5q-1 42 20.5 82t64.5 90l-71 -1q-18 -1 -51 -1q-2 0 -2 6t2 6q31 0 44.5 5
t18.5 19t5 45v463q0 29 -5.5 43.5t-19.5 20t-43 5.5q-2 0 -2.5 6t2.5 6l50 -1q44 -2 71 -2q30 0 76 2l49 1q2 0 2 -6t-2 -6q-30 0 -44 -6t-18.5 -20t-5.5 -45v-461q0 -30 5.5 -44t19.5 -19.5t43 -5.5q2 0 2 -6zM114 678q-4 0 -6 4.5t1 6.5q25 20 66 63l41 41q5 5 36.5 -3.5
t57 -20t14.5 -13.5q-107 -28 -208 -77z" />
    <glyph glyph-name="J_acutecomb.liga" unicode="J&#x301;" horiz-adv-x="337" 
d="M35.5 -189q-2.5 5 -0.5 7q44 27 63 81.5t17 140.5v504q0 29 -5.5 43.5t-19.5 20t-43 5.5q-3 0 -3 6t3 6l52 -1q42 -2 68 -2q34 0 78 2l47 1q3 0 3.5 -6t-3.5 -6q-29 0 -43 -6t-18.5 -20.5t-5.5 -44.5v-475q0 -78 -18.5 -126.5t-57.5 -78.5t-107 -55q-4 -1 -6.5 4zM79 678
q-4 0 -6.5 4.5t0.5 6.5q20 16 67 63q20 21 41 41q4 4 36 -4.5t57.5 -19.5t13.5 -13q-115 -31 -208 -78h-1z" />
    <glyph glyph-name="uni01EA0301.liga" unicode="&#x1ea;&#x301;" horiz-adv-x="735" 
d="M543 594.5q74 -41.5 114.5 -114t40.5 -161.5q0 -80 -31 -145.5t-85 -109t-123 -62.5q-25 -39 -38 -71.5t-12 -68.5q0 -39 17.5 -66.5t47.5 -27.5q13 0 24.5 5.5t18.5 14.5l2 1q3 0 5.5 -4t0.5 -6q-23 -29 -45.5 -41.5t-50.5 -12.5q-46 0 -74.5 29.5t-28.5 73.5
q0 42 26.5 80.5t78.5 86.5q-34 -7 -75 -7q-95 0 -168 43t-112.5 116.5t-39.5 163.5q0 92 43.5 166t120 116.5t172.5 42.5q97 0 171 -41.5zM494.5 44q41.5 30 64.5 85.5t23 130.5q0 92 -31 173t-87 130t-128 49q-55 0 -97 -30t-65 -85.5t-23 -130.5q0 -90 31 -171.5
t87.5 -131t128.5 -49.5q55 0 96.5 30zM309 678q-4 0 -6 4.5t1 6.5q25 20 66 63l41 41q5 5 36.5 -3.5t57 -20t14.5 -13.5q-107 -28 -208 -77z" />
    <glyph glyph-name="aogonek_acutecomb.liga" unicode="&#x105;&#x301;" horiz-adv-x="480" 
d="M479 -197q3 0 6 -4t0 -6q-20 -33 -52.5 -50.5t-67.5 -17.5q-40 0 -67 22t-27 61q0 41 29.5 90t80.5 93h-4q-36 0 -54 24t-18 74l-1 63q-27 -78 -75.5 -121.5t-103.5 -43.5q-41 0 -66.5 27.5t-25.5 84.5q0 66 36 136.5t92.5 117t115.5 46.5q24 0 46.5 -7.5t37.5 -17.5
q18 14 28 33q2 2 4 2q3 0 6.5 -2t2.5 -3l-2 -315q-1 -23 4.5 -35t16.5 -12q10 0 24 9.5t28 25.5q1 1 3 1q3 0 6 -3.5t2 -5.5q-50 -52 -75.5 -86t-35.5 -62.5t-10 -64.5t17.5 -57t48.5 -21q17 0 27.5 6.5t20.5 17.5zM284.5 325q-20.5 25 -55.5 25q-51 0 -80 -49.5t-29 -128.5
q1 -59 18 -85.5t44 -26.5q33 0 61.5 32t45 78.5t16.5 85.5q0 44 -20.5 69zM258 472q-3 0 -5.5 1.5t-1.5 2.5l33 240q2 4 33 9.5t52 5.5q14 0 13 -4l-120 -253q0 -2 -4 -2z" />
    <glyph glyph-name="eogonek_acutecomb.liga" unicode="&#x119;&#x301;" horiz-adv-x="381" 
d="M360 47q-58 -60 -82 -105t-24 -85q0 -33 13.5 -55.5t41.5 -22.5q15 0 28 6.5t20 15.5q1 1 3 1t4.5 -2.5t1.5 -4.5q-11 -28 -37 -49t-61 -21q-38 0 -67.5 24t-29.5 67q0 38 28 79t100 111q-40 -18 -88 -18q-60 0 -102 27t-63 71t-21 94q0 54 28 104.5t79.5 82.5t118.5 32
q45 0 70.5 -14t28.5 -40q4 -44 -62 -82t-163 -55q4 -77 40.5 -126.5t99.5 -49.5q24 0 49 7.5t45 23.5h2q3 0 6 -3t1 -5zM144.5 330.5q-19.5 -41.5 -19.5 -106.5q121 28 117 100q0 22 -11.5 35t-31.5 13q-35 0 -54.5 -41.5zM208 472q-3 0 -5.5 1.5t-1.5 2.5l33 240
q2 4 33 9.5t52 5.5q14 0 13 -4l-120 -253q0 -2 -4 -2z" />
    <glyph glyph-name="ij_acutecomb.liga" unicode="&#x133;&#x301;" horiz-adv-x="484" 
d="M420 392.5q9 -1.5 10 -4.5q0 -41 -2 -76l-2 -382q-2 -95 -56 -153t-148 -58q-41 0 -74.5 10t-51.5 27.5t-16 38.5q0 26 13 38.5t32 12.5q23 0 34.5 -11.5t23.5 -36.5q13 -28 28.5 -43t50.5 -15q33 0 51 36t18 130l1 253q-22 -83 -62.5 -127.5t-95.5 -44.5q-48 0 -72.5 33
t-23.5 99l4 178q1 47 -24 47q-10 0 -22 -8.5t-29 -26.5q-2 -2 -4 -2q-3 0 -5.5 3.5t-1.5 6.5q31 41 55.5 59.5t54.5 18.5q34 0 52 -24t16 -74l-3 -159q-1 -94 47 -94q29 0 53.5 32.5t41 95t19.5 148.5l1 60q0 6 13 10t36 4q29 0 38 -1.5zM116 472q-3 0 -5.5 1.5t-1.5 2.5
l33 240q2 4 33 9.5t52 5.5q14 0 13 -4l-120 -253q0 -2 -4 -2zM349 471q-3 0 -6 2t-2 3l33 240q1 6 27.5 11t50.5 5q23 0 20 -5l-119 -254q-2 -2 -4 -2z" />
    <glyph glyph-name="iogonek_acutecomb.liga" unicode="&#x12f;&#x301;" horiz-adv-x="263" 
d="M99 472.5q-5 1.5 -4 3.5l32 240q2 4 33 9.5t52 5.5q15 0 14 -4l-121 -253q-1 -3 -6 -1.5zM258 -197q4 0 6.5 -4t0.5 -6q-20 -34 -53 -51t-68 -17q-40 0 -67 22t-27 61q0 41 30 90.5t82 92.5h-9q-69 0 -66 98l1 208q0 49 -26 49q-22 0 -55 -40q-1 -1 -3 -1q-3 0 -6.5 3.5
t-1.5 6.5q30 42 58.5 61t58.5 19q35 0 50.5 -21.5t16.5 -64.5l-1 -220q-1 -47 23 -47q11 0 22.5 8.5t28.5 26.5q2 2 3 2q4 0 7 -3.5t1 -6.5q-54 -56 -79.5 -89.5t-35 -60.5t-7.5 -63q1 -33 18.5 -55.5t48.5 -22.5q27 0 47 24z" />
    <glyph glyph-name="j_acutecomb.liga" unicode="j&#x301;" horiz-adv-x="262" 
d="M-17 -258q-30 17 -30 42q0 18 12 28t30 10q27 0 38.5 -12t21.5 -35q6 -16 11.5 -23t16.5 -7q9 0 12.5 9.5t5 32.5t1.5 73v93v344q0 49 -26 49q-22 0 -55 -40q-1 -1 -3 -1q-3 0 -6.5 3.5t-0.5 6.5q31 43 58.5 61.5t57.5 18.5q35 0 51 -21.5t17 -64.5v-330
q1 -96 -11.5 -150.5t-41.5 -79t-80 -24.5q-49 0 -79 17zM115 471q-3 0 -6 2t-2 3l33 240q1 6 27.5 11t50.5 5q23 0 20 -5l-119 -254q-2 -2 -4 -2z" />
    <glyph glyph-name="uni01EB0301.liga" unicode="&#x1eb;&#x301;" horiz-adv-x="437" 
d="M365 343q49 -56 49 -145q0 -81 -41.5 -133.5t-105.5 -70.5q-22 -36 -34 -67t-11 -65q0 -39 17.5 -66.5t47.5 -27.5q13 0 24.5 5.5t18.5 14.5l2 1q3 0 5.5 -4t0.5 -6q-23 -29 -45.5 -41.5t-50.5 -12.5q-46 0 -74.5 29.5t-28.5 73.5q0 40 24.5 77.5t72.5 82.5
q-18 -2 -28 -2q-58 0 -99.5 27.5t-62.5 73.5t-21 101q0 62 26 110t72.5 74.5t104.5 26.5q88 0 137 -56zM297.5 264.5q-15.5 50.5 -42.5 80.5t-59 30q-33 0 -52 -35t-19 -104q0 -60 16 -111.5t42.5 -82.5t57.5 -31q36 0 54 38.5t18 106.5q0 58 -15.5 108.5zM210 472
q-3 0 -5.5 1.5t-1.5 2.5l33 240q2 4 33 9.5t52 5.5q14 0 13 -4l-120 -253q0 -2 -4 -2z" />
    <glyph glyph-name="T_T.liga" unicode="TT" horiz-adv-x="1127" 
d="M150 6q0 6 3 6q42 0 61.5 5t26.5 19.5t7 44.5v463q1 35 -9 46.5t-38 11.5h-13q-34 0 -67 -21.5t-56 -57t-28 -77.5q0 -4 -6 -4q-3 0 -5 2t-1 4q5 38 15 199q0 3 6.5 3t6.5 -3q0 -22 45 -22q81 -3 203 -3q118 0 193 3q34 1 47.5 5.5t14.5 19.5q0 3 8 3q7 0 7 -3
q1 -13 20.5 -19t37.5 -6q84 -3 203 -3q55 0 123 2l70 1q32 0 47.5 5t19.5 20q2 3 7 3t5 -4q-3 -44 -5.5 -109.5t-1.5 -90.5q0 -4 -7 -4t-7 4q0 41 -18.5 76.5t-51 56t-70.5 20.5h-13q-20 0 -28.5 -5t-11 -16.5t-3.5 -38.5l2 -461q0 -31 6 -45t25 -19t62 -5q3 0 3.5 -6
t-3.5 -6q-37 0 -58 1l-91 1l-86 -1q-22 -1 -62 -1q-3 0 -3 6t3 6q41 0 60.5 5t26.5 19.5t7 44.5v463q1 35 -9 46.5t-38 11.5h-13q-62 0 -92 -12t-42.5 -43.5t-14.5 -97.5q0 -1 -3 -2.5t-6 -1.5q-4 0 -7 1.5t-3 2.5q-4 66 -16.5 97.5t-40 43.5t-83.5 12h-13q-20 0 -28.5 -5
t-10.5 -16.5t-3 -38.5l1 -461q0 -31 6.5 -45t25.5 -19t62 -5q4 0 4 -6t-4 -6q-36 0 -57 1l-90 1l-87 -1q-24 -1 -64 -1q-3 0 -3 6z" />
    <glyph glyph-name="T_h.liga" unicode="Th" horiz-adv-x="1027" 
d="M1026 79q4 0 6.5 -3.5t1.5 -6.5q-31 -41 -55.5 -59.5t-55.5 -18.5q-36 0 -52 24.5t-15 73.5l1 159q0 94 -48 94q-30 0 -56 -35.5t-42 -103.5t-17 -162v-29q0 -9 -14.5 -14.5t-43.5 -5.5q-35 0 -37 8v23q2 28 2 51l3 515v4q0 9 -11 9h-195q-20 0 -28.5 -5t-10.5 -16.5
t-3 -38.5l1 -461q0 -31 6.5 -45t25.5 -19t62 -5q4 0 4 -6t-4 -6q-37 0 -58 1l-91 1l-86 -1q-22 -1 -62 -1q-4 0 -4 6t3 6q42 0 61.5 5t26.5 19.5t7 44.5v463q1 35 -9 46.5t-38 11.5h-13q-34 0 -67 -21.5t-56 -57t-28 -77.5q0 -3 -5 -3q-3 0 -5.5 1.5t-1.5 3.5q6 43 15 199
q0 3 6.5 3t6.5 -3q0 -22 45 -22q81 -3 203 -3q125 0 180 3q72 1 121 23t76 79q2 3 8 3q4 0 7 -1.5t3 -3.5l-1 -505q20 86 61 132.5t98 46.5q96 0 96 -132l-1 -178q-2 -47 23 -47q10 0 20.5 8t29.5 27q2 2 4 2z" />
    <glyph glyph-name="f_b.liga" unicode="fb" horiz-adv-x="785" 
d="M724.5 358q31.5 -41 32.5 -107q0 -81 -40 -141t-99 -91.5t-114 -31.5q-66 0 -103.5 27t-36.5 73l5 528q-19 43 -46 66.5t-58 23.5q-54 0 -79.5 -56t-25.5 -175l1 -35l2 -59q46 2 66 4q26 2 36 2q5 0 8 -4t3 -8q-1 -10 -10.5 -23t-19.5 -12l-21 3q-12 1 -27 3t-34 4
l11 -370q1 -16 1 -44q0 -79 -13 -124.5t-41 -65.5t-75 -20q-48 0 -78.5 16.5t-30.5 40.5q0 19 12 29.5t30 10.5q27 0 38.5 -12t20.5 -35q7 -16 12.5 -23t16.5 -7t14.5 14.5t3.5 57.5q0 44 -3 136l-12 353q-1 26 -6 36.5t-17.5 13.5t-42.5 3q-3 0 -4.5 3t-1.5 6q0 7 5 7
q35 0 49.5 9t14.5 34q-1 156 49 232t170 76q37 0 69 -6.5t52 -17.5q31 17 36 43q2 4 7.5 3.5t5.5 -4.5v-514q22 76 71.5 122.5t112.5 46.5q52 0 83.5 -41zM599.5 39.5q27.5 24.5 42.5 71t13 109.5q2 48 -14.5 80t-49.5 32q-39 0 -69.5 -29t-47.5 -81t-17 -119v-7
q0 -35 24 -58t57 -23q34 0 61.5 24.5z" />
    <glyph glyph-name="f_f_b.liga" unicode="ffb" horiz-adv-x="1080" 
d="M1019.5 358q31.5 -41 32.5 -107q0 -81 -40 -141t-99 -91.5t-114 -31.5q-66 0 -103.5 27t-36.5 73l5 528q-19 43 -46 66.5t-58 23.5q-54 0 -79.5 -56t-25.5 -175l1 -35l2 -59q46 2 66 4q26 2 36 2q5 0 8 -4t3 -8q-1 -10 -10.5 -23t-19.5 -12l-21 3q-12 1 -27 3t-34 4
l11 -370q1 -16 1 -44q0 -79 -13 -124.5t-41 -65.5t-75 -20q-48 0 -78.5 16.5t-30.5 40.5q0 19 12 29.5t30 10.5q27 0 38.5 -12t20.5 -35q7 -16 12.5 -23t16.5 -7t14.5 14.5t3.5 57.5q0 44 -3 136l-12 353v2q-1 21 -11.5 29.5t-36.5 11.5q-29 2 -154 4l11 -374q1 -16 1 -44
q0 -79 -13 -124.5t-41 -65.5t-75 -20q-48 0 -78 16.5t-31 40.5q-1 19 11 29.5t31 10.5q27 0 38.5 -12t20.5 -35q7 -16 12.5 -23t16.5 -7t14.5 14.5t3.5 57.5q0 44 -3 136l-12 353q-1 25 -6.5 36t-18 14t-42.5 3q-1 0 -2.5 2.5t-1.5 5.5t1.5 5.5t2.5 2.5q35 0 49 9t15 34
q2 116 55 184t155 68q30 0 66 -6.5t66 -16.5q52 79 172 79q37 0 69 -6.5t52 -17.5q31 17 36 43q2 4 7.5 3.5t5.5 -4.5v-514q22 76 71.5 122.5t112.5 46.5q52 0 83.5 -41zM163 377q108 0 136 1q31 1 45 7t18 18q1 5 1 15q0 82 11 137q-29 50 -57 72t-61 22q-51 0 -74 -51.5
t-21 -158.5zM894.5 39.5q27.5 24.5 42.5 71t13 109.5q2 48 -14.5 80t-49.5 32q-39 0 -69.5 -29t-47.5 -81t-17 -119v-7q0 -35 24 -58t57 -23q34 0 61.5 24.5z" />
    <glyph glyph-name="f_f_f.liga" unicode="fff" horiz-adv-x="873" 
d="M830 709.5q30 -16.5 30 -40.5q0 -20 -12 -31t-33 -11q-29 0 -41.5 12t-21.5 35q-7 16 -13 23.5t-19 7.5q-18 0 -30 -18q27 -9 41 -16l-51 -101q-8 16 -13 23q-3 -39 -3 -90l1 -64l1 -39l10 -20l93 6q5 0 8 -4t3 -8q-1 -10 -10.5 -23t-19.5 -12q-56 8 -74 9l-8 -21
l11 -348l1 -35q0 -82 -14.5 -130t-44 -68.5t-77.5 -20.5q-43 0 -69.5 14t-31.5 35q-15 -26 -40 -37.5t-61 -11.5q-48 0 -78 16.5t-31 40.5q-2 19 10.5 29.5t31.5 10.5q27 0 38.5 -12t20.5 -35q7 -16 12.5 -23t16.5 -7t14.5 14.5t3.5 57.5q0 44 -3 136l-12 353v2
q-1 21 -11.5 29.5t-36.5 11.5q-29 2 -154 4l11 -374q1 -16 1 -44q0 -79 -13 -124.5t-41 -65.5t-75 -20q-48 0 -78 16.5t-31 40.5q-1 19 11 29.5t31 10.5q27 0 38.5 -12t20.5 -35q7 -16 12.5 -23t16.5 -7t14.5 14.5t3.5 57.5q0 44 -3 136l-12 353q-1 25 -6.5 36t-18 14
t-42.5 3q-1 0 -2.5 2.5t-1.5 5.5t1.5 5.5t2.5 2.5q35 0 49 9t15 34q2 116 55 184t155 68q34 0 75 -8t72 -21q52 64 148 64q33 0 67 -7q38 28 112 28q48 0 78 -16.5zM476.5 627.5q-22.5 -56.5 -20.5 -188.5l2 -62h81q18 4 25.5 13.5t7.5 27.5l-1 40q0 76 9 126t29 81
q-28 19 -58 19q-52 0 -74.5 -56.5zM163 377q108 0 136 1q30 1 44 7t18 18q2 8 2 15q2 75 16 128q-30 55 -59.5 79t-63.5 24q-51 0 -74 -51.5t-21 -158.5zM586.5 -240.5q3.5 14.5 3.5 57.5q0 44 -3 136l-12 353q-1 20 -3.5 30t-8.5 15q-62 2 -104 2l11 -374q1 -15 1 -44
q0 -73 -12 -119q11 6 25 6q27 0 38.5 -12t20.5 -35q7 -16 12.5 -23t16.5 -7t14.5 14.5z" />
    <glyph glyph-name="f_f_h.liga" unicode="ffh" horiz-adv-x="1083" 
d="M1083 79q4 0 7 -3.5t0 -6.5q-30 -41 -54.5 -59.5t-55.5 -18.5q-71 0 -66 98l1 159q0 47 -12.5 70.5t-35.5 23.5q-32 0 -58 -37t-41.5 -108t-16.5 -170v-15q0 -9 -15 -14.5t-43 -5.5q-33 0 -37 8q-1 2 1 25q2 26 2 49l5 541q-19 43 -46 66.5t-58 23.5q-54 0 -79.5 -56
t-25.5 -175l1 -35l2 -59q46 2 66 4q26 2 36 2q5 0 8 -4t3 -8q-1 -10 -10.5 -23t-19.5 -12l-21 3q-12 1 -27 3t-34 4l11 -370q1 -16 1 -44q0 -79 -13 -124.5t-41 -65.5t-75 -20q-48 0 -78.5 16.5t-30.5 40.5q0 19 12 29.5t30 10.5q27 0 38.5 -12t20.5 -35q7 -16 12.5 -23
t16.5 -7t14.5 14.5t3.5 57.5q0 44 -3 136l-12 353v2q-1 21 -11.5 29.5t-36.5 11.5q-29 2 -154 4l11 -374q1 -16 1 -44q0 -79 -13 -124.5t-41 -65.5t-75 -20q-48 0 -78 16.5t-31 40.5q-1 19 11 29.5t31 10.5q27 0 38.5 -12t20.5 -35q7 -16 12.5 -23t16.5 -7t14.5 14.5
t3.5 57.5q0 44 -3 136l-12 353q-1 25 -6.5 36t-18 14t-42.5 3q-1 0 -2.5 2.5t-1.5 5.5t1.5 5.5t2.5 2.5q35 0 49 9t15 34q2 116 55 184t155 68q30 0 66 -6.5t66 -16.5q52 79 172 79q38 0 70.5 -6.5t51.5 -17.5q31 16 35 43q2 4 7.5 3.5t5.5 -4.5l-1 -525q21 86 62 133t97 47
q97 0 97 -132l-1 -178q-1 -47 24 -47q19 0 49 35q2 2 4 2zM163 377q108 0 136 1q31 1 45 7t18 18q1 5 1 15q0 82 11 137q-29 50 -57 72t-61 22q-51 0 -74 -51.5t-21 -158.5z" />
    <glyph glyph-name="f_f_j.liga" unicode="ffj" horiz-adv-x="825" 
d="M755 382.5q3 -3.5 3 -16.5l-1 -57l-2 -330q0 -96 -12.5 -150.5t-41 -79t-79.5 -24.5q-48 0 -78.5 16.5t-30.5 40.5q0 19 12 29.5t31 10.5q27 0 38.5 -12t20.5 -35q7 -16 12.5 -23t16.5 -7q9 0 12.5 10.5t4.5 43.5t1 81v73l3 341q1 28 -12.5 40.5t-55.5 17t-139 5.5
l12 -378q1 -16 1 -44q0 -79 -13 -124.5t-41 -65.5t-75 -20q-48 0 -78.5 16.5t-30.5 40.5q0 19 12 29.5t30 10.5q27 0 38.5 -12t20.5 -35q7 -16 12.5 -23t16.5 -7t14.5 14.5t3.5 57.5q0 44 -3 136l-12 353v2q-1 21 -11.5 29.5t-36.5 11.5q-29 2 -154 4l11 -374q1 -16 1 -44
q0 -79 -13 -124.5t-41 -65.5t-75 -20q-48 0 -78 16.5t-31 40.5q-1 19 11 29.5t31 10.5q27 0 38.5 -12t20.5 -35q7 -16 12.5 -23t16.5 -7t14.5 14.5t3.5 57.5q0 44 -3 136l-12 353q-1 25 -6.5 36t-18 14t-42.5 3q-1 0 -2.5 2.5t-1.5 5.5t1.5 5.5t2.5 2.5q35 0 49 9t15 34
q2 116 55 184t155 68q32 0 71 -7t69 -19q58 82 176 82q58 0 94.5 -19.5t38.5 -49.5q1 -20 -12 -31t-35 -11q-26 0 -40.5 12.5t-31.5 37.5q-12 20 -23 30t-28 10q-51 0 -78 -68t-23 -198l2 -61q96 1 220 6l63 2q11 0 14 -3.5zM163 377q108 0 136 1q50 1 61 21q3 8 3 19
q1 74 15 131q-29 53 -58.5 76.5t-63.5 23.5q-51 0 -74 -51.5t-21 -158.5z" />
    <glyph glyph-name="f_f_k.liga" unicode="ffk" horiz-adv-x="1047" 
d="M1071 77q3 0 5.5 -4t0.5 -6q-57 -76 -100 -76q-30 0 -54 14.5t-57 52.5l-83 96q-10 12 -17 17t-15 6v-165q0 -9 -15 -14.5t-43 -5.5q-33 0 -37 8q-1 2 1 25q2 26 2 49l5 541q-19 43 -46 66.5t-58 23.5q-54 0 -79.5 -56t-25.5 -175l1 -35l2 -59q46 2 66 4q26 2 36 2
q5 0 8 -4t3 -8q-1 -10 -10.5 -23t-19.5 -12l-21 3q-12 1 -27 3t-34 4l11 -370q1 -16 1 -44q0 -79 -13 -124.5t-41 -65.5t-75 -20q-48 0 -78.5 16.5t-30.5 40.5q0 19 12 29.5t30 10.5q27 0 38.5 -12t20.5 -35q7 -16 12.5 -23t16.5 -7t14.5 14.5t3.5 57.5q0 44 -3 136l-12 353
v2q-1 21 -11.5 29.5t-36.5 11.5q-29 2 -154 4l11 -374q1 -16 1 -44q0 -79 -13 -124.5t-41 -65.5t-75 -20q-48 0 -78 16.5t-31 40.5q-1 19 11 29.5t31 10.5q27 0 38.5 -12t20.5 -35q7 -16 12.5 -23t16.5 -7t14.5 14.5t3.5 57.5q0 44 -3 136l-12 353q-1 25 -6.5 36t-18 14
t-42.5 3q-1 0 -2.5 2.5t-1.5 5.5t1.5 5.5t2.5 2.5q35 0 49 9t15 34q2 116 55 184t155 68q30 0 66 -6.5t66 -16.5q52 79 172 79q37 0 69 -6.5t52 -17.5q30 16 36 43q1 4 7 3.5t6 -3.5l-1 -416q34 33 76 51.5t86 18.5q47 0 66 -18.5t19 -42.5q0 -37 -40 -72.5t-114 -61.5
l91 -102q27 -32 44 -42.5t34 -10.5q24 0 55 27q1 1 3 1zM163 377q108 0 136 1q31 1 45 7t18 18q1 5 1 15q0 82 11 137q-29 50 -57 72t-61 22q-51 0 -74 -51.5t-21 -158.5zM779.5 314.5q-26.5 -41.5 -28.5 -109.5v-8q72 16 105.5 41t33.5 62l-1 11q-3 45 -40 45
q-43 0 -69.5 -41.5z" />
    <glyph glyph-name="f_f_thorn.liga" unicode="ff&#xfe;" horiz-adv-x="1044" 
d="M751 1v-179q0 -33 8 -45t32 -12q5 0 23 2q5 1 6.5 -4.5t-3.5 -6.5l-202 -31q-4 -1 -5.5 5t2.5 7q21 5 29.5 11.5t11.5 20.5t3 46l5 481q-40 -26 -53 -36q-1 -1 -3 -1q-4 0 -7 4t1 7q27 23 62 48l3 297q-19 43 -46 66.5t-58 23.5q-54 0 -79.5 -56t-25.5 -175l1 -35l2 -59
q46 2 66 4q26 2 36 2q5 0 8 -4t3 -8q-1 -10 -10.5 -23t-19.5 -12l-21 3q-12 1 -27 3t-34 4l11 -370q1 -16 1 -44q0 -79 -13 -124.5t-41 -65.5t-75 -20q-48 0 -78.5 16.5t-30.5 40.5q0 19 12 29.5t30 10.5q27 0 38.5 -12t20.5 -35q7 -16 12.5 -23t16.5 -7t14.5 14.5t3.5 57.5
q0 44 -3 136l-12 353v2q-1 21 -11.5 29.5t-36.5 11.5q-29 2 -154 4l11 -374q1 -16 1 -44q0 -79 -13 -124.5t-41 -65.5t-75 -20q-48 0 -78 16.5t-31 40.5q-1 19 11 29.5t31 10.5q27 0 38.5 -12t20.5 -35q7 -16 12.5 -23t16.5 -7t14.5 14.5t3.5 57.5q0 44 -3 136l-12 353
q-1 25 -6.5 36t-18 14t-42.5 3q-1 0 -2.5 2.5t-1.5 5.5t1.5 5.5t2.5 2.5q35 0 49 9t15 34q2 116 55 184t155 68q30 0 66 -6.5t66 -16.5q52 79 172 79q37 0 69 -6.5t52 -17.5q31 17 36 43q2 4 7.5 3.5t5.5 -4.5v-377q65 26 121 26q68 0 104.5 -39t36.5 -112
q0 -66 -28.5 -121.5t-80 -88.5t-115.5 -33q-11 0 -39 2zM163 377q108 0 136 1q31 1 45 7t18 18q1 5 1 15q0 82 11 137q-29 50 -57 72t-61 22q-51 0 -74 -51.5t-21 -158.5zM752 337l-1 -293q42 -15 74 -15q54 0 75.5 38.5t21.5 112.5q0 80 -25.5 122t-90.5 42q-29 0 -54 -7z
" />
    <glyph glyph-name="f_f_t.liga" unicode="fft" horiz-adv-x="890" 
d="M887 81q4 0 7.5 -3.5t0.5 -6.5q-41 -44 -77 -63.5t-74 -19.5q-107 0 -106 106l1 212q0 22 -19.5 34t-51.5 13q-26 1 -109 1l11 -375q1 -16 1 -44q0 -79 -13 -124.5t-41 -65.5t-75 -20q-48 0 -78 16.5t-31 40.5q-1 19 11 29.5t31 10.5q27 0 38.5 -12t20.5 -35
q7 -16 12.5 -23t16.5 -7t14.5 14.5t3.5 57.5q0 44 -3 136l-12 353v2q-1 21 -11.5 29.5t-36.5 11.5q-29 2 -154 4l11 -374q1 -16 1 -44q0 -79 -13 -124.5t-41 -65.5t-75 -20q-48 0 -78 16.5t-31 40.5q-1 19 11 29.5t31 10.5q27 0 38.5 -12t20.5 -35q7 -16 12.5 -23t16.5 -7
t14.5 14.5t3.5 57.5q0 44 -3 136l-12 353q-1 25 -6.5 36t-18 14t-42.5 3q-1 0 -2.5 2.5t-1.5 5.5t1.5 5.5t2.5 2.5q35 0 49 9t15 34q2 116 55 184t155 68q54 0 115 -18q20 40 56 57t94 17q49 0 78.5 -17t29.5 -42q0 -19 -12.5 -29.5t-32.5 -10.5q-31 0 -43 12t-22 36
q-6 16 -11.5 23t-18.5 7q-31 0 -43.5 -50t-12.5 -156l1 -60l2 -64q75 0 125 3q58 2 89 23t39 62q2 3 11 3q12 0 12 -6l-1 -82q41 2 130 8q4 0 7 -4t3 -8q-1 -11 -10.5 -24.5t-20.5 -12.5q-60 10 -109 12l-2 -238q0 -35 17 -51.5t52 -16.5q43 0 86 38h1zM163 377q108 0 136 1
q31 1 45 7t18 18q1 5 1 15v38q0 70 5 109q-27 44 -54 64t-58 20q-51 0 -74 -51.5t-21 -158.5z" />
    <glyph glyph-name="f_h.liga" unicode="fh" horiz-adv-x="788" 
d="M788 79q4 0 7 -3.5t0 -6.5q-30 -41 -54.5 -59.5t-55.5 -18.5q-71 0 -66 98l1 159q0 47 -12.5 70.5t-35.5 23.5q-32 0 -58 -37t-41.5 -108t-16.5 -170v-15q0 -9 -15 -14.5t-43 -5.5q-33 0 -37 8q-1 2 1 25q2 26 2 49l5 541q-19 43 -46 66.5t-58 23.5q-54 0 -79.5 -56
t-25.5 -175l1 -35l2 -59q46 2 66 4q26 2 36 2q5 0 8 -4t3 -8q-1 -10 -10.5 -23t-19.5 -12l-21 3q-12 1 -27 3t-34 4l11 -370q1 -16 1 -44q0 -79 -13 -124.5t-41 -65.5t-75 -20q-48 0 -78.5 16.5t-30.5 40.5q0 19 12 29.5t30 10.5q27 0 38.5 -12t20.5 -35q7 -16 12.5 -23
t16.5 -7t14.5 14.5t3.5 57.5q0 44 -3 136l-12 353q-1 25 -6.5 36t-18 14t-42.5 3q-1 0 -2.5 2.5t-1.5 5.5t1.5 5.5t2.5 2.5q35 0 49.5 9t14.5 34q-1 156 49 232t170 76q38 0 70.5 -6.5t51.5 -17.5q31 16 35 43q2 4 7.5 3.5t5.5 -4.5l-1 -525q21 86 62 133t97 47
q97 0 97 -132l-1 -178q-1 -47 24 -47q19 0 49 35q2 2 4 2z" />
    <glyph glyph-name="f_j.liga" unicode="fj" horiz-adv-x="530" 
d="M460 382.5q3 -3.5 3 -16.5l-1 -57l-2 -330q0 -96 -12.5 -150.5t-41 -79t-79.5 -24.5q-48 0 -78.5 16.5t-30.5 40.5q0 19 12 29.5t31 10.5q27 0 38.5 -12t20.5 -35q7 -16 12.5 -23t16.5 -7q9 0 12.5 10.5t4.5 43.5t1 81v73l3 341q1 28 -12.5 40.5t-55.5 17t-139 5.5
l12 -378q1 -16 1 -44q0 -79 -13 -124.5t-41 -65.5t-75 -20q-48 0 -78.5 16.5t-30.5 40.5q0 19 12 29.5t30 10.5q27 0 38.5 -12t20.5 -35q7 -16 12.5 -23t16.5 -7t14.5 14.5t3.5 57.5q0 44 -3 136l-12 353q-1 25 -6.5 36t-18 14t-42.5 3q-2 0 -3.5 2.5t-1.5 5.5t1.5 5.5
t3.5 2.5q35 0 49 9t15 34q2 157 60 232.5t171 75.5q58 0 94.5 -19.5t38.5 -49.5q1 -20 -12 -31t-35 -11q-26 0 -40.5 12.5t-31.5 37.5q-12 20 -23 30t-28 10q-51 0 -78 -68t-23 -198l2 -61q96 1 220 6l63 2q11 0 14 -3.5z" />
    <glyph glyph-name="f_k.liga" unicode="fk" horiz-adv-x="752" 
d="M776 77q3 0 5.5 -4t0.5 -6q-57 -76 -100 -76q-30 0 -54 14.5t-57 52.5l-83 96q-10 12 -17 17t-15 6v-165q0 -9 -15 -14.5t-43 -5.5q-33 0 -37 8q-1 2 1 25q2 26 2 49l5 541q-19 43 -46 66.5t-58 23.5q-54 0 -79.5 -56t-25.5 -175l1 -35l2 -59q46 2 66 4q26 2 36 2
q5 0 8 -4t3 -8q-1 -10 -10.5 -23t-19.5 -12l-21 3q-12 1 -27 3t-34 4l11 -370q1 -16 1 -44q0 -79 -13 -124.5t-41 -65.5t-75 -20q-48 0 -78.5 16.5t-30.5 40.5q0 19 12 29.5t30 10.5q27 0 38.5 -12t20.5 -35q7 -16 12.5 -23t16.5 -7t14.5 14.5t3.5 57.5q0 44 -3 136l-12 353
q-1 25 -6.5 36t-18 14t-42.5 3q-2 0 -3.5 2.5t-1.5 5.5t1.5 5.5t3.5 2.5q35 0 49.5 9t14.5 34q-1 156 49 232t170 76q37 0 69 -6.5t52 -17.5q30 16 36 43q1 4 7 3.5t6 -3.5l-1 -416q34 33 76 51.5t86 18.5q47 0 66 -18.5t19 -42.5q0 -37 -40 -72.5t-114 -61.5l91 -102
q27 -32 44 -42.5t34 -10.5q24 0 55 27q1 1 3 1zM484.5 314.5q-26.5 -41.5 -28.5 -109.5v-8q72 16 105.5 41t33.5 62l-1 11q-3 45 -40 45q-43 0 -69.5 -41.5z" />
    <glyph glyph-name="f_thorn.liga" unicode="f&#xfe;" horiz-adv-x="745" 
d="M456 1v-179q0 -33 8 -45t32 -12q5 0 23 2q5 1 6.5 -4.5t-3.5 -6.5l-202 -31q-4 -1 -5.5 5t2.5 7q21 5 29.5 11.5t11.5 20.5t3 46l5 481q-40 -26 -53 -36q-1 -1 -3 -1q-4 0 -7 4t1 7q27 23 62 48l3 297q-19 43 -46 66.5t-58 23.5q-54 0 -79.5 -56t-25.5 -175l1 -35l2 -59
q46 2 66 4q26 2 36 2q5 0 8 -4t3 -8q-1 -10 -10.5 -23t-19.5 -12l-21 3q-12 1 -27 3t-34 4l11 -370q1 -16 1 -44q0 -79 -13 -124.5t-41 -65.5t-75 -20q-48 0 -78.5 16.5t-30.5 40.5q0 19 12 29.5t30 10.5q27 0 38.5 -12t20.5 -35q7 -16 12.5 -23t16.5 -7t14.5 14.5t3.5 57.5
q0 44 -3 136l-12 353q-1 25 -6.5 36t-18 14t-42.5 3q-2 0 -3.5 2.5t-1.5 5.5t1.5 5.5t3.5 2.5q35 0 49.5 9t14.5 34q-1 156 49 232t170 76q37 0 69 -6.5t52 -17.5q31 17 36 43q2 4 7.5 3.5t5.5 -4.5v-377q65 26 121 26q68 0 104.5 -39t36.5 -112q0 -66 -28.5 -121.5
t-80 -88.5t-115.5 -33q-11 0 -39 2zM457 337l-1 -293q42 -15 74 -15q54 0 75.5 38.5t21.5 112.5q0 80 -25.5 122t-90.5 42q-29 0 -54 -7z" />
    <glyph glyph-name="f_t.liga" unicode="ft" horiz-adv-x="595" 
d="M592 81q4 0 7.5 -3.5t0.5 -6.5q-41 -44 -77 -63.5t-74 -19.5q-107 0 -106 106l1 212q0 22 -19.5 34t-51.5 13q-26 1 -109 1l11 -375q1 -16 1 -44q0 -79 -13 -124.5t-41 -65.5t-75 -20q-48 0 -78 16.5t-31 40.5q-1 19 11 29.5t31 10.5q27 0 38.5 -12t20.5 -35
q7 -16 12.5 -23t16.5 -7t14.5 14.5t3.5 57.5q0 44 -3 136l-12 353q-1 25 -6.5 36t-18 14t-42.5 3q-2 0 -3.5 2.5t-1.5 5.5t1.5 5.5t3.5 2.5q35 0 49.5 9t14.5 34l-1 39q0 106 18 164t56.5 81.5t106.5 23.5q49 0 78.5 -17t29.5 -42q0 -19 -12.5 -29.5t-32.5 -10.5
q-31 0 -43 12t-22 36q-6 16 -11.5 23t-18.5 7q-31 0 -43.5 -50t-12.5 -156l1 -60l2 -64q75 0 125 3q58 2 89 23t39 62q2 3 11 3q12 0 12 -6l-1 -82q41 2 130 8q4 0 7 -4t3 -8q-1 -11 -10.5 -24.5t-20.5 -12.5q-60 10 -109 12l-2 -238q0 -35 17 -51.5t52 -16.5q43 0 86 38h1z
" />
    <glyph glyph-name="g_g.liga" unicode="gg" horiz-adv-x="910" 
d="M394 409q3 0 5.5 -1.5t2.5 -3.5l-1 -437q-1 -118 -57.5 -183t-156.5 -65q-65 0 -105.5 24.5t-40.5 63.5q0 19 13.5 29t32.5 10q23 0 34.5 -12t23.5 -38q13 -28 27 -42.5t44 -14.5q41 0 64.5 43.5t24.5 161.5v213q-27 -80 -76 -125t-104 -45q-41 0 -66.5 27.5t-25.5 84.5
q0 66 36 136.5t92.5 117t115.5 46.5q21 0 43.5 -6.5t40.5 -19.5q19 15 28 34q2 2 5 2zM243.5 92q28.5 32 45 78.5t16.5 85.5q0 44 -20.5 69t-55.5 25q-51 0 -80 -49.5t-29 -128.5q1 -59 18 -85.5t44 -26.5q33 0 61.5 32zM849 409q3 0 5.5 -1.5t2.5 -3.5l-1 -437
q-1 -118 -57.5 -183t-156.5 -65q-65 0 -105.5 24.5t-40.5 63.5q0 19 13.5 29t32.5 10q23 0 34.5 -12t23.5 -38q13 -28 27 -42.5t44 -14.5q41 0 64.5 43.5t24.5 161.5v213q-27 -80 -76 -125t-104 -45q-41 0 -66.5 27.5t-25.5 84.5q0 66 36 136.5t92.5 117t115.5 46.5
q21 0 43.5 -6.5t40.5 -19.5q19 15 28 34q2 2 5 2zM698.5 92q28.5 32 45 78.5t16.5 85.5q0 44 -20.5 69t-55.5 25q-51 0 -80 -49.5t-29 -128.5q1 -59 18 -85.5t44 -26.5q33 0 61.5 32z" />
    <glyph glyph-name="g_y.liga" unicode="gy" horiz-adv-x="939" 
d="M394 409q3 0 5.5 -1.5t2.5 -3.5l-1 -437q-1 -118 -57.5 -183t-156.5 -65q-65 0 -105.5 24.5t-40.5 63.5q0 19 13.5 29t32.5 10q23 0 34.5 -12t23.5 -38q13 -28 27 -42.5t44 -14.5q41 0 64.5 43.5t24.5 161.5v213q-27 -80 -76 -125t-104 -45q-41 0 -66.5 27.5t-25.5 84.5
q0 66 36 136.5t92.5 117t115.5 46.5q21 0 43.5 -6.5t40.5 -19.5q19 15 28 34q2 2 5 2zM243.5 92q28.5 32 45 78.5t16.5 85.5q0 44 -20.5 69t-55.5 25q-51 0 -80 -49.5t-29 -128.5q1 -59 18 -85.5t44 -26.5q33 0 61.5 32zM875 392.5q9 -1.5 10 -4.5q0 -41 -2 -76l-2 -382
q-2 -95 -56 -153t-148 -58q-41 0 -74.5 10t-51.5 27.5t-16 38.5q0 26 13 38.5t32 12.5q23 0 34.5 -11.5t23.5 -36.5q13 -28 28.5 -43t50.5 -15q33 0 51 36t18 130l1 253q-22 -83 -62.5 -127.5t-95.5 -44.5q-48 0 -72.5 33t-23.5 99l4 178q1 47 -24 47q-10 0 -22 -8.5
t-29 -26.5q-2 -2 -4 -2q-3 0 -5.5 3.5t-1.5 6.5q31 41 55.5 59.5t54.5 18.5q34 0 52 -24t16 -74l-3 -159q-1 -94 47 -94q29 0 53.5 32.5t41 95t19.5 148.5l1 60q0 6 13 10t36 4q29 0 38 -1.5z" />
    <glyph glyph-name="g_yacute.liga" unicode="g&#xfd;" horiz-adv-x="939" 
d="M394 409q3 0 5.5 -1.5t2.5 -3.5l-1 -437q-1 -118 -57.5 -183t-156.5 -65q-65 0 -105.5 24.5t-40.5 63.5q0 19 13.5 29t32.5 10q23 0 34.5 -12t23.5 -38q13 -28 27 -42.5t44 -14.5q41 0 64.5 43.5t24.5 161.5v213q-27 -80 -76 -125t-104 -45q-41 0 -66.5 27.5t-25.5 84.5
q0 66 36 136.5t92.5 117t115.5 46.5q21 0 43.5 -6.5t40.5 -19.5q19 15 28 34q2 2 5 2zM243.5 92q28.5 32 45 78.5t16.5 85.5q0 44 -20.5 69t-55.5 25q-51 0 -80 -49.5t-29 -128.5q1 -59 18 -85.5t44 -26.5q33 0 61.5 32zM875 392.5q9 -1.5 10 -4.5q0 -41 -2 -76l-2 -382
q-2 -95 -56 -153t-148 -58q-41 0 -74.5 10t-51.5 27.5t-16 38.5q0 26 13 38.5t32 12.5q23 0 34.5 -11.5t23.5 -36.5q13 -28 28.5 -43t50.5 -15q33 0 51 36t18 130l1 253q-22 -83 -62.5 -127.5t-95.5 -44.5q-48 0 -72.5 33t-23.5 99l4 178q1 47 -24 47q-10 0 -22 -8.5
t-29 -26.5q-2 -2 -4 -2q-3 0 -5.5 3.5t-1.5 6.5q31 41 55.5 59.5t54.5 18.5q34 0 52 -24t16 -74l-3 -159q-1 -94 47 -94q29 0 53.5 32.5t41 95t19.5 148.5l1 60q0 6 13 10t36 4q29 0 38 -1.5zM697 471q-3 0 -6 2t-2 3l33 240q1 6 27.5 11t50.5 5q23 0 20 -5l-119 -254
q-2 -2 -4 -2z" />
    <glyph glyph-name="g_ycircumflex.liga" unicode="g&#x177;" horiz-adv-x="939" 
d="M394 409q3 0 5.5 -1.5t2.5 -3.5l-1 -437q-1 -118 -57.5 -183t-156.5 -65q-65 0 -105.5 24.5t-40.5 63.5q0 19 13.5 29t32.5 10q23 0 34.5 -12t23.5 -38q13 -28 27 -42.5t44 -14.5q41 0 64.5 43.5t24.5 161.5v213q-27 -80 -76 -125t-104 -45q-41 0 -66.5 27.5t-25.5 84.5
q0 66 36 136.5t92.5 117t115.5 46.5q21 0 43.5 -6.5t40.5 -19.5q19 15 28 34q2 2 5 2zM243.5 92q28.5 32 45 78.5t16.5 85.5q0 44 -20.5 69t-55.5 25q-51 0 -80 -49.5t-29 -128.5q1 -59 18 -85.5t44 -26.5q33 0 61.5 32zM875 392.5q9 -1.5 10 -4.5q0 -41 -2 -76l-2 -382
q-2 -95 -56 -153t-148 -58q-41 0 -74.5 10t-51.5 27.5t-16 38.5q0 26 13 38.5t32 12.5q23 0 34.5 -11.5t23.5 -36.5q13 -28 28.5 -43t50.5 -15q33 0 51 36t18 130l1 253q-22 -83 -62.5 -127.5t-95.5 -44.5q-48 0 -72.5 33t-23.5 99l4 178q1 47 -24 47q-10 0 -22 -8.5
t-29 -26.5q-2 -2 -4 -2q-3 0 -5.5 3.5t-1.5 6.5q31 41 55.5 59.5t54.5 18.5q34 0 52 -24t16 -74l-3 -159q-1 -94 47 -94q29 0 53.5 32.5t41 95t19.5 148.5l1 60q0 6 13 10t36 4q29 0 38 -1.5zM797 477q1 -2 -5 -2.5t-7 1.5l-72 108l-74 -110q-2 -2 -4 -2q-3 0 -5.5 1.5
t-2.5 3.5l76 249q1 5 10 5q8 0 9 -5z" />
    <glyph glyph-name="g_ydieresis.liga" unicode="g&#xff;" horiz-adv-x="939" 
d="M394 409q3 0 5.5 -1.5t2.5 -3.5l-1 -437q-1 -118 -57.5 -183t-156.5 -65q-65 0 -105.5 24.5t-40.5 63.5q0 19 13.5 29t32.5 10q23 0 34.5 -12t23.5 -38q13 -28 27 -42.5t44 -14.5q41 0 64.5 43.5t24.5 161.5v213q-27 -80 -76 -125t-104 -45q-41 0 -66.5 27.5t-25.5 84.5
q0 66 36 136.5t92.5 117t115.5 46.5q21 0 43.5 -6.5t40.5 -19.5q19 15 28 34q2 2 5 2zM243.5 92q28.5 32 45 78.5t16.5 85.5q0 44 -20.5 69t-55.5 25q-51 0 -80 -49.5t-29 -128.5q1 -59 18 -85.5t44 -26.5q33 0 61.5 32zM875 392.5q9 -1.5 10 -4.5q0 -41 -2 -76l-2 -382
q-2 -95 -56 -153t-148 -58q-41 0 -74.5 10t-51.5 27.5t-16 38.5q0 26 13 38.5t32 12.5q23 0 34.5 -11.5t23.5 -36.5q13 -28 28.5 -43t50.5 -15q33 0 51 36t18 130l1 253q-22 -83 -62.5 -127.5t-95.5 -44.5q-48 0 -72.5 33t-23.5 99l4 178q1 47 -24 47q-10 0 -22 -8.5
t-29 -26.5q-2 -2 -4 -2q-3 0 -5.5 3.5t-1.5 6.5q31 41 55.5 59.5t54.5 18.5q34 0 52 -24t16 -74l-3 -159q-1 -94 47 -94q29 0 53.5 32.5t41 95t19.5 148.5l1 60q0 6 13 10t36 4q29 0 38 -1.5zM581 478.5q-15 14.5 -15 40.5q0 24 15 38t40 14t39 -14t14 -38q0 -26 -14 -40.5
t-39 -14.5t-40 14.5zM756 478.5q-14 14.5 -14 40.5q0 24 14.5 37.5t39.5 13.5q24 0 37.5 -13.5t13.5 -37.5q0 -26 -13.5 -40.5t-37.5 -14.5q-26 0 -40 14.5z" />
    <glyph glyph-name="g_ygrave.liga" unicode="g&#x1ef3;" horiz-adv-x="939" 
d="M394 409q3 0 5.5 -1.5t2.5 -3.5l-1 -437q-1 -118 -57.5 -183t-156.5 -65q-65 0 -105.5 24.5t-40.5 63.5q0 19 13.5 29t32.5 10q23 0 34.5 -12t23.5 -38q13 -28 27 -42.5t44 -14.5q41 0 64.5 43.5t24.5 161.5v213q-27 -80 -76 -125t-104 -45q-41 0 -66.5 27.5t-25.5 84.5
q0 66 36 136.5t92.5 117t115.5 46.5q21 0 43.5 -6.5t40.5 -19.5q19 15 28 34q2 2 5 2zM243.5 92q28.5 32 45 78.5t16.5 85.5q0 44 -20.5 69t-55.5 25q-51 0 -80 -49.5t-29 -128.5q1 -59 18 -85.5t44 -26.5q33 0 61.5 32zM875 392.5q9 -1.5 10 -4.5q0 -41 -2 -76l-2 -382
q-2 -95 -56 -153t-148 -58q-41 0 -74.5 10t-51.5 27.5t-16 38.5q0 26 13 38.5t32 12.5q23 0 34.5 -11.5t23.5 -36.5q13 -28 28.5 -43t50.5 -15q33 0 51 36t18 130l1 253q-22 -83 -62.5 -127.5t-95.5 -44.5q-48 0 -72.5 33t-23.5 99l4 178q1 47 -24 47q-10 0 -22 -8.5
t-29 -26.5q-2 -2 -4 -2q-3 0 -5.5 3.5t-1.5 6.5q31 41 55.5 59.5t54.5 18.5q34 0 52 -24t16 -74l-3 -159q-1 -94 47 -94q29 0 53.5 32.5t41 95t19.5 148.5l1 60q0 6 13 10t36 4q29 0 38 -1.5zM605 727q-3 7 21 7q22 0 48 -6t27 -12l19 -240q1 -2 -3.5 -3t-4.5 2z" />
    <glyph glyph-name="uni00670233.liga" unicode="g&#x233;" horiz-adv-x="939" 
d="M394 409q3 0 5.5 -1.5t2.5 -3.5l-1 -437q-1 -118 -57.5 -183t-156.5 -65q-65 0 -105.5 24.5t-40.5 63.5q0 19 13.5 29t32.5 10q23 0 34.5 -12t23.5 -38q13 -28 27 -42.5t44 -14.5q41 0 64.5 43.5t24.5 161.5v213q-27 -80 -76 -125t-104 -45q-41 0 -66.5 27.5t-25.5 84.5
q0 66 36 136.5t92.5 117t115.5 46.5q21 0 43.5 -6.5t40.5 -19.5q19 15 28 34q2 2 5 2zM243.5 92q28.5 32 45 78.5t16.5 85.5q0 44 -20.5 69t-55.5 25q-51 0 -80 -49.5t-29 -128.5q1 -59 18 -85.5t44 -26.5q33 0 61.5 32zM875 392.5q9 -1.5 10 -4.5q0 -41 -2 -76l-2 -382
q-2 -95 -56 -153t-148 -58q-41 0 -74.5 10t-51.5 27.5t-16 38.5q0 26 13 38.5t32 12.5q23 0 34.5 -11.5t23.5 -36.5q13 -28 28.5 -43t50.5 -15q33 0 51 36t18 130l1 253q-22 -83 -62.5 -127.5t-95.5 -44.5q-48 0 -72.5 33t-23.5 99l4 178q1 47 -24 47q-10 0 -22 -8.5
t-29 -26.5q-2 -2 -4 -2q-3 0 -5.5 3.5t-1.5 6.5q31 41 55.5 59.5t54.5 18.5q34 0 52 -24t16 -74l-3 -159q-1 -94 47 -94q29 0 53.5 32.5t41 95t19.5 148.5l1 60q0 6 13 10t36 4q29 0 38 -1.5zM584 479q-3 6 -3 14t3 14t7 6h228q5 0 8 -6t3 -14t-3 -14t-8 -6h-228q-4 0 -7 6z
" />
    <glyph glyph-name="uni00671EF9.liga" unicode="g&#x1ef9;" horiz-adv-x="939" 
d="M394 409q3 0 5.5 -1.5t2.5 -3.5l-1 -437q-1 -118 -57.5 -183t-156.5 -65q-65 0 -105.5 24.5t-40.5 63.5q0 19 13.5 29t32.5 10q23 0 34.5 -12t23.5 -38q13 -28 27 -42.5t44 -14.5q41 0 64.5 43.5t24.5 161.5v213q-27 -80 -76 -125t-104 -45q-41 0 -66.5 27.5t-25.5 84.5
q0 66 36 136.5t92.5 117t115.5 46.5q21 0 43.5 -6.5t40.5 -19.5q19 15 28 34q2 2 5 2zM243.5 92q28.5 32 45 78.5t16.5 85.5q0 44 -20.5 69t-55.5 25q-51 0 -80 -49.5t-29 -128.5q1 -59 18 -85.5t44 -26.5q33 0 61.5 32zM875 392.5q9 -1.5 10 -4.5q0 -41 -2 -76l-2 -382
q-2 -95 -56 -153t-148 -58q-41 0 -74.5 10t-51.5 27.5t-16 38.5q0 26 13 38.5t32 12.5q23 0 34.5 -11.5t23.5 -36.5q13 -28 28.5 -43t50.5 -15q33 0 51 36t18 130l1 253q-22 -83 -62.5 -127.5t-95.5 -44.5q-48 0 -72.5 33t-23.5 99l4 178q1 47 -24 47q-10 0 -22 -8.5
t-29 -26.5q-2 -2 -4 -2q-3 0 -5.5 3.5t-1.5 6.5q31 41 55.5 59.5t54.5 18.5q34 0 52 -24t16 -74l-3 -159q-1 -94 47 -94q29 0 53.5 32.5t41 95t19.5 148.5l1 60q0 6 13 10t36 4q29 0 38 -1.5zM577 470q-2 0 -5 2.5t-2 4.5q17 35 36 58t49 23q10 0 27 -4.5t22 -5.5
q51 -15 76 -15q21 0 33.5 6t25.5 21q0 1 0.5 1h0.5q2 0 5 -3t2 -5q-21 -48 -38 -64t-43 -16q-19 0 -58 11q-18 5 -37 9t-35 4q-24 0 -33 -5t-25 -22h-1z" />
    <glyph glyph-name="longs_b.liga" unicode="&#x17f;b" horiz-adv-x="800" 
d="M739.5 358q31.5 -41 33.5 -107q0 -81 -40 -141t-99.5 -91.5t-114.5 -31.5q-65 0 -103 27t-37 73l5 530q-18 42 -45 65t-58 23q-54 0 -79.5 -56t-25.5 -175l1 -35l14 -460q1 -16 1 -44q0 -79 -13 -124.5t-41 -65.5t-76 -20t-78.5 16.5t-30.5 40.5q0 19 12 29.5t30 10.5
q27 0 38.5 -12t21.5 -35q6 -16 11.5 -23t16.5 -7t15 14t4 55q0 55 -4 139l-15 465q-5 155 46.5 231.5t172.5 76.5q36 0 68.5 -6t52.5 -17q28 17 37 42q0 3 5 3q3 0 5.5 -1.5t2.5 -2.5v-510q23 74 72 119.5t112 45.5q51 0 82.5 -41zM614.5 39.5q27.5 24.5 43 71t13.5 109.5
q2 48 -15 80t-49 32q-40 0 -70.5 -29.5t-47 -83.5t-16.5 -123q0 -35 23.5 -58t57.5 -23q33 0 60.5 24.5z" />
    <glyph glyph-name="longs_h.liga" unicode="&#x17f;h" horiz-adv-x="805" 
d="M804 78q4 0 6.5 -3t1.5 -6q-31 -41 -56 -59.5t-55 -18.5q-37 0 -52.5 24.5t-14.5 73.5l1 159q0 94 -48 94q-31 0 -57 -36.5t-42 -107t-17 -168.5v-18q0 -20 -57 -20q-35 0 -37 8q-1 5 -0.5 12t0.5 15q2 28 2 47l5 543q-18 42 -45 65t-58 23q-54 0 -79.5 -56t-25.5 -175
l1 -35l14 -460q1 -16 1 -44q0 -79 -13 -124.5t-41 -65.5t-76 -20t-78.5 16.5t-30.5 40.5q0 19 12 29.5t30 10.5q27 0 38.5 -12t21.5 -35q6 -16 11.5 -23t16.5 -7t15 14t4 55q0 55 -4 139l-15 465q-5 155 46.5 231.5t172.5 76.5q36 0 68.5 -6t52.5 -17q28 17 37 42q0 3 5 3
q3 0 5.5 -1.5t2.5 -2.5l-1 -527q20 87 61.5 134.5t98.5 47.5q46 0 70.5 -33t24.5 -99l-1 -178q-1 -47 24 -47q10 0 20.5 8t30.5 27q1 1 3 1z" />
    <glyph glyph-name="longs_i.liga" unicode="&#x17f;i" horiz-adv-x="516" 
d="M-19 -258.5q-28 16.5 -28 40.5q0 19 11 29.5t28 10.5q25 0 35.5 -12t18.5 -35q5 -15 10 -22.5t15 -7.5t13.5 14.5t3.5 56.5q0 44 -3 137l-14 465q-4 152 47.5 230t151.5 78q53 0 87 -19.5t34 -49.5q0 -20 -11.5 -31t-30.5 -11q-24 0 -38 13t-28 37q-12 20 -21.5 30
t-25.5 10q-38 0 -59 -57t-21 -166q0 -28 1 -43l13 -460l1 -37q0 -82 -12 -129t-37.5 -67.5t-68.5 -20.5q-44 0 -72 16.5zM317.5 15.5q-16.5 24.5 -14.5 73.5l4 208q1 49 -26 49q-22 0 -55 -40q-1 -1 -3 -1q-3 0 -6.5 3.5t-1.5 6.5q30 42 58.5 61t58.5 19q68 0 68 -86
l-4 -220q-2 -47 23 -47q10 0 20.5 8t29.5 27q2 2 4 2q4 0 6.5 -3.5t1.5 -6.5q-30 -41 -55 -59.5t-56 -18.5q-36 0 -52.5 24.5z" />
    <glyph glyph-name="longs_j.liga" unicode="&#x17f;j" horiz-adv-x="523" 
d="M-19 -258.5q-28 16.5 -28 40.5q0 19 11 29.5t28 10.5q25 0 35.5 -12t18.5 -35q5 -15 10 -22.5t15 -7.5t13.5 14.5t3.5 56.5q0 44 -3 137l-14 465q-3 152 52 230t159 78q53 0 86.5 -19.5t33.5 -49.5q0 -20 -11.5 -31t-30.5 -11q-25 0 -38.5 12.5t-27.5 37.5
q-12 20 -21.5 30t-24.5 10q-46 0 -70 -68t-21 -198l13 -460l1 -37q0 -82 -12 -129t-37.5 -67.5t-68.5 -20.5q-44 0 -72 16.5zM206 -258q-30 17 -30 42q0 18 12 28t30 10q27 0 38.5 -12t21.5 -35q6 -16 11.5 -23t16.5 -7q9 0 12.5 9.5t5 32.5t1.5 73v93v344q0 49 -26 49
q-22 0 -55 -40q-1 -1 -3 -1q-3 0 -6.5 3.5t-0.5 6.5q31 43 58.5 61.5t57.5 18.5q35 0 51 -21.5t17 -64.5v-330q1 -96 -11.5 -150.5t-41.5 -79t-80 -24.5q-49 0 -79 17z" />
    <glyph glyph-name="longs_k.liga" unicode="&#x17f;k" horiz-adv-x="768" 
d="M791 76q4 0 7 -3.5t1 -5.5q-58 -76 -101 -76q-29 0 -53.5 14.5t-58.5 52.5l-82 96q-12 13 -18.5 18t-14.5 5v-165q0 -20 -57 -20q-35 0 -37 8q-1 5 -0.5 12t0.5 15q2 28 2 47l5 543q-18 42 -45 65t-58 23q-54 0 -79.5 -56t-25.5 -175l1 -35l14 -460q1 -16 1 -44
q0 -79 -13 -124.5t-41 -65.5t-76 -20t-78.5 16.5t-30.5 40.5q0 19 12 29.5t30 10.5q27 0 38.5 -12t21.5 -35q6 -16 11.5 -23t16.5 -7t15 14t4 55q0 55 -4 139l-15 465q-5 155 46.5 231.5t172.5 76.5q36 0 68.5 -6t52.5 -17q28 17 37 42q0 3 5 3q3 0 5.5 -1.5t2.5 -2.5
l-2 -416q34 33 76 52t87 19q47 0 65.5 -18.5t18.5 -42.5q0 -37 -39.5 -72t-112.5 -62l89 -102q28 -32 45 -42.5t35 -10.5q21 0 53 26q1 1 3 1zM502 310.5q-27 -45.5 -31 -113.5q72 16 106.5 41t34.5 62q0 26 -10 41t-30 15q-43 0 -70 -45.5z" />
    <glyph glyph-name="longs_l.liga" unicode="&#x17f;l" horiz-adv-x="568" 
d="M549 79q4 0 6.5 -3.5t1.5 -6.5q-31 -41 -55.5 -59.5t-55.5 -18.5q-37 0 -52.5 24.5t-14.5 73.5l5 528q-18 42 -45 65t-58 23q-54 0 -79.5 -56t-25.5 -175l1 -35l14 -460q1 -16 1 -44q0 -79 -13 -124.5t-41 -65.5t-76 -20t-78.5 16.5t-30.5 40.5q0 19 12 29.5t30 10.5
q27 0 38.5 -12t21.5 -35q6 -16 11.5 -23t16.5 -7t15 14t4 55q0 55 -4 139l-15 465q-5 155 46.5 231.5t172.5 76.5q36 0 68.5 -6t52.5 -17q28 17 37 42q0 3 5 3q3 0 5.5 -1.5t2.5 -2.5l-2 -655q-1 -47 24 -47q10 0 20.5 8t30.5 27q2 2 3 2z" />
    <glyph glyph-name="longs_thorn.liga" unicode="&#x17f;&#xfe;" horiz-adv-x="766" 
d="M471 1v-179q0 -33 8.5 -45t32.5 -12q5 0 23 2q3 0 4.5 -5t-3.5 -6l-201 -31q-4 -1 -5.5 5t2.5 7q21 5 30 11.5t12 21t3 45.5l4 482q-31 -20 -54 -37q-1 -1 -3 -1q-4 0 -7 4t1 7q37 31 64 49l2 297q-18 42 -45 65.5t-58 23.5q-54 0 -79.5 -56t-25.5 -175l1 -35l14 -460
q1 -16 1 -44q0 -79 -13 -124.5t-41 -65.5t-76 -20t-78.5 16.5t-30.5 40.5q0 19 12 29.5t30 10.5q27 0 38.5 -12t21.5 -35q6 -16 11.5 -23t16.5 -7t15 14t4 55q0 55 -4 139l-15 465q-5 155 46.5 231.5t172.5 76.5q36 0 68.5 -6t52.5 -17q28 17 37 42q0 3 5 3q3 0 5.5 -1.5
t2.5 -2.5l-1 -377q61 26 120 26q68 0 104.5 -39t36.5 -112q0 -66 -28.5 -121.5t-80 -88.5t-115.5 -33q-10 0 -38 2zM472 337l-1 -293q42 -15 73 -15q54 0 75.5 38.5t21.5 112.5q0 80 -25.5 122t-90.5 42q-28 0 -53 -7z" />
    <glyph glyph-name="longs_longs.liga" unicode="&#x17f;&#x17f;" horiz-adv-x="568" 
d="M633.5 710.5q24.5 -15.5 24.5 -39.5q0 -19 -12.5 -30.5t-30.5 -11.5q-26 0 -37.5 13t-18.5 35q-6 15 -11 22t-15 7q-29 0 -41.5 -44.5t-12.5 -135.5q0 -23 2 -87l14 -460l1 -43q0 -79 -12.5 -125t-40 -66t-74.5 -20q-43 0 -73 16.5t-30 44.5q0 17 12.5 26.5t30.5 9.5
q25 0 37.5 -13t21.5 -35q7 -15 12.5 -22t15.5 -7q8 0 11 10.5t3 38.5q0 31 -5 159l-16 465q-1 17 -1 49q0 51 4 84q-29 52 -58 75t-61 23q-53 0 -76 -51.5t-20 -158.5l14 -460q1 -16 1 -44q0 -79 -13 -124.5t-41 -65.5t-76 -20q-49 0 -79 17t-30 42q0 18 12 28t30 10
q27 0 38.5 -12t21.5 -35q6 -16 11.5 -23t16.5 -7t15 14t4 55q0 55 -4 139l-15 465q-3 73 21 130t72.5 89.5t117.5 32.5q58 0 123 -20q20 41 57 58.5t95 17.5q40 0 64.5 -15.5z" />
    <glyph glyph-name="longs_longs_b.liga" unicode="&#x17f;&#x17f;b" horiz-adv-x="1089" 
d="M1027.5 358q31.5 -41 33.5 -107q0 -81 -40 -141t-99.5 -91.5t-114.5 -31.5q-65 0 -103 27t-37 73l5 530q-18 42 -45 65t-58 23q-54 0 -79.5 -56t-25.5 -175l1 -35l14 -460q1 -16 1 -44q0 -79 -13 -124.5t-41 -65.5t-76 -20t-78.5 16.5t-30.5 40.5q0 19 12 29.5t30 10.5
q27 0 38.5 -12t21.5 -35q6 -16 11.5 -23t16.5 -7t15 14t4 55q0 55 -4 139l-15 465q-3 86 12 149q-27 43 -53.5 62.5t-56.5 19.5q-53 0 -76 -51.5t-20 -158.5l14 -460q1 -16 1 -44q0 -79 -13 -124.5t-41 -65.5t-76 -20q-49 0 -79 17t-30 42q0 18 12 28t30 10q27 0 38.5 -12
t21.5 -35q6 -16 11.5 -23t16.5 -7t15 14t4 55q0 55 -4 139l-15 465q-3 73 21 130t72.5 89.5t117.5 32.5q57 0 124 -20q53 76 172 76q36 0 68.5 -6t52.5 -17q28 17 37 42q0 3 5 3q3 0 5.5 -1.5t2.5 -2.5v-510q23 74 72 119.5t112 45.5q51 0 82.5 -41zM902.5 39.5
q27.5 24.5 43 71t13.5 109.5q2 48 -15 80t-49 32q-40 0 -70.5 -29.5t-47 -83.5t-16.5 -123q0 -35 23.5 -58t57.5 -23q33 0 60.5 24.5z" />
    <glyph glyph-name="longs_longs_h.liga" unicode="&#x17f;&#x17f;h" horiz-adv-x="1102" 
d="M1101 78q4 0 6.5 -3t1.5 -6q-31 -41 -56 -59.5t-55 -18.5q-37 0 -52.5 24.5t-14.5 73.5l1 159q0 94 -48 94q-31 0 -57 -36.5t-42 -107t-17 -168.5v-18q0 -20 -57 -20q-35 0 -37 8q-1 5 -0.5 12t0.5 15q2 28 2 47l5 543q-18 42 -45 65t-58 23q-54 0 -79.5 -56t-25.5 -175
l1 -35l14 -460q1 -16 1 -44q0 -79 -13 -124.5t-41 -65.5t-76 -20t-78.5 16.5t-30.5 40.5q0 19 12 29.5t30 10.5q27 0 38.5 -12t21.5 -35q6 -16 11.5 -23t16.5 -7t15 14t4 55q0 55 -4 139l-15 465l-1 31q0 55 10 107q-29 49 -57 71t-59 22q-53 0 -76 -51.5t-20 -158.5
l14 -460q1 -16 1 -44q0 -79 -13 -124.5t-41 -65.5t-76 -20q-49 0 -79 17t-30 42q0 18 12 28t30 10q27 0 38.5 -12t21.5 -35q6 -16 11.5 -23t16.5 -7t15 14t4 55q0 55 -4 139l-15 465q-3 73 21 130t72.5 89.5t117.5 32.5q29 0 64.5 -6t66.5 -17q53 79 174 79q36 0 68.5 -6
t52.5 -17q28 17 37 42q0 3 5 3q3 0 5.5 -1.5t2.5 -2.5l-1 -527q20 87 61.5 134.5t98.5 47.5q46 0 70.5 -33t24.5 -99l-1 -178q-1 -47 24 -47q10 0 20.5 8t30.5 27q1 1 3 1z" />
    <glyph glyph-name="longs_longs_i.liga" unicode="&#x17f;&#x17f;i" horiz-adv-x="822" 
d="M483 648q-21 -57 -21 -166q0 -28 1 -43l13 -460l1 -37q0 -82 -12 -129t-37.5 -67.5t-68.5 -20.5q-44 0 -72 16.5t-28 40.5q0 19 11 29.5t28 10.5q25 0 35.5 -12t18.5 -35q5 -15 10 -22.5t15 -7.5t13.5 14.5t3.5 56.5q0 44 -3 137l-14 465q-3 78 11 140q-29 49 -56.5 70
t-58.5 21q-53 0 -76 -51.5t-20 -158.5l14 -460q1 -16 1 -44q0 -79 -13 -124.5t-41 -65.5t-76 -20q-49 0 -79 17t-30 42q0 18 12 28t30 10q27 0 38.5 -12t21.5 -35q6 -16 11.5 -23t16.5 -7t15 14t4 55q0 55 -4 139l-15 465q-3 73 21 130t72.5 89.5t117.5 32.5q29 0 64.5 -6.5
t65.5 -16.5q51 79 152 79q53 0 87 -19.5t34 -49.5q0 -20 -11.5 -31t-30.5 -11q-24 0 -38 13t-28 37q-12 20 -21.5 30t-25.5 10q-38 0 -59 -57zM779 79q4 0 6.5 -3.5t1.5 -6.5q-30 -41 -55 -59.5t-56 -18.5q-36 0 -52.5 24.5t-14.5 73.5l4 208q1 49 -26 49q-22 0 -55 -40
q-1 -1 -3 -1q-3 0 -6.5 3.5t-1.5 6.5q30 42 58.5 61t58.5 19q68 0 68 -86l-4 -220q-2 -47 23 -47q10 0 20.5 8t29.5 27q2 2 4 2z" />
    <glyph glyph-name="longs_longs_j.liga" unicode="&#x17f;&#x17f;j" horiz-adv-x="829" 
d="M476 -21l1 -37q0 -82 -12 -129t-37.5 -67.5t-68.5 -20.5q-44 0 -72 16.5t-28 40.5q0 19 11 29.5t28 10.5q25 0 35.5 -12t18.5 -35q5 -15 10 -22.5t15 -7.5t13.5 14.5t3.5 56.5q0 44 -3 137l-14 465q-2 80 13 137q-29 50 -57.5 72t-59.5 22q-53 0 -76 -51.5t-20 -158.5
l14 -460q1 -16 1 -44q0 -79 -13 -124.5t-41 -65.5t-76 -20q-49 0 -79 17t-30 42q0 18 12 28t30 10q27 0 38.5 -12t21.5 -35q6 -16 11.5 -23t16.5 -7t15 14t4 55q0 55 -4 139l-15 465q-3 73 21 130t72.5 89.5t117.5 32.5q30 0 67 -6.5t67 -17.5q54 80 160 80q53 0 86.5 -19.5
t33.5 -49.5q0 -20 -11.5 -31t-30.5 -11q-25 0 -38.5 12.5t-27.5 37.5q-12 20 -21.5 30t-24.5 10q-46 0 -70 -68t-21 -198zM712.5 -171.5q-12.5 -54.5 -41.5 -79t-80 -24.5q-49 0 -79 17t-30 42q0 18 12 28t30 10q27 0 38.5 -12t21.5 -35q6 -16 11.5 -23t16.5 -7
q9 0 12.5 9.5t5 32.5t1.5 73v93v344q0 49 -26 49q-22 0 -55 -40q-1 -1 -3 -1q-3 0 -6.5 3.5t-0.5 6.5q31 43 58.5 61.5t57.5 18.5q35 0 51 -21.5t17 -64.5v-330q1 -96 -11.5 -150.5z" />
    <glyph glyph-name="longs_longs_k.liga" unicode="&#x17f;&#x17f;k" horiz-adv-x="1060" 
d="M1082 76q4 0 7 -3.5t1 -5.5q-58 -76 -101 -76q-29 0 -53.5 14.5t-58.5 52.5l-82 96q-12 13 -18.5 18t-14.5 5v-165q0 -20 -57 -20q-35 0 -37 8q-1 5 -0.5 12t0.5 15q2 28 2 47l5 543q-18 42 -45 65t-58 23q-54 0 -79.5 -56t-25.5 -175l1 -35l14 -460q1 -16 1 -44
q0 -79 -13 -124.5t-41 -65.5t-76 -20t-78.5 16.5t-30.5 40.5q0 19 12 29.5t30 10.5q27 0 38.5 -12t21.5 -35q6 -16 11.5 -23t16.5 -7t15 14t4 55q0 55 -4 139l-15 465l-1 32q0 65 12 114q-28 45 -55 65t-57 20q-53 0 -76 -51.5t-20 -158.5l14 -460q1 -16 1 -44
q0 -79 -13 -124.5t-41 -65.5t-76 -20q-49 0 -79 17t-30 42q0 18 12 28t30 10q27 0 38.5 -12t21.5 -35q6 -16 11.5 -23t16.5 -7t15 14t4 55q0 55 -4 139l-15 465q-3 73 21 130t72.5 89.5t117.5 32.5q29 0 62.5 -5.5t63.5 -15.5q53 77 173 77q36 0 68.5 -6t52.5 -17
q28 17 37 42q0 3 5 3q3 0 5.5 -1.5t2.5 -2.5l-2 -416q34 33 76 52t87 19q47 0 65.5 -18.5t18.5 -42.5q0 -37 -39.5 -72t-112.5 -62l89 -102q28 -32 45 -42.5t35 -10.5q21 0 53 26q1 1 3 1zM793 310.5q-27 -45.5 -31 -113.5q72 16 106.5 41t34.5 62q0 26 -10 41t-30 15
q-43 0 -70 -45.5z" />
    <glyph glyph-name="longs_longs_l.liga" unicode="&#x17f;&#x17f;l" horiz-adv-x="871" 
d="M852 79q4 0 6.5 -3.5t1.5 -6.5q-31 -41 -55.5 -59.5t-55.5 -18.5q-37 0 -52.5 24.5t-14.5 73.5l5 528q-18 42 -45 65t-58 23q-54 0 -79.5 -56t-25.5 -175l1 -35l14 -460q1 -16 1 -44q0 -79 -13 -124.5t-41 -65.5t-76 -20t-78.5 16.5t-30.5 40.5q0 19 12 29.5t30 10.5
q27 0 38.5 -12t21.5 -35q6 -16 11.5 -23t16.5 -7t15 14t4 55q0 55 -4 139l-15 465q-3 72 8 131q-30 53 -59.5 76.5t-61.5 23.5q-53 0 -76 -51.5t-20 -158.5l14 -460q1 -16 1 -44q0 -79 -13 -124.5t-41 -65.5t-76 -20q-49 0 -79 17t-30 42q0 18 12 28t30 10q27 0 38.5 -12
t21.5 -35q6 -16 11.5 -23t16.5 -7t15 14t4 55q0 55 -4 139l-15 465q-3 73 21 130t72.5 89.5t117.5 32.5q30 0 67.5 -6.5t68.5 -17.5q53 80 175 80q36 0 68.5 -6t52.5 -17q28 17 37 42q0 3 5 3q3 0 5.5 -1.5t2.5 -2.5l-2 -655q-1 -47 24 -47q10 0 20.5 8t30.5 27q2 2 3 2z
" />
    <glyph glyph-name="longs_longs_thorn.liga" unicode="&#x17f;&#x17f;&#xfe;" horiz-adv-x="1068" 
d="M774 1v-179q0 -33 8.5 -45t32.5 -12q5 0 23 2q3 0 4.5 -5t-3.5 -6l-201 -31q-4 -1 -5.5 5t2.5 7q21 5 30 11.5t12 21t3 45.5l4 482q-31 -20 -54 -37q-1 -1 -3 -1q-4 0 -7 4t1 7q37 31 64 49l2 297q-18 42 -45 65.5t-58 23.5q-54 0 -79.5 -56t-25.5 -175l1 -35l14 -460
q1 -16 1 -44q0 -79 -13 -124.5t-41 -65.5t-76 -20t-78.5 16.5t-30.5 40.5q0 19 12 29.5t30 10.5q27 0 38.5 -12t21.5 -35q6 -16 11.5 -23t16.5 -7t15 14t4 55q0 55 -4 139l-15 465q-3 72 8 131q-30 53 -59.5 76.5t-61.5 23.5q-53 0 -76 -51.5t-20 -158.5l14 -460
q1 -16 1 -44q0 -79 -13 -124.5t-41 -65.5t-76 -20q-49 0 -79 17t-30 42q0 18 12 28t30 10q27 0 38.5 -12t21.5 -35q6 -16 11.5 -23t16.5 -7t15 14t4 55q0 55 -4 139l-15 465q-3 73 21 130t72.5 89.5t117.5 32.5q30 0 67.5 -6.5t68.5 -17.5q53 80 175 80q36 0 68.5 -6
t52.5 -17q28 17 37 42q0 3 5 3q3 0 5.5 -1.5t2.5 -2.5l-1 -377q61 26 120 26q68 0 104.5 -39t36.5 -112q0 -66 -28.5 -121.5t-80 -88.5t-115.5 -33q-10 0 -38 2zM775 337l-1 -293q42 -15 73 -15q54 0 75.5 38.5t21.5 112.5q0 80 -25.5 122t-90.5 42q-28 0 -53 -7z" />
    <glyph glyph-name=".notdef" horiz-adv-x="501" 
d="M94 -275v1000h317v-1000h-317zM168 626h65v-38h-66v-32h166v32h-66v38h66v32h-165v-32zM167 426h166v34h-66v69h-100v-103zM200 460v35h33v-35h-33zM167 365h66v-36h-66v-34h100v70h66v33h-166v-33zM301 273h-134v-34h166v99h-32v-65zM233 160h34v24h34v-48h-101v80h-33
v-113h166v113h-100v-56zM167 -70h166v113h-166v-113zM200 -37v48h101v-48h-101zM167 -126h70l-70 -47v-33h166v33h-101l69 47h32v34h-166v-34z" />
    <glyph glyph-name=".null" 
 />
    <glyph glyph-name="nonmarkingreturn" unicode="&#xd;" horiz-adv-x="234" 
 />
    <glyph glyph-name="NULL" 
 />
    <glyph glyph-name="NULL" 
 />
    <glyph glyph-name="space" unicode=" " horiz-adv-x="234" 
 />
    <glyph glyph-name="exclam" unicode="!" horiz-adv-x="263" 
d="M82 625.5q23 3.5 49 3.5t49.5 -3.5t21.5 -10.5q-22 -76 -32.5 -166t-21.5 -228q0 -10 -2 -32q0 -2 -5.5 -3.5t-11.5 -1.5t-11.5 1.5t-5.5 3.5q-9 148 -19 245.5t-32 180.5q-2 7 21 10.5zM80.5 5.5q-16.5 16.5 -16.5 44.5q0 26 16.5 42t44.5 16t43.5 -15.5t15.5 -42.5
q0 -29 -15.5 -45t-43.5 -16t-44.5 16.5z" />
    <glyph glyph-name="quotedbl" unicode="&#x22;" horiz-adv-x="290" 
d="M28 606q-1 12 32 23.5t59 11.5q9 0 13.5 -2.5t3.5 -6.5l-63 -266q-2 -2 -9 -3t-7 2zM168 606q-1 12 32 23.5t59 11.5q9 0 13.5 -2.5t3.5 -6.5l-63 -266q-2 -2 -9 -3t-7 2z" />
    <glyph glyph-name="numbersign" unicode="#" horiz-adv-x="526" 
d="M466.5 312.5q1.5 -7.5 1.5 -15.5q0 -9 -1.5 -16.5t-3.5 -7.5h-63l-27 -151h55q2 0 3.5 -7.5t1.5 -16.5t-1.5 -16.5t-3.5 -7.5h-63l-28 -157q0 -4 -26 0t-24 8l26 149h-135l-28 -157q0 -4 -26.5 0t-24.5 8l26 149h-62q-2 0 -3.5 8t-1.5 18q0 8 1.5 15t2.5 7h72l27 151h-63
q-2 0 -3.5 8t-1.5 17q0 8 1.5 15t2.5 7h72l29 162q0 5 25.5 -1t24.5 -10l-27 -151h135l29 162q0 5 25.5 -1t24.5 -10l-27 -151h55q2 0 3.5 -7.5zM322 122l26 151h-135l-27 -151h136z" />
    <glyph glyph-name="dollar" unicode="$" horiz-adv-x="422" 
d="M347 35q-44 -40 -113 -46v-91q0 -7 -14 -7q-15 0 -15 7v90q-44 1 -86 12t-58 25q-8 5 -8 21l-5 113q0 4 5 5t7 -3q35 -60 68.5 -99.5t76.5 -48.5v190l-30 16q-59 32 -90 60.5t-31 73.5q0 53 43 86.5t108 39.5v82q0 4 4.5 6t10.5 2t10 -2t4 -6v-81q31 -1 64 -7.5t53 -15.5
q9 -3 12 -7.5t3 -12.5v-95q0 -3 -5 -4.5t-7 1.5q-16 34 -45 70t-75 46v-168l24 -12q45 -24 70.5 -40.5t44 -42.5t18.5 -61q0 -56 -44 -96zM155 341.5q18 -21.5 50 -39.5v155q-35 -1 -51.5 -19t-16.5 -46q0 -29 18 -50.5zM282.5 32q19.5 19 19.5 53q0 31 -18 55t-50 45v-174
q29 2 48.5 21z" />
    <glyph glyph-name="percent" unicode="%" horiz-adv-x="574" 
d="M55.5 340.5q-37.5 37.5 -37.5 92.5q0 53 37.5 90t94.5 37t93.5 -37.5t36.5 -92.5q0 -54 -37 -90.5t-93 -36.5q-57 0 -94.5 37.5zM93 -0.5q-15 10.5 -13 13.5l370 544q3 3 18 -8.5t13 -13.5l-371 -543q-2 -3 -17 7.5zM190 345.5q8 26.5 8 77.5q0 60 -14 90.5t-40 30.5
t-35.5 -28.5t-9.5 -79.5q0 -117 58 -117q25 0 33 26.5zM332.5 32.5q-37.5 37.5 -37.5 92.5q0 53 37.5 90.5t94.5 37.5t93.5 -38t36.5 -92t-36.5 -91t-93.5 -37t-94.5 37.5zM467 38q8 26 8 78q0 59 -14 89.5t-40 30.5q-25 0 -34.5 -28.5t-9.5 -78.5q0 -55 12.5 -86t44.5 -31
q25 0 33 26z" />
    <glyph glyph-name="ampersand" unicode="&#x26;" horiz-adv-x="777" 
d="M777 360q0 -28 -17.5 -57.5t-45.5 -48.5t-59 -19q-25 0 -68 18q-21 -127 -94 -196t-177 -69q-73 0 -129.5 32.5t-87.5 87t-31 117.5q0 26 6 53q11 54 44.5 96.5t82 66.5t103.5 24q49 0 84 -17q49 57 49 96q0 19 -7 28.5t-22 18.5t-22 18t-7 28q0 23 13.5 37t36.5 14
q29 0 44 -23t15 -60q0 -62 -37.5 -120t-92.5 -106.5t-150 -122.5l-42 -33q11 -82 63.5 -129.5t123.5 -47.5q51 0 96 26t76 75.5t41 115.5q-4 2 -26 14q-43 22 -66 31.5t-45 9.5q-17 0 -25 -5.5t-8 -15.5q0 -12 13 -27q13 -17 13 -28q0 -12 -8.5 -21.5t-25.5 -9.5
q-15 0 -25.5 9.5t-10.5 29.5q0 29 20.5 58t52.5 47.5t65 18.5q26 0 53 -10.5t69 -31.5q34 -17 56 -26t40 -9q13 0 21.5 5t8.5 14q0 7 -13 20q-10 10 -14.5 16.5t-4.5 17.5q0 13 9.5 21t26.5 8q35 0 35 -39zM164 248q18 15 19 16q88 69 131 109q-19 62 -64 62q-33 0 -54 -35
t-29 -90q-5 -33 -3 -62z" />
    <glyph glyph-name="quotesingle" unicode="'" horiz-adv-x="150" 
d="M28 606q-1 12 32 23.5t59 11.5q9 0 13.5 -2.5t3.5 -6.5l-63 -266q-2 -2 -9 -3t-7 2z" />
    <glyph glyph-name="parenleft" unicode="(" horiz-adv-x="309" 
d="M104.5 559q60.5 113 169.5 166q2 1 4 -1.5t0 -4.5q-63 -71 -92.5 -174t-29.5 -241t29.5 -241t92.5 -174q2 -1 0 -4t-4 -2q-109 54 -169.5 166.5t-60.5 254.5t60.5 255z" />
    <glyph glyph-name="parenright" unicode=")" horiz-adv-x="309" 
d="M204.5 49q-60.5 -113 -169.5 -166q-2 -1 -4 1.5t0 4.5q63 71 92.5 174t29.5 241t-29.5 241t-92.5 174q-2 1 0 4t4 2q109 -54 169.5 -166.5t60.5 -254.5t-60.5 -255z" />
    <glyph glyph-name="asterisk" unicode="*" horiz-adv-x="448" 
d="M200 657q-2 11 37.5 21.5t66.5 10.5q12 0 11 -4l-79 -156q-1 -3 -5.5 -3t-4.5 3zM73 526q-9 2 -9 30t6.5 60.5t11.5 27.5l125 -124q2 -2 0.5 -6t-3.5 -3zM250 504q-2 0 -3.5 4t1.5 5l113 65q9 4 26.5 -20.5t30.5 -53t7 -27.5zM152 363q-13 0 -39.5 10.5t-47 23
t-15.5 14.5l156 80l2 1q3 0 5.5 -2.5t1.5 -4.5l-55 -119q-1 -3 -8 -3zM232 481v1q0 2 4 4.5t5 1.5l96 -89q7 -6 -11 -30.5t-41 -45t-24 -14.5z" />
    <glyph glyph-name="plus" unicode="+" horiz-adv-x="398" 
d="M367.5 206.5q1.5 -7.5 1.5 -16.5t-1.5 -17t-3.5 -8h-141v-140q0 -2 -9 -3.5t-19 -1.5q-21 0 -21 3v142h-140q-2 0 -3.5 8t-1.5 18q0 9 1 16t3 7h141v140q0 2 8 3.5t17 1.5t16.5 -1.5t7.5 -3.5v-140h141q2 0 3.5 -7.5z" />
    <glyph glyph-name="comma" unicode="," horiz-adv-x="222" 
d="M155.5 79q19.5 -27 19.5 -77q0 -45 -20 -83.5t-60 -77.5q-1 -1 -3 -1q-3 0 -5 3t0 5q49 50 49 118q0 28 -10 41q-9 -15 -37 -15q-24 0 -38.5 15.5t-14.5 40.5q0 27 17.5 42.5t47.5 15.5q35 0 54.5 -27z" />
    <glyph glyph-name="hyphen" unicode="-" horiz-adv-x="323" 
d="M28.5 166q-1.5 10 -1.5 21q0 23 3 24l261 46q2 1 3.5 -7.5t1.5 -18.5t-1.5 -18t-3.5 -9l-259 -47q-2 -1 -3.5 9z" />
    <glyph glyph-name="period" unicode="." horiz-adv-x="207" 
d="M60.5 5.5q-16.5 16.5 -16.5 44.5q0 26 16.5 42t44.5 16t43.5 -15.5t15.5 -42.5q0 -29 -15.5 -45t-43.5 -16t-44.5 16.5z" />
    <glyph glyph-name="slash" unicode="/" horiz-adv-x="351" 
d="M48.5 -162.5q-23.5 6.5 -22.5 10.5l252 882q2 4 25 -2.5t22 -11.5l-251 -881q-2 -4 -25.5 2.5z" />
    <glyph glyph-name="zero" unicode="0" horiz-adv-x="477" 
d="M129.5 14q-48.5 27 -76 74.5t-27.5 106.5t27.5 105.5t76 72.5t110.5 26t110 -26.5t74.5 -73.5t26.5 -106t-27 -106t-75 -73.5t-109 -26.5q-62 0 -110.5 27zM319.5 53q23.5 45 23.5 126q0 101 -31.5 150t-79.5 49q-47 0 -73 -46.5t-26 -125.5q0 -89 32 -143.5t85 -54.5
q46 0 69.5 45z" />
    <glyph glyph-name="one" unicode="1" horiz-adv-x="332" 
d="M38 6q0 6 3 6q39 0 57.5 5t25.5 19.5t7 44.5v176q0 32 -6.5 45.5t-23.5 13.5q-16 0 -64 -19h-1q-3 0 -5 5t2 7l182 86q1 1 3 1q3 0 5 -2.5t2 -5.5v-307q0 -31 6 -45t24 -19t57 -5q3 0 3 -6t-3 -6q-36 0 -56 1l-79 1l-79 -1q-21 -1 -57 -1q-3 0 -3 6z" />
    <glyph glyph-name="two" unicode="2" horiz-adv-x="402" 
d="M164 147.5q40 40.5 56.5 69.5t16.5 59q0 37 -19 64.5t-54 27.5q-37 0 -60.5 -32.5t-47.5 -100.5q0 -1 -4 -1q-9 0 -8 3l44 171q0 2 4 2q3 0 5.5 -1.5t1.5 -2.5q-1 -5 -1 -12q0 -17 15 -17q9 0 30 7q43 15 79 15q55 0 86 -26t31 -69q0 -52 -40.5 -94.5t-111.5 -92.5
l-40 -30q-3 -3 -1.5 -5t6.5 -2q80 0 120.5 3t64 13.5t30.5 33.5q1 3 6.5 3t5.5 -3l-21 -119q0 -4 -2.5 -7.5t-6.5 -3.5h-306q-4 0 -6.5 6t-2.5 12t3 9q87 80 127 120.5z" />
    <glyph glyph-name="three" unicode="3" horiz-adv-x="394" 
d="M327.5 80q35.5 -40 35.5 -92q0 -47 -33.5 -96t-103 -92.5t-172.5 -74.5q-4 -1 -6.5 4t1.5 7q109 44 157 109.5t48 129.5q0 59 -30 94.5t-81 35.5q-20 0 -41 -6q-3 -1 -5 5t1 7q70 18 102 54.5t32 102.5q0 50 -15 76.5t-44 26.5q-42 0 -76.5 -29t-56.5 -84q0 -1 -4 -1
q-9 0 -8 4l37 146q2 2 4 2q3 0 6 -1.5t2 -2.5q-2 -8 -2 -11q0 -17 17 -17q12 0 34 8q24 7 41 10.5t39 3.5q60 0 93.5 -33.5t33.5 -80.5q0 -48 -29.5 -90.5t-81.5 -63.5q70 -11 105.5 -51z" />
    <glyph glyph-name="four" unicode="4" horiz-adv-x="456" 
d="M423 32q0 -11 -1.5 -21t-3.5 -10l-66 3v-139q0 -10 -8 -14l-79 -39l-6 -2q-3 0 -3 8v189q-60 1 -222 1q-5 0 -8 4t1 8l310 376q2 2 6 2q3 0 6 -1.5t3 -4.5v-346q20 0 68 2q3 0 3 -16zM256 43v202l-167 -196q-6 -7 5 -7q116 0 162 1z" />
    <glyph glyph-name="five" unicode="5" horiz-adv-x="409" 
d="M294.5 144.5q65.5 -49.5 65.5 -135.5q0 -57 -30 -103.5t-93.5 -90t-168.5 -90.5h-1q-4 0 -6.5 4.5t1.5 6.5q108 61 151.5 123t43.5 133q0 83 -49 129t-140 46q-5 0 -8 3.5t-2 8.5l32 178q1 7 3 8.5t10 2.5q126 15 169 21t55.5 12.5t17.5 21.5q1 3 6.5 2.5t4.5 -4.5
l-20 -111q-3 -11 -9 -14.5t-19 -3.5l-190 -4q-13 0 -15 -14l-14 -78q140 -2 205.5 -51.5z" />
    <glyph glyph-name="six" unicode="6" horiz-adv-x="465" 
d="M407 249.5q33 -38.5 33 -90.5q0 -47 -28 -86.5t-76.5 -62.5t-105.5 -23q-89 0 -141 58.5t-52 161.5q0 94 44 184.5t126.5 161.5t192.5 108q4 1 6 -4t-1 -7q-86 -43 -146 -112.5t-90 -151.5t-30 -165q0 -58 14.5 -106t41.5 -76t62 -28q37 0 59 31.5t22 87.5q0 53 -21 84.5
t-62 31.5q-18 0 -34 -6.5t-37 -21.5q-1 -1 -3 -1q-3 0 -6 3t-2 5q58 63 136 63q65 0 98 -38.5z" />
    <glyph glyph-name="seven" unicode="7" horiz-adv-x="429" 
d="M156 -236l-82 -39h-1q-3 0 -5 2.5t-1 4.5l260 559q4 7 -4 7q-142 0 -197 -4t-73.5 -17t-27.5 -47q-2 -2 -5 -2t-5.5 1.5t-1.5 3.5l45 180q1 2 7 1.5t5 -2.5q-1 -4 -1 -10q0 -10 9.5 -13t38.5 -3h265q4 0 7.5 -4.5t1.5 -8.5l-214 -585q-7 -18 -21 -24z" />
    <glyph glyph-name="eight" unicode="8" horiz-adv-x="489" 
d="M390.5 295q28.5 -21 50.5 -54t22 -77q0 -51 -30 -91.5t-81 -63t-111 -22.5t-106.5 22.5t-72 60.5t-25.5 83q0 53 35 101t96 77q-33 25 -51.5 53t-18.5 64q0 43 24 71t60.5 41.5t74.5 13.5q45 0 79.5 -15.5t52.5 -39.5t18 -49q0 -31 -27 -64t-74 -54q56 -36 84.5 -57z
M207 534.5q-15 -18.5 -15 -46.5q0 -38 25 -66.5t73 -60.5q16 26 24 48t8 46q0 42 -22 70t-53 28q-25 0 -40 -18.5zM340 43q27 34 27 81q0 37 -18.5 66t-45.5 50t-72 49l-42 27q-23 -25 -36 -60.5t-13 -75.5q0 -45 16.5 -84.5t46 -63t65.5 -23.5q45 0 72 34z" />
    <glyph glyph-name="nine" unicode="9" horiz-adv-x="465" 
d="M85.5 120q-31.5 22 -45.5 55t-14 68q0 69 52 112.5t136 43.5q99 0 156.5 -61t57.5 -166q0 -90 -43.5 -180t-125.5 -161.5t-194 -105.5q-3 -1 -5.5 4t1.5 7q85 39 145 108.5t90 151t30 158.5q0 51 -12.5 102.5t-41 86.5t-72.5 35q-73 0 -73 -110q0 -60 21 -95.5t63 -35.5
q18 0 34.5 7t36.5 24q1 1 3 1q3 0 5.5 -3t1.5 -5q-23 -31 -56 -47t-72 -16q-47 0 -78.5 22z" />
    <glyph glyph-name="colon" unicode=":" horiz-adv-x="207" 
d="M60.5 5.5q-16.5 16.5 -16.5 44.5q0 26 16.5 42t44.5 16t43.5 -15.5t15.5 -42.5q0 -29 -15.5 -45t-43.5 -16t-44.5 16.5zM60.5 286.5q-16.5 16.5 -16.5 44.5q0 26 16.5 42t44.5 16t43.5 -15.5t15.5 -42.5q0 -29 -15.5 -45t-43.5 -16t-44.5 16.5z" />
    <glyph glyph-name="semicolon" unicode=";" horiz-adv-x="232" 
d="M164.5 79q19.5 -27 19.5 -77q0 -45 -20 -83.5t-60 -77.5q-1 -1 -3 -1q-3 0 -5 3t0 5q49 50 49 118q0 28 -10 41q-9 -15 -37 -15q-24 0 -38.5 15.5t-14.5 40.5q0 27 17.5 42.5t47.5 15.5q35 0 54.5 -27zM62.5 286.5q-16.5 16.5 -16.5 44.5q0 26 16.5 42t44.5 16
t43.5 -15.5t15.5 -42.5q0 -29 -15.5 -45t-43.5 -16t-44.5 16.5z" />
    <glyph glyph-name="less" unicode="&#x3c;" horiz-adv-x="407" 
d="M377 46q0 -24 -7 -21l-334 148q-5 3 -5 17q0 15 5 17l334 147q3 2 5 -4t2 -16q0 -24 -7 -28l-272 -116l272 -116q7 -3 7 -28z" />
    <glyph glyph-name="equal" unicode="=" horiz-adv-x="468" 
d="M30.5 244q-1.5 8 -1.5 17q0 8 1.5 15t2.5 7h401q2 0 3.5 -7.5t1.5 -15.5q0 -9 -1.5 -16.5t-3.5 -7.5h-400q-2 0 -3.5 8zM30.5 104q-1.5 8 -1.5 17q0 8 1.5 15t2.5 7h401q2 0 3.5 -7.5t1.5 -15.5q0 -9 -1.5 -16.5t-3.5 -7.5h-400q-2 0 -3.5 8z" />
    <glyph glyph-name="greater" unicode="&#x3e;" horiz-adv-x="407" 
d="M376 189q0 -14 -5 -17l-334 -147q-3 -1 -5 5t-2 15t2 18t5 10l272 116l-272 116q-3 2 -5 10.5t-2 17.5q0 10 2 16.5t5 4.5l334 -148q5 -2 5 -17z" />
    <glyph glyph-name="question" unicode="?" horiz-adv-x="339" 
d="M145 595q-6 -11 -8 -30q-2 -28 -13.5 -48.5t-43.5 -20.5q-26 0 -38 14t-12 33q0 35 38.5 58.5t96.5 23.5q65 0 109.5 -31t44.5 -88q0 -38 -19 -62.5t-56 -54.5l-22 -18q-31 -27 -45 -56.5t-14 -66.5q0 -15 5 -53q2 -3 -6 -5t-10 1q-12 27 -19 62t-7 59q0 30 9.5 49.5
t28.5 43.5q21 26 32.5 50.5t11.5 63.5q0 38 -11.5 62.5t-31.5 24.5q-14 0 -20 -11zM108.5 5.5q-16.5 16.5 -16.5 44.5q0 26 16.5 42t44.5 16t43.5 -15.5t15.5 -42.5q0 -29 -15.5 -45t-43.5 -16t-44.5 16.5z" />
    <glyph glyph-name="at" unicode="@" horiz-adv-x="729" 
d="M402 115q0 16 4 32l2 7q-34 -46 -72.5 -73t-72.5 -27q-25 0 -41.5 16t-16.5 51q0 6 2 22q8 54 42.5 104t81 81.5t87.5 31.5q15 0 28.5 -6t21.5 -18q28 11 34 31q2 2 6 2t7 -1t4 -2l-41 -224q-2 -8 -2 -23q0 -37 37 -37q24 0 49 17.5t42 52.5t17 84q0 67 -32.5 123
t-89 88.5t-127.5 32.5q-76 0 -131.5 -37.5t-85 -101.5t-29.5 -140q0 -82 34 -143.5t96 -95t145 -33.5q47 0 86.5 11t80.5 40h1q3 0 5.5 -3.5t-0.5 -4.5q-52 -44 -103 -61t-106 -17q-84 0 -152.5 33.5t-108.5 97t-40 150.5q0 95 47.5 170t126.5 116.5t169 41.5
q80 0 141 -32.5t94.5 -86t33.5 -116.5q0 -58 -28 -106.5t-76 -77t-105 -28.5q-65 0 -65 59zM356.5 141.5q24.5 23.5 45.5 60.5t28 73q2 14 2 20q0 19 -6.5 30.5t-18.5 11.5q-35 0 -67 -43t-44 -100q-5 -22 -5 -39q0 -16 5.5 -26.5t16.5 -10.5q19 0 43.5 23.5z" />
    <glyph glyph-name="A" unicode="A" horiz-adv-x="654" 
d="M663 6q0 -6 -3 -6q-18 0 -56 2q-42 2 -67 2q-26 0 -64 -2q-36 -2 -53 -2q-4 0 -4 6t4 6q30 0 43 6.5t13 23.5q0 15 -12 42l-88 211h-158l-68 -166q-16 -38 -16 -61q0 -29 23 -42.5t71 -13.5q4 0 4 -6t-5 -6q-13 0 -57 2q-50 2 -76 2q-24 0 -56 -2q-28 -2 -46 -2
q-4 0 -4 6t4 6q30 0 65.5 32.5t61.5 91.5l211 498q0 3 7 3q9 0 13 -4l224 -549q15 -35 22.5 -47t21.5 -18.5t42 -6.5q3 0 3 -6zM230 323h135l-68 163z" />
    <glyph glyph-name="B" unicode="B" horiz-adv-x="604" 
d="M505 294.5q51 -45.5 51 -113.5q0 -52 -31 -94t-85 -66.5t-121 -24.5q-28 0 -64 3q-14 1 -34.5 2t-45.5 1l-72 -1q-19 -1 -53 -1q-2 0 -2 6t2 6q29 0 43.5 5.5t20.5 19.5t6 44v463q0 29 -5.5 43.5t-20 20t-43.5 5.5q-2 0 -2 6t2 6l53 -1q44 -2 71 -2q28 0 58 3q10 1 30 2
t35 1q94 0 145.5 -33t51.5 -96q0 -48 -32 -87t-94 -62q85 -10 136 -55.5zM243 594q-11 -14 -11 -52v-190l41 -1q54 0 83.5 39.5t29.5 99.5q0 57 -26.5 87.5t-76.5 30.5q-29 0 -40 -14zM406 53q33 35 33 104q0 77 -38 122t-117 45q-29 0 -52 -2v-241q0 -35 13 -49t57 -14
q71 0 104 35z" />
    <glyph glyph-name="C" unicode="C" horiz-adv-x="635" 
d="M185 36q-79 48 -114 121.5t-35 155.5q0 99 48.5 172.5t129 112t174.5 38.5q46 0 96 -8.5t81 -20.5q8 -5 10.5 -9t2.5 -14l7 -134q0 -3 -4.5 -3t-6.5 3q-37 76 -94.5 117.5t-130.5 41.5q-95 0 -145.5 -69t-50.5 -194q0 -90 31.5 -168t85.5 -124t119 -46q103 0 192 152
q2 3 5 3q6 0 6 -6l-6 -115q-2 -13 -4 -16.5t-11 -6.5q-88 -31 -184 -31q-123 0 -202 48z" />
    <glyph glyph-name="D" unicode="D" horiz-adv-x="688" 
d="M247 -1q-14 1 -34 2t-45 1l-74 -1q-18 -1 -51 -1q-2 0 -2 6t2 6q31 0 45 5t19.5 19.5t4.5 44.5v463q-2 30 -7.5 44t-19.5 19.5t-42 5.5q-2 0 -2 6t2 6l51 -1q44 -2 72 -2q33 0 66 3q42 2 62 2q105 0 186 -38.5t126 -107.5t45 -158q0 -96 -47.5 -170.5t-125.5 -115.5
t-168 -41q-28 0 -63 3zM423 49.5q52 33.5 80.5 97.5t28.5 154q0 77 -25 146.5t-79.5 114.5t-138.5 45q-40 0 -54 -14.5t-14 -50.5v-450q1 -41 17.5 -58.5t62.5 -17.5q70 0 122 33.5z" />
    <glyph glyph-name="E" unicode="E" horiz-adv-x="572" 
d="M527 161q3 0 6 -1.5t2 -2.5q-10 -65 -10 -142q0 -8 -3 -11.5t-12 -3.5h-456q-4 0 -4 6t3 6q30 0 43.5 5t18 19t4.5 45v463q0 30 -5 44t-19 19.5t-42 5.5q-3 0 -3.5 6t1.5 6h431q8 0 8 -9l2 -132q0 -3 -5.5 -3t-6.5 2q-17 56 -61.5 88.5t-105.5 32.5h-19q-31 0 -44.5 -4.5
t-17.5 -16.5t-5 -40v-204h125q51 0 75 18t24 58q0 4 7 4t7 -5l-1 -55q-1 -12 -1 -34q0 -32 1 -48l1 -54q0 -5 -6 -5q-3 0 -5.5 1.5t-2.5 3.5q0 43 -26.5 65.5t-74.5 22.5h-123v-226q0 -40 12.5 -52t52.5 -12h28q65 0 119 37.5t83 100.5q2 2 5 2z" />
    <glyph glyph-name="F" unicode="F" horiz-adv-x="523" 
d="M488 484q0 -3 -5.5 -3t-7.5 2q-15 56 -59.5 88.5t-105.5 32.5h-20q-32 0 -45 -4.5t-17 -16.5t-5 -40v-216h102q50 0 73.5 18t24.5 59q0 4 6.5 4t6.5 -4l-1 -92q0 -32 1 -48l1 -53q0 -4 -5 -4q-2 0 -4.5 1.5t-2.5 3.5q0 42 -27.5 64.5t-74.5 22.5h-100v-214q0 -31 9 -46
t31.5 -21t67.5 -6q4 0 4 -6t-4 -6q-23 0 -39 1l-124 1l-69 -1q-19 -1 -51 -1q-3 0 -3 6t3 6q31 0 44.5 5t18 19t4.5 45v463q0 30 -5 44t-19 19.5t-43 5.5q-3 0 -3 6t3 6h430q4 0 5.5 -2t1.5 -7q3 -58 3 -132z" />
    <glyph glyph-name="G" unicode="G" horiz-adv-x="684" 
d="M203.5 31q-81.5 43 -124.5 118.5t-43 169.5q0 91 48 163.5t131 113t185 40.5q47 0 96 -8.5t77 -20.5q8 -4 10 -8t3 -15l8 -131q0 -4 -5 -5t-7 2q-35 76 -92 118.5t-132 42.5q-97 0 -151 -68.5t-54 -186.5q0 -103 36 -182t98.5 -122t141.5 -43q36 0 55 10.5t26.5 35
t7.5 71.5q0 49 -9 71t-33 29t-77 7q-6 0 -6 8q0 3 1.5 5.5t3.5 2.5q83 -5 138 -5q52 0 108 3q4 0 5 -7t-3 -7q-16 1 -20 -8t-4 -41v-68q0 -45 3 -63t3 -25q0 -6 -1.5 -8t-7.5 -4q-128 -28 -223 -28q-111 0 -192.5 43z" />
    <glyph glyph-name="H" unicode="H" horiz-adv-x="731" 
d="M690 6q0 -6 -2 -6q-28 0 -46 1l-75 1l-72 -1q-19 -1 -52 -1q-2 0 -2.5 6t2.5 6q31 0 44.5 5t17.5 19t4 45v230h-288v-230q0 -30 5.5 -44t19.5 -19.5t44 -5.5q3 0 3 -6t-3 -6q-33 0 -51 1l-74 1l-69 -1q-19 -1 -50 -1q-3 0 -3 6t3 6q30 0 43.5 5t18 19t4.5 45v463
q1 42 -12 55.5t-54 13.5q-3 0 -3 6t3 6l48 -1q44 -2 71 -2t73 2l51 1q2 0 2 -6t-2 -6q-30 0 -44 -6t-18.5 -20.5t-5.5 -44.5v-203h287v203q0 43 -12.5 57t-53.5 14q-2 0 -2.5 6t2.5 6l49 -1q44 -2 72 -2q27 0 71 2l51 1q3 0 3 -6t-3 -6q-30 0 -43.5 -5.5t-18.5 -19.5t-7 -44
v-463q0 -29 6.5 -43.5t21.5 -20t44 -5.5q2 0 2 -6z" />
    <glyph glyph-name="I" unicode="I" horiz-adv-x="358" 
d="M54 6q0 6 2 6q31 0 44.5 5t18.5 19t5 45v463q0 29 -5.5 43.5t-19.5 20t-43 5.5q-2 0 -2.5 6t2.5 6l50 -1q44 -2 71 -2q30 0 76 2l49 1q2 0 2 -6t-2 -6q-30 0 -44 -6t-18.5 -20t-5.5 -45v-461q0 -30 5.5 -44t19.5 -19.5t43 -5.5q2 0 2 -6t-2 -6q-31 0 -50 1l-73 1l-71 -1
q-19 -1 -52 -1q-2 0 -2 6z" />
    <glyph glyph-name="J" unicode="J" horiz-adv-x="337" 
d="M35.5 -189q-2.5 5 -0.5 7q44 27 63 81.5t17 140.5v504q0 29 -5.5 43.5t-19.5 20t-43 5.5q-3 0 -3 6t3 6l52 -1q42 -2 68 -2q34 0 78 2l47 1q3 0 3.5 -6t-3.5 -6q-29 0 -43 -6t-18.5 -20.5t-5.5 -44.5v-475q0 -78 -18.5 -126.5t-57.5 -78.5t-107 -55q-4 -1 -6.5 4z" />
    <glyph glyph-name="K" unicode="K" horiz-adv-x="675" 
d="M680.5 6q0.5 -6 -3.5 -6h-102q-59 0 -73.5 6t-47 58t-65.5 96l-129 175l-39 -39v-215q0 -34 3 -46.5t16.5 -17.5t47.5 -5q2 0 2 -6t-2 -6q-33 0 -50 1l-75 1l-69 -1q-19 -1 -51 -1q-2 0 -2 6t2 6q31 0 45 5t19 19.5t5 44.5v463q0 30 -5 44t-19 19.5t-42 5.5q-3 0 -3 6
t3 6l48 -1q44 -2 71 -2t73 2l51 1q2 0 2 -6t-2 -6q-30 0 -44 -6t-18.5 -20t-5.5 -45v-215l192 197q26 26 26 50q0 18 -14 28.5t-38 10.5q-4 0 -4 6t3 6l55 -1q56 -2 88 -2q34 0 70 2l38 1q3 0 3 -6t-3 -6q-44 0 -97 -25.5t-98 -69.5l-112 -112l140 -190
q76 -101 107.5 -139.5t52 -51.5t47.5 -13q3 0 3.5 -6z" />
    <glyph glyph-name="L" unicode="L" horiz-adv-x="544" 
d="M42 6q0 6 2 6q31 0 45 5t18.5 19t4.5 45v463q0 30 -5 44t-19 19.5t-42 5.5q-3 0 -3 6t3 6l48 -1q44 -2 71 -2t73 2l51 1q2 0 2 -6t-2 -6q-31 0 -44.5 -5.5t-18 -19.5t-5.5 -45v-458q0 -39 11 -51.5t42 -12.5h28q81 0 135.5 36.5t87.5 113.5q2 2 5 2t6 -1.5t3 -3.5
q-8 -82 -8 -153q0 -15 -15 -15h-472q-2 0 -2 6z" />
    <glyph glyph-name="M" unicode="M" horiz-adv-x="804" 
d="M783.5 6q0.5 -6 -3.5 -6q-30 0 -48 1l-74 1l-71 -1q-18 -1 -51 -1q-3 0 -3 6t3 6q31 0 45.5 5t19.5 19.5t3 44.5l-14 477l-192 -551q-2 -4 -7 -4q-6 0 -9 5l-222 525l-2 -403q-2 -55 19.5 -86.5t59.5 -31.5q3 0 3 -6t-3 -6q-25 0 -40 1l-59 1l-52 -1q-15 -1 -43 -1
q-2 0 -2 6t2 6q38 0 60.5 31t22.5 84l5 453q-31 33 -84 33q-3 0 -3 6t3 6q15 0 25 -1l43 -1l66 1q11 1 27 1q13 0 21.5 -10t21.5 -42l176 -411l151 438q3 11 12.5 18t22.5 7q16 0 27 -1l45 -1l45 1q10 1 29 1q3 0 3 -6t-2 -6q-32 0 -47.5 -10.5t-15.5 -39.5q0 -11 1 -17
l14 -465q2 -30 7.5 -44.5t18.5 -19.5t42 -5q3 0 3.5 -6z" />
    <glyph glyph-name="N" unicode="N" horiz-adv-x="709" 
d="M697 619q0 -6 -3 -6q-41 0 -66.5 -28t-26.5 -76l-1 -516q1 -3 -4.5 -5.5t-12.5 -2.5q-10 0 -13 6l-419 526l-1 -401q-1 -48 24 -76t67 -28q4 0 4 -6t-4 -6q-28 0 -43 1l-63 1l-60 -1q-17 -1 -48 -1q-4 0 -4 6t4 6q42 0 66.5 28t25.5 76l1 439q-29 32 -51.5 45t-46.5 13
q-2 0 -2 6t2 6l54 -1q16 -1 43 -1t45.5 1t24.5 1q8 0 12.5 -4t10.5 -15q12 -18 24 -33l333 -416l2 352q1 48 -23.5 76t-67.5 28q-4 0 -4 6t4 6l39 -1q40 -2 67 -2q21 0 59 2l49 1q3 0 3 -6z" />
    <glyph glyph-name="O" unicode="O" horiz-adv-x="735" 
d="M188 31q-73 43 -112.5 116.5t-39.5 163.5q0 92 43.5 166t120 116.5t172.5 42.5q97 0 171 -41.5t114.5 -114t40.5 -161.5q0 -99 -46.5 -174.5t-125 -116t-170.5 -40.5q-95 0 -168 43zM494.5 44q41.5 30 64.5 85.5t23 130.5q0 92 -31 173t-87 130t-128 49q-55 0 -97 -30
t-65 -85.5t-23 -130.5q0 -90 31 -171.5t87.5 -131t128.5 -49.5q55 0 96.5 30z" />
    <glyph glyph-name="P" unicode="P" horiz-adv-x="574" 
d="M43 6q0 6 3 6q31 0 45 5t19 19.5t5 44.5v463q0 30 -5.5 44t-20 19.5t-43.5 5.5q-3 0 -3 6t3 6l49 -1q42 -2 70 -2q39 0 87 4q34 2 45 2q106 0 172.5 -43t66.5 -124q0 -66 -36 -111t-90 -66.5t-108 -21.5q-30 0 -47 5q-2 0 -2 7q0 5 1.5 9.5t3.5 3.5q13 -4 32 -4
q56 0 92.5 39.5t36.5 118.5q0 51 -20 88.5t-51.5 57.5t-66.5 20t-46.5 -12.5t-12.5 -52.5l1 -461q0 -30 5.5 -44t19 -19.5t42.5 -5.5q3 0 3.5 -6t-3.5 -6q-32 0 -50 1l-72 1l-71 -1q-19 -1 -51 -1q-3 0 -3 6z" />
    <glyph glyph-name="Q" unicode="Q" horiz-adv-x="735" 
d="M814 -178.5q3 -5.5 0 -6.5q-42 -15 -71 -15q-73 0 -151 51t-147 147q-48 -10 -89 -10q-95 0 -168 43t-112.5 116.5t-39.5 163.5q0 92 43.5 166t120 116.5t172.5 42.5q97 0 171 -41.5t114.5 -114t40.5 -161.5q0 -97 -44 -170.5t-119 -115.5q34 -59 80.5 -107.5t91 -76
t71.5 -27.5q18 0 30 4q3 1 6 -4.5zM182 194.5q31 -81.5 87.5 -131t128.5 -49.5q55 0 96.5 30t64.5 85.5t23 130.5q0 92 -31 173t-87 130t-128 49q-55 0 -97 -30t-65 -85.5t-23 -130.5q0 -90 31 -171.5z" />
    <glyph glyph-name="R" unicode="R" horiz-adv-x="687" 
d="M704.5 6q0.5 -6 -3.5 -6h-164q-24 0 -83.5 80.5t-143.5 242.5q-28 -7 -62 -7q-5 0 -13 2v-237q-1 -29 4.5 -43.5t20 -20t44.5 -5.5q4 0 4.5 -6t-3.5 -6q-34 0 -52 1l-74 1l-75 -1q-20 -1 -54 -1q-4 0 -4.5 6t3.5 6q33 0 49 5.5t21.5 20t6.5 43.5v463q0 30 -5.5 44
t-20.5 19.5t-46 5.5q-4 0 -4 6t4 6l53 -1q44 -2 72 -2q34 0 74 4q32 2 42 2q101 0 151.5 -33t50.5 -92q0 -43 -28.5 -83t-75.5 -67q78 -129 132.5 -202.5t96 -106t79.5 -32.5q3 0 3.5 -6zM264 343q66 0 93.5 29t27.5 97q0 71 -27.5 104.5t-67.5 33.5q-27 0 -37 -3.5
t-13.5 -16t-4.5 -45.5v-196q12 -3 29 -3z" />
    <glyph glyph-name="S" unicode="S" horiz-adv-x="505" 
d="M187 465q19 -29 46.5 -50.5t74.5 -51.5q51 -33 80.5 -57t50.5 -57.5t21 -76.5q0 -85 -59.5 -134.5t-153.5 -49.5q-45 0 -96 12.5t-68 27.5q-5 3 -6.5 6.5t-2.5 12.5l-4 159q-1 4 4.5 5t7.5 -3q28 -58 52.5 -97.5t59.5 -68.5t79 -29q88 0 88 96q0 46 -20.5 81t-50 58.5
t-78.5 55.5q-45 29 -72 50.5t-45.5 51.5t-18.5 68q0 54 30.5 90.5t78.5 54t102 17.5q35 0 73.5 -6.5t59.5 -15.5q9 -5 12 -9.5t3 -10.5v-147q0 -3 -5 -4.5t-7 1.5q-3 6 -21.5 51.5t-56 82t-85.5 36.5q-40 0 -66 -23.5t-26 -60.5q0 -36 19 -65z" />
    <glyph glyph-name="T" unicode="T" horiz-adv-x="596" 
d="M151 6q0 6 2 6q42 0 61.5 5t26.5 19.5t7 44.5v463q1 35 -9 46.5t-38 11.5h-13q-34 0 -67 -21.5t-56 -57t-28 -77.5q0 -2 -5 -2q-3 0 -5.5 1.5t-1.5 2.5q5 38 15 199q0 3 5 3q3 0 5.5 -1t2.5 -3q0 -21 45 -21q81 -3 203 -3q55 0 123 2l70 1q33 0 48 5t19 20q2 3 7.5 2.5
t4.5 -4.5q-3 -44 -6 -110.5t-2 -89.5q0 -3 -6 -3q-8 0 -8 4q0 41 -18.5 76t-51 56t-70.5 21h-13q-20 0 -28.5 -5t-10.5 -16.5t-3 -38.5l1 -461q0 -31 6.5 -45t25.5 -19t62 -5q3 0 3 -6t-3 -6q-37 0 -58 1l-91 1l-86 -1q-22 -1 -62 -1q-3 0 -3 6z" />
    <glyph glyph-name="U" unicode="U" horiz-adv-x="775" 
d="M738 6q0 -6 -3 -6l-98 1l-76 -1q-11 0 -13.5 3t-2.5 16v44q-48 -40 -96.5 -57.5t-105.5 -17.5q-71 0 -127 24t-88 69t-32 105v358q0 29 -5.5 43.5t-19.5 20t-42 5.5q-3 0 -3 6t3 6l49 -1q42 -2 71 -2q26 0 72 2l50 1q4 0 4.5 -6t-2.5 -6q-30 0 -44.5 -6t-19 -20t-5.5 -45
v-321q-1 -93 46 -144.5t131 -51.5q43 0 82 15.5t82 51.5l-1 450q1 43 -12 57t-54 14q-3 0 -3 6t2 6l50 -1q44 -2 72 -2q25 0 71 2l50 1q4 0 4.5 -6t-2.5 -6q-30 0 -44.5 -5.5t-19.5 -19.5t-5 -44v-463q0 -30 6 -44.5t23 -19.5t53 -5q3 0 3 -6z" />
    <glyph glyph-name="V" unicode="V" horiz-adv-x="647" 
d="M660 619q0 -6 -5 -6q-37 0 -64.5 -21t-51.5 -86l-190 -505q-3 -5 -15 -5q-5 0 -10 1.5t-6 3.5l-249 541q-18 40 -35 55.5t-45 15.5q-3 0 -3 6t2 6l53 -1q36 -2 53 -2q38 0 86 2l49 1q5 0 5 -6t-5 -6q-56 0 -56 -31q0 -11 8 -30l188 -413l135 370q8 22 8 38q0 31 -23 48.5
t-61 17.5q-4 0 -4 6t4 6l51 -1q44 -2 80 -2q20 0 50 2l46 1q5 0 5 -6z" />
    <glyph glyph-name="W" unicode="W" horiz-adv-x="904" 
d="M917 619q0 -6 -5 -6q-37 0 -64 -21t-52 -86l-190 -505q-3 -5 -14 -5q-14 0 -17 5l-125 271l-101 -271q-3 -5 -15 -5q-5 0 -10 1.5t-6 3.5l-249 541q-18 40 -35 55.5t-45 15.5q-3 0 -3 6t2 6l53 -1q36 -2 53 -2q31 0 69 2l41 1q4 0 4 -6t-4 -6q-35 0 -35 -29q0 -15 8 -32
l191 -417l65 175l-107 232q-18 41 -31.5 56t-34.5 15q-3 0 -3.5 6t1.5 6q15 0 47 -2l46 -1q25 0 53 2l31 1q5 0 5 -6t-5 -6q-10 0 -14 -2.5t-4 -8.5q0 -13 17 -50l58 -127l31 84q16 45 16 66q0 38 -41 38q-2 0 -2 6t2 6l31 -1q26 -2 49 -2q18 0 42 2l37 1q4 0 4.5 -6
t-3.5 -6q-21 0 -36 -7.5t-30.5 -31t-32.5 -68.5l-47 -124l113 -247l136 374q8 22 8 41q0 28 -16.5 45.5t-46.5 17.5q-2 0 -2 6t2 6l44 -1q36 -2 66 -2q20 0 50 2l46 1q5 0 5 -6z" />
    <glyph glyph-name="X" unicode="X" horiz-adv-x="627" 
d="M625 6q0 -6 -4 -6q-28 0 -44 1l-59 1l-88 -1q-22 -1 -56 -1q-5 0 -5 6t5 6q17 0 32 6.5t15 18.5q0 6 -5 14l-134 218l-109 -166q-21 -33 -21 -52q0 -39 70 -39q4 0 4 -6t-4 -6q-35 0 -58 1l-84 1l-45 -1q-14 -1 -41 -1q-5 0 -5 6t5 6q35 0 75 27.5t78 83.5l118 175
l-150 244q-23 38 -44 54.5t-49 16.5q-3 0 -3 6t3 6l41 -1q26 -2 40 -2q34 0 88 2l52 1q5 0 5 -6t-5 -6q-14 0 -23.5 -6t-9.5 -17q0 -9 5 -17l118 -191l90 140q21 31 21 52q0 39 -69 39q-4 0 -4 6t3 6l58 -1q56 -2 86 -2q14 0 44 2l40 1q5 0 5 -6t-5 -6q-34 0 -73.5 -27.5
t-79.5 -83.5l-99 -149l167 -270q23 -39 46 -55t58 -16q4 0 4 -6z" />
    <glyph glyph-name="Y" unicode="Y" horiz-adv-x="577" 
d="M583 619q0 -6 -5 -6q-35 0 -66.5 -26.5t-62.5 -82.5l-100 -190v-233q0 -31 5.5 -45t21.5 -19t52 -5q4 0 4 -6t-4 -6q-35 0 -54 1l-79 1l-83 -1q-20 -1 -54 -1q-4 0 -4 6t4 6q36 0 53 5.5t23.5 19.5t5.5 44l-1 219l-159 242q-24 37 -45.5 54t-43.5 17q-4 0 -4.5 6t2.5 6
l52 -1q38 -2 56 -2q25 0 75 2l51 1q3 0 3 -4q0 -3 -1.5 -5.5t-3.5 -2.5q-26 0 -37.5 -4t-11.5 -13t10 -23l150 -230l94 183q9 20 9 36q0 23 -15.5 37t-44.5 14q-4 0 -4 6t3 6l54 -1q50 -2 77 -2q17 0 39 2l34 1q5 0 5 -6z" />
    <glyph glyph-name="Z" unicode="Z" horiz-adv-x="601" 
d="M37 0q-4 0 -5.5 4.5t0.5 8.5l400 587q3 5 2 6.5t-7 1.5q-122 0 -186.5 -11t-103 -40.5t-72.5 -91.5q-2 -2 -4 -2q-3 0 -6 2t-2 4l44 186q0 1 3 1q4 0 8 -1.5t3 -3.5q-2 -12 1.5 -17t15 -7t37.5 -2h391q4 0 6.5 -5t0.5 -8l-395 -585q-4 -5 -3 -6.5t7 -1.5h112
q112 0 175.5 29.5t103.5 105.5q2 3 5 3q2 0 4.5 -1.5t2.5 -3.5l-14 -144q0 -10 -9 -10q-156 2 -515 2z" />
    <glyph glyph-name="bracketleft" unicode="[" horiz-adv-x="274" 
d="M67 715q0 7 1.5 8.5t7.5 1.5h160q3 0 3 -6t-3 -6q-31 0 -46 -6t-20 -20.5t-5 -44.5v-676q0 -30 5 -44.5t20 -20.5t46 -6q3 0 3 -6t-3 -6h-160q-6 0 -7.5 2t-1.5 9v821z" />
    <glyph glyph-name="backslash" unicode="\" horiz-adv-x="351" 
d="M26 716q-1 5 22 11.5t25 2.5l252 -882q1 -4 -22.5 -10.5t-25.5 -2.5z" />
    <glyph glyph-name="bracketright" unicode="]" horiz-adv-x="274" 
d="M205.5 -115q-1.5 -2 -7.5 -2h-160q-3 0 -3 6t3 6q31 0 46 6t20 20.5t5 44.5v676q0 30 -5 44.5t-20 20.5t-46 6q-3 0 -3 6t3 6h160q6 0 7.5 -1.5t1.5 -8.5v-821q0 -7 -1.5 -9z" />
    <glyph glyph-name="asciicircum" unicode="^" horiz-adv-x="392" 
d="M333 379q0 -2 -4 -4t-5 0l-128 134l-128 -134q-1 -1 -3 -1q-3 0 -5.5 2t-1.5 4l127 249q1 5 11 5t11 -5l126 -249v-1z" />
    <glyph glyph-name="underscore" unicode="_" horiz-adv-x="398" 
d="M30.5 -73q-1.5 8 -1.5 18q0 9 1 16t3 7h331q2 0 3.5 -8t1.5 -17t-1.5 -16.5t-3.5 -7.5h-330q-2 0 -3.5 8z" />
    <glyph glyph-name="grave" unicode="`" horiz-adv-x="166" 
d="M16 727q-3 7 21 7q22 0 48 -6t27 -12l19 -240q1 -2 -3.5 -3t-4.5 2z" />
    <glyph glyph-name="a" unicode="a" horiz-adv-x="477" 
d="M476 78q3 0 6 -3.5t2 -5.5q-28 -39 -54 -58.5t-53 -19.5q-36 0 -54 24t-18 74v68q-27 -80 -76 -125t-104 -45q-41 0 -66.5 27.5t-25.5 84.5q0 66 36 136.5t92.5 117t115.5 46.5q21 0 43.5 -6.5t40.5 -19.5q19 15 28 34q2 2 4 2q3 0 6.5 -2t2.5 -3l-2 -315q-1 -23 4.5 -35
t16.5 -12q10 0 24 9.5t28 25.5q1 1 3 1zM243.5 92q28.5 32 45 78.5t16.5 85.5q0 44 -20.5 69t-55.5 25q-51 0 -80 -49.5t-29 -128.5q1 -59 18 -85.5t44 -26.5q33 0 61.5 32z" />
    <glyph glyph-name="b" unicode="b" horiz-adv-x="485" 
d="M424.5 358q31.5 -41 32.5 -107q0 -81 -40 -141t-99 -91.5t-114 -31.5q-65 0 -103.5 27t-37.5 73l4 502q1 32 -6.5 46.5t-24.5 14.5q-18 0 -44 -13h-2q-4 0 -6 5t2 7l158 76h2q4 0 8 -3t4 -5v-484q22 74 71.5 120t112.5 46q51 0 82.5 -41zM299 39.5q27 24.5 42.5 71
t14.5 109.5q2 49 -15 80.5t-50 31.5q-39 0 -69 -29t-47 -81t-17 -119v-7q0 -35 23.5 -58t57.5 -23q33 0 60 24.5z" />
    <glyph glyph-name="c" unicode="c" horiz-adv-x="372" 
d="M106.5 18q-42.5 31 -62.5 80.5t-17 103.5q1 53 31 98.5t78 72t98 26.5q43 0 78 -17t39 -50q2 -21 -10.5 -33t-38.5 -12q-27 0 -40 12t-23 33q-10 19 -20 29t-28 10q-32 0 -50.5 -34t-18.5 -91q0 -92 37.5 -151t109.5 -59q52 0 82 24h1q3 0 6.5 -3.5t1.5 -6.5
q-31 -35 -68 -49t-80 -14q-63 0 -105.5 31z" />
    <glyph glyph-name="d" unicode="d" horiz-adv-x="484" 
d="M491 79q4 0 6.5 -3.5t0.5 -6.5q-30 -41 -54.5 -59.5t-55.5 -18.5q-36 0 -52.5 24.5t-15.5 73.5l1 69q-30 -80 -72 -125.5t-98 -45.5q-48 0 -83 34.5t-35 103.5q0 70 36 133.5t92.5 102t115.5 38.5q25 0 45 -7l2 197q1 32 -6 46.5t-24 14.5q-18 0 -44 -13h-1q-4 0 -6.5 5
t0.5 7l158 76h2q4 0 8 -3t4 -5l-1 -628q-1 -26 5 -36.5t17 -10.5q12 0 23 8.5t28 26.5zM254.5 85q27.5 28 44.5 69t22 80l1 44q-6 34 -33.5 53t-63.5 19q-52 0 -79 -42t-27 -116q0 -135 73 -135q35 0 62.5 28z" />
    <glyph glyph-name="e" unicode="e" horiz-adv-x="381" 
d="M361 63q3 0 6 -3t1 -5q-32 -35 -73 -51t-84 -16q-60 0 -102 27t-63 71t-21 94q0 54 28 104.5t79.5 82.5t118.5 32q45 0 70.5 -14t28.5 -40q4 -44 -62 -82t-163 -55q4 -77 40.5 -126.5t99.5 -49.5q24 0 49 7.5t45 23.5h2zM144.5 330.5q-19.5 -41.5 -19.5 -106.5
q121 28 117 100q0 22 -11.5 35t-31.5 13q-35 0 -54.5 -41.5z" />
    <glyph glyph-name="f" unicode="f" horiz-adv-x="283" 
d="M326 709.5q30 -16.5 30 -40.5q0 -20 -12 -31t-33 -11q-29 0 -41.5 12t-21.5 35q-7 16 -13 23.5t-19 7.5q-31 0 -43.5 -50t-12.5 -156l1 -60l2 -59q46 2 66 4q26 2 36 2q5 0 8 -4t3 -8q-1 -10 -10.5 -23t-19.5 -12l-21 3q-12 1 -27 3t-34 4l11 -370l1 -35
q0 -82 -14.5 -130t-44 -68.5t-77.5 -20.5t-75 16.5t-27 40.5q0 19 12 29.5t30 10.5q27 0 38.5 -12t20.5 -35q7 -16 12.5 -23t16.5 -7t14.5 14.5t3.5 57.5q0 44 -3 136l-12 353q-1 26 -5.5 36.5t-17 13.5t-43.5 3q-4 0 -4.5 8t3.5 8q35 0 49.5 9t14.5 34l-1 39q0 106 18 164
t56.5 81.5t106.5 23.5q48 0 78 -16.5z" />
    <glyph glyph-name="g" unicode="g" horiz-adv-x="455" 
d="M394 409q3 0 5.5 -1.5t2.5 -3.5l-1 -437q-1 -118 -57.5 -183t-156.5 -65q-65 0 -105.5 24.5t-40.5 63.5q0 19 13.5 29t32.5 10q23 0 34.5 -12t23.5 -38q13 -28 27 -42.5t44 -14.5q41 0 64.5 43.5t24.5 161.5v213q-27 -80 -76 -125t-104 -45q-41 0 -66.5 27.5t-25.5 84.5
q0 66 36 136.5t92.5 117t115.5 46.5q21 0 43.5 -6.5t40.5 -19.5q19 15 28 34q2 2 5 2zM243.5 92q28.5 32 45 78.5t16.5 85.5q0 44 -20.5 69t-55.5 25q-51 0 -80 -49.5t-29 -128.5q1 -59 18 -85.5t44 -26.5q33 0 61.5 32z" />
    <glyph glyph-name="h" unicode="h" horiz-adv-x="489" 
d="M488 79q4 0 6.5 -3.5t1.5 -6.5q-31 -41 -55.5 -59.5t-55.5 -18.5q-35 0 -51.5 24.5t-15.5 73.5l1 159q0 94 -46 94q-32 0 -58 -36.5t-41.5 -108t-16.5 -170.5v-15q0 -9 -15 -14.5t-44 -5.5q-35 0 -37 8v23q2 28 2 51l4 515q1 32 -6.5 47t-24.5 15q-16 0 -44 -14h-1
q-4 0 -6.5 5t1.5 7l158 76h2q4 0 8 -3t4 -5l-1 -495q21 85 62 131t97 46q97 0 97 -132l-2 -178q-2 -47 23 -47q19 0 51 36q1 1 3 1z" />
    <glyph glyph-name="i" unicode="i" horiz-adv-x="260" 
d="M98.5 15.5q-16.5 24.5 -14.5 73.5l4 208q1 49 -26 49q-22 0 -55 -40q-1 -1 -3 -1q-3 0 -6.5 3.5t-1.5 6.5q30 42 58.5 61t58.5 19q68 0 68 -86l-4 -220q-2 -47 23 -47q10 0 20.5 8t29.5 27q2 2 4 2q4 0 6.5 -3.5t1.5 -6.5q-30 -41 -55 -59.5t-56 -18.5q-36 0 -52.5 24.5z
M79 511q-16 16 -16 45q0 26 16.5 41.5t44.5 15.5t43 -15t15 -42q0 -29 -15 -45t-43 -16q-29 0 -45 16z" />
    <glyph glyph-name="j" unicode="j" horiz-adv-x="262" 
d="M-17 -258q-30 17 -30 42q0 18 12 28t30 10q27 0 38.5 -12t21.5 -35q6 -16 11.5 -23t16.5 -7q9 0 12.5 9.5t5 32.5t1.5 73v93v344q0 49 -26 49q-22 0 -55 -40q-1 -1 -3 -1q-3 0 -6.5 3.5t-0.5 6.5q31 43 58.5 61.5t57.5 18.5q35 0 51 -21.5t17 -64.5v-330
q1 -96 -11.5 -150.5t-41.5 -79t-80 -24.5q-49 0 -79 17zM83 511q-16 16 -16 45q0 26 16.5 41.5t44.5 15.5t43 -15t15 -42q0 -29 -15 -45t-43 -16q-29 0 -45 16z" />
    <glyph glyph-name="k" unicode="k" horiz-adv-x="453" 
d="M476 77q4 0 6.5 -4t0.5 -6q-30 -39 -54 -57.5t-47 -18.5q-29 0 -53.5 14.5t-57.5 52.5l-83 96q-11 12 -17 17t-14 6v-165q0 -9 -15 -14.5t-44 -5.5q-35 0 -37 8v23q2 28 2 51l4 515q1 32 -6 46.5t-24 14.5q-18 0 -44 -13h-2q-4 0 -6.5 5t1.5 7l158 76h2q3 0 7.5 -2.5
t4.5 -5.5l-1 -388q34 33 75.5 51.5t85.5 18.5q47 0 65.5 -18t20.5 -42q1 -37 -39 -72.5t-115 -62.5l90 -102q27 -32 44.5 -42.5t34.5 -10.5q24 0 55 27zM185 314.5q-26 -41.5 -28 -109.5v-8q72 16 105.5 41t33.5 62q0 26 -10.5 41t-30.5 15q-44 0 -70 -41.5z" />
    <glyph glyph-name="l" unicode="l" horiz-adv-x="260" 
d="M85 15.5q-16 24.5 -15 73.5l3 500q1 32 -6 46.5t-24 14.5q-18 0 -44 -13h-2q-5 0 -6.5 5.5t2.5 6.5l157 76h2q4 0 8 -3t4 -5l-1 -628q-2 -47 23 -47q10 0 22.5 9t28.5 26q2 2 4 2q3 0 5.5 -3.5t1.5 -6.5q-30 -41 -55 -59.5t-56 -18.5q-36 0 -52 24.5z" />
    <glyph glyph-name="m" unicode="m" horiz-adv-x="743" 
d="M743 79q3 0 5.5 -3.5t1.5 -6.5q-31 -41 -55.5 -59.5t-55.5 -18.5q-37 0 -52.5 24.5t-14.5 73.5l1 159q0 94 -43 94q-27 0 -51 -33.5t-39.5 -101t-17.5 -162.5v-33q0 -20 -57 -20q-34 0 -38 8l1 20q2 30 2 54l1 176q1 47 -11.5 69.5t-34.5 22.5q-27 0 -51 -34.5t-39 -99.5
t-17 -154v-42q0 -9 -14.5 -14.5t-43.5 -5.5q-35 0 -37 8v23q2 28 2 51l2 223q0 49 -26 49q-22 0 -55 -40q-2 -2 -4 -2q-3 0 -5.5 3.5t-1.5 7.5q30 42 58 61t59 19q35 0 50.5 -21.5t16.5 -64.5v-81q20 82 59.5 126.5t92.5 44.5q44 0 68 -32t24 -98v-44q20 84 59.5 129
t91.5 45q91 0 91 -132l-1 -178q-1 -47 24 -47q10 0 21.5 8.5t29.5 26.5q2 2 4 2z" />
    <glyph glyph-name="n" unicode="n" horiz-adv-x="511" 
d="M510 79q4 0 7 -3.5t1 -6.5q-30 -41 -55 -59.5t-56 -18.5q-36 0 -52 24.5t-15 73.5l2 159q0 94 -48 94q-32 0 -58 -36t-41.5 -106.5t-16.5 -167.5v-20q0 -9 -14.5 -14.5t-43.5 -5.5q-35 0 -37 8v23q2 28 2 51l2 223q0 49 -26 49q-22 0 -55 -40q-1 -1 -3 -1q-4 0 -7 3.5
t-1 6.5q30 42 58 61t59 19q35 0 50.5 -21.5t16.5 -64.5v-92q21 87 62 134.5t97 47.5q96 0 96 -132l-1 -178q-1 -47 23 -47q11 0 22.5 9t27.5 26z" />
    <glyph glyph-name="o" unicode="o" horiz-adv-x="437" 
d="M108.5 13.5q-41.5 27.5 -62.5 73.5t-21 101q0 62 26 110t72.5 74.5t104.5 26.5q88 0 137 -56t49 -145q0 -67 -29 -115t-76 -72.5t-101 -24.5q-58 0 -99.5 27.5zM295 49.5q18 38.5 18 106.5q0 58 -15.5 108.5t-42.5 80.5t-59 30q-33 0 -52 -35t-19 -104q0 -60 16 -111.5
t42.5 -82.5t57.5 -31q36 0 54 38.5z" />
    <glyph glyph-name="p" unicode="p" horiz-adv-x="441" 
d="M146 1v-179q0 -33 8 -45t31 -12q6 0 24 2q5 1 6.5 -4.5t-3.5 -6.5l-201 -31q-4 -1 -6 5t2 7q20 4 29 10.5t11.5 21t2.5 46.5l3 479q-21 -12 -51 -34q-1 -1 -4 -1q-4 0 -6.5 4t1.5 7q34 29 60 46v70q0 2 17 12q28 17 45.5 32t19.5 34q0 4 5 4q6 0 6 -6v-95q65 26 121 26
q68 0 104.5 -39t36.5 -112q0 -66 -28.5 -121.5t-80 -88.5t-115.5 -33q-10 0 -38 2zM146 337v-293q40 -15 73 -15q54 0 75.5 38.5t21.5 112.5q0 80 -25.5 122t-90.5 42q-29 0 -54 -7z" />
    <glyph glyph-name="q" unicode="q" horiz-adv-x="451" 
d="M479 -239q4 0 5 -5t-3 -6l-225 -25q-4 -1 -5 5.5t3 6.5q26 3 36.5 9.5t14 21t3.5 47.5v309q-26 -65 -71.5 -101t-96.5 -36q-47 0 -76.5 29t-29.5 87q0 79 33.5 147t90 108.5t122.5 40.5q21 0 43.5 -6.5t40.5 -19.5q17 14 28 34q0 2 3 2q4 0 7.5 -1.5t2.5 -3.5l-4 -582
q0 -34 11.5 -48.5t41.5 -14.5q6 0 24 2h1zM278.5 111q29.5 51 29.5 121q0 118 -90 118q-47 0 -74 -49.5t-27 -112.5q0 -53 20.5 -90.5t57.5 -37.5q54 0 83.5 51z" />
    <glyph glyph-name="r" unicode="r" horiz-adv-x="379" 
d="M344 308.5q-16 -19.5 -35 -19.5q-10 0 -17.5 3.5t-18.5 9.5q-7 4 -13.5 7t-12.5 3q-19 0 -35.5 -48.5t-26 -118t-10.5 -125.5v-8q0 -20 -57 -20q-35 0 -37 8v23q2 28 2 51l1 223q0 49 -26 49q-23 0 -54 -40q-2 -2 -4 -2q-4 0 -7 3.5t0 7.5q30 42 58 61t59 19
q35 0 50 -21.5t17 -64.5l-1 -107q13 89 39 141.5t68 52.5q25 0 51 -15.5t26 -35.5q0 -17 -16 -36.5z" />
    <glyph glyph-name="s" unicode="s" horiz-adv-x="336" 
d="M64.5 10q-38.5 21 -39.5 51q0 20 12 30.5t31 10.5q18 0 31 -9.5t30 -28.5q20 -21 34.5 -31t35.5 -10q19 0 26.5 8.5t7.5 27.5q0 36 -25 60.5t-74 55.5q-34 22 -53 37t-32.5 35t-13.5 46q0 25 18 49t50.5 39t74.5 15q53 0 86 -16.5t34 -43.5q2 -19 -10.5 -30t-29.5 -11
q-24 0 -36.5 9t-25.5 28q-13 18 -24.5 27t-33.5 9q-18 0 -26 -9t-8 -22q0 -31 24 -53.5t71 -52.5q52 -33 78 -59.5t26 -63.5q-1 -27 -19 -54.5t-52 -46t-80 -18.5q-49 0 -87.5 21z" />
    <glyph glyph-name="t" unicode="t" horiz-adv-x="319" 
d="M317 81q3 0 6 -3.5t1 -6.5q-43 -44 -78 -63.5t-73 -19.5q-108 0 -106 106l1 212q1 32 -9 42.5t-41 10.5q-4 0 -4.5 8t2.5 8q90 0 123 88q2 3 8 3q5 0 9.5 -2t4.5 -4v-82q41 2 130 8q5 0 8 -4t3 -8q-1 -11 -10.5 -24.5t-20.5 -12.5q-63 10 -110 12l-1 -238
q0 -35 16.5 -51.5t51.5 -16.5q44 0 88 38h1z" />
    <glyph glyph-name="u" unicode="u" horiz-adv-x="512" 
d="M509 81q4 0 7.5 -3.5t0.5 -6.5q-31 -43 -58.5 -61.5t-58.5 -18.5q-35 0 -51 21.5t-17 64.5v85q-21 -84 -61.5 -129.5t-96.5 -45.5q-48 0 -72.5 33t-23.5 99l4 178q1 47 -24 47q-10 0 -20.5 -8t-29.5 -27q-2 -2 -3 -2q-4 0 -7 3.5t-2 6.5q31 41 55.5 59.5t54.5 18.5
q34 0 52 -24t16 -74l-3 -159q-1 -94 47 -94q30 0 55.5 33.5t41.5 99.5t18 157v40q0 9 15 14.5t44 5.5q34 0 37 -8v-23q-2 -28 -2 -51l-1 -223q0 -49 25 -49q22 0 55 40q1 1 3 1z" />
    <glyph glyph-name="v" unicode="v" horiz-adv-x="476" 
d="M175 5.5q-32 18.5 -51.5 50t-19.5 66.5q0 23 6.5 45t21.5 61q16 40 20 54q4 11 4 18q0 5 -3 7.5t-10 2.5h-54q-38 0 -53.5 -9.5t-19.5 -32.5q0 -4 -7 -4q-3 0 -5.5 1.5t-1.5 4.5q9 48 18 71.5t26 34.5t50 11h102q10 0 11.5 -2t-1.5 -10q-13 -47 -21.5 -99t-8.5 -87
q0 -56 30 -90.5t73 -34.5q47 0 80 37.5t33 96.5q0 33 -12 52t-43 46q-17 15 -27.5 29.5t-10.5 32.5q0 19 13 28.5t35 9.5q47 0 66 -39.5t19 -100.5q0 -79 -27 -140.5t-71 -95t-94 -33.5q-35 0 -67 18.5z" />
    <glyph glyph-name="w" unicode="w" horiz-adv-x="680" 
d="M613.5 353q18.5 -43 18.5 -105q0 -77 -24 -136.5t-64 -92t-86 -32.5q-61 0 -102 59q-51 -59 -117 -59q-58 0 -94 35.5t-36 93.5q0 73 43 166q5 13 5 18q0 10 -14 10h-54q-38 0 -53.5 -9.5t-19.5 -32.5q0 -4 -7 -4q-3 0 -5.5 1.5t-1.5 4.5q9 48 18 71.5t26 34.5t50 11h102
q10 0 11.5 -2t-1.5 -10q-30 -111 -30 -180q0 -39 14 -69t36.5 -46t47.5 -16q30 0 58 23q-31 70 -31 170q0 71 16.5 103t51.5 32q31 0 46 -25.5t15 -82.5q0 -98 -37 -175q45 -45 97 -45q46 0 72.5 33.5t26.5 91.5q0 35 -12 57.5t-43 49.5q-18 15 -28.5 30t-10.5 32
q0 19 14 28.5t38 9.5q46 0 64.5 -43zM327 262q0 -27 12 -61.5t33 -64.5q14 27 22 56.5t8 54.5q0 56 -43 56q-32 0 -32 -41z" />
    <glyph glyph-name="x" unicode="x" horiz-adv-x="462" 
d="M454 75q4 0 7 -3.5t0 -6.5q-33 -39 -61.5 -57.5t-57.5 -18.5t-48.5 15.5t-42.5 55.5l-44 80l-39 -78q-23 -46 -37 -59.5t-37 -13.5q-29 0 -55.5 20.5t-27.5 45.5q-2 15 10 26t32 11q15 0 25 -4.5t21 -12.5q2 -1 11 -6.5t20 -5.5q12 0 22 20l43 79l-72 130
q-15 28 -29.5 37t-31.5 9q-15 0 -26 -6.5t-25 -20.5q-1 -1 -3 -1q-4 0 -7 3.5t0 5.5q33 39 61.5 57.5t57.5 18.5t48.5 -15t42.5 -55l39 -71l35 69q16 32 26.5 46.5t20.5 20t27 5.5q29 0 56 -20.5t27 -46.5q0 -14 -11 -25t-30 -11q-15 0 -25.5 4.5t-21.5 12.5q-9 7 -15 10
t-14 3q-13 0 -23 -20l-40 -71l77 -139q15 -28 29 -36.5t32 -8.5q15 0 26.5 6.5t24.5 20.5q1 1 3 1z" />
    <glyph glyph-name="y" unicode="y" horiz-adv-x="484" 
d="M420 392.5q9 -1.5 10 -4.5q0 -41 -2 -76l-2 -382q-2 -95 -56 -153t-148 -58q-41 0 -74.5 10t-51.5 27.5t-16 38.5q0 26 13 38.5t32 12.5q23 0 34.5 -11.5t23.5 -36.5q13 -28 28.5 -43t50.5 -15q33 0 51 36t18 130l1 253q-22 -83 -62.5 -127.5t-95.5 -44.5q-48 0 -72.5 33
t-23.5 99l4 178q1 47 -24 47q-10 0 -22 -8.5t-29 -26.5q-2 -2 -4 -2q-3 0 -5.5 3.5t-1.5 6.5q31 41 55.5 59.5t54.5 18.5q34 0 52 -24t16 -74l-3 -159q-1 -94 47 -94q29 0 53.5 32.5t41 95t19.5 148.5l1 60q0 6 13 10t36 4q29 0 38 -1.5z" />
    <glyph glyph-name="z" unicode="z" horiz-adv-x="372" 
d="M362 120q3 0 6 -1.5t2 -2.5q-6 -53 -13 -78t-18.5 -34t-32.5 -9q-36 0 -110 13q-9 1 -46 7t-66 7q-17 0 -29 -6t-26 -23q0 -1 -2 -1q-5 0 -10.5 5.5t-3.5 8.5l234 281q-20 1 -87 12q-55 11 -77 11q-42 0 -47 -35q-1 -5 -7 -4t-4 6q8 56 15 79.5t20 31t41 6.5
q18 -1 45.5 -5.5t38.5 -6.5q62 -12 103 -15q18 0 30 6t25 23q0 1 2 1q4 0 9.5 -5t4.5 -7l-233 -282q33 -1 106 -13q66 -10 83 -10q18 0 28 9t15 29q0 2 4 2z" />
    <glyph glyph-name="braceleft" unicode="{" horiz-adv-x="289" 
d="M29 304.5q0 6.5 3 6.5q35 6 46.5 64.5t11.5 153.5q0 86 13 126.5t45.5 55t101.5 14.5q4 0 4 -6t-4 -6q-26 0 -40 -27.5t-15 -78.5q-2 -122 -8.5 -172t-29.5 -78.5t-79 -51.5q56 -24 79 -53.5t29.5 -79.5t8.5 -171q1 -51 15 -78.5t40 -27.5q4 0 4 -6t-4 -6
q-69 0 -102 14.5t-45.5 55.5t-12.5 127q0 96 -11.5 154t-46.5 64q-3 0 -3 6.5z" />
    <glyph glyph-name="bar" unicode="|" horiz-adv-x="168" 
d="M62 731q0 7 24 7q23 0 23 -7v-885q0 -4 -7 -6t-16 -2q-10 0 -17 2t-7 6v885z" />
    <glyph glyph-name="braceright" unicode="}" horiz-adv-x="283" 
d="M204.5 234q-11.5 -58 -11.5 -154q0 -86 -12.5 -127t-45.5 -55.5t-102 -14.5q-4 0 -4 6t4 6q26 0 40 27.5t15 78.5q2 121 8.5 171t29.5 79.5t79 53.5q-56 23 -79 51.5t-29.5 78.5t-8.5 172q-1 51 -15 78.5t-40 27.5q-4 0 -4 6t4 6q69 0 101.5 -14.5t45.5 -55t13 -126.5
q0 -95 11.5 -153.5t46.5 -64.5q3 0 3 -6.5t-3 -6.5q-35 -6 -46.5 -64z" />
    <glyph glyph-name="asciitilde" unicode="~" horiz-adv-x="443" 
d="M357.5 222q15.5 10 31.5 28l2 1q2 0 4 -3t1 -5q-39 -62 -63 -83t-53 -21q-17 0 -31.5 4t-40.5 13q-46 19 -79 19q-24 0 -37 -7t-23.5 -17.5l-13.5 -13.5h-1q-2 0 -4.5 2.5t-1.5 4.5q63 104 123 104q13 0 29 -5t32 -11q25 -10 44 -15t39 -5q27 0 42.5 10z" />
    <glyph glyph-name="uni00A0" unicode="&#xa0;" horiz-adv-x="234" 
 />
    <glyph glyph-name="exclamdown" unicode="&#xa1;" horiz-adv-x="263" 
d="M182.5 348.5q16.5 -16.5 16.5 -44.5q0 -26 -16.5 -42t-44.5 -16t-43.5 15.5t-15.5 42.5q0 29 15.5 45t43.5 16t44.5 -16.5zM181 -271.5q-23 -3.5 -49 -3.5t-49.5 3.5t-21.5 10.5q22 76 32.5 166t21.5 228q0 10 2 32q0 5 17 5t17 -5q9 -148 19 -245.5t32 -180.5
q2 -7 -21 -10.5z" />
    <glyph glyph-name="cent" unicode="&#xa2;" horiz-adv-x="530" 
d="M480 143q5 -1 5 -4l-8 -106q-1 -8 -3 -11t-11 -7q-77 -27 -160 -27h-1v-90q0 -7 -14 -7q-15 0 -15 7v91q-85 6 -139.5 45t-79 93t-24.5 109q0 63 31.5 116t87 86t124.5 40v83q0 4 4.5 6t10.5 2t10 -2t4 -6v-81h6q37 0 80.5 -8t71.5 -21q7 -3 9 -6.5t2 -10.5l5 -103
q0 -3 -5 -4t-7 3q-37 64 -75.5 95t-86.5 33v-448q5 -1 16 -1q51 0 86.5 31t69.5 100q1 4 6 3zM180 101.5q31 -66.5 93 -86.5v441q-60 -9 -92 -64t-32 -141q0 -83 31 -149.5z" />
    <glyph glyph-name="sterling" unicode="&#xa3;" horiz-adv-x="432" 
d="M372 131q3 0 5.5 -1t2.5 -3q-9 -52 -9 -112q0 -8 -3.5 -11.5t-11.5 -3.5h-343q-3 0 -3 5.5t3 6.5q51 12 69.5 36.5t18.5 59.5q0 54 -17 107h-41q-3 0 -5 4.5t-2 10.5q0 5 2 9.5t5 4.5h31q-9 26 -13 44t-4 39q0 79 54 116t136 37q46 0 89 -13q15 -6 16 -19l7 -104
q0 -4 -5 -4q-4 0 -7 4q-34 61 -58.5 88.5t-62.5 27.5t-54 -27.5t-16 -69.5q0 -28 6 -53t19 -66h93q7 0 7 -14q0 -15 -7 -15h-85q9 -38 9 -66q0 -37 -12 -60t-33 -41h98q44 0 65.5 6t32.5 22.5t19 52.5q0 2 4 2z" />
    <glyph glyph-name="currency" unicode="&#xa4;" horiz-adv-x="414" 
d="M329 32l-49 55q-41 -22 -84 -22q-39 0 -68 17l-45 -50l-33 32l45 46q-34 40 -34 92q0 50 34 86l-49 50l37 35l52 -56q36 18 76 18q39 0 72 -19l52 54l31 -32l-49 -49q32 -38 32 -88q0 -48 -31 -84l49 -49zM258 113q16 24 16 67q0 53 -23.5 92t-62.5 39q-25 0 -40 -22.5
t-15 -65.5q0 -52 21 -93t61 -41q27 0 43 24z" />
    <glyph glyph-name="yen" unicode="&#xa5;" horiz-adv-x="498" 
d="M500 462q0 -6 -3 -6q-61 0 -111 -90l-76 -137v-16h91q4 0 6 -4t2 -9t-2 -9t-6 -4h-91v-45h91q4 0 6 -4t2 -9t-2 -9t-6 -4h-91v-35q0 -31 5 -45t20 -19t49 -5q2 0 2 -6t-2 -6q-33 0 -52 1l-75 1l-71 -1q-20 -1 -55 -1q-3 0 -3 6t3 6q33 0 48.5 5t21 19.5t5.5 44.5v35h-94
q-3 0 -5 4t-2 9t2 9t5 4h94v45h-94q-3 0 -5 4t-2 9t2 9t5 4h94v1l-110 171q-24 38 -45.5 54.5t-44.5 16.5q-3 0 -3 6t3 6l37 -1l40 -2q30 0 94 2l63 1q2 0 2 -6t-2 -6q-49 0 -49 -25q0 -12 13 -31l93 -145l61 112q15 27 15 48q0 19 -12.5 30t-38.5 11q-3 0 -3 6t3 6l48 -1
q40 -2 73 -2q12 0 30 2l24 1q3 0 3 -6z" />
    <glyph glyph-name="brokenbar" unicode="&#xa6;" horiz-adv-x="168" 
d="M62 731q0 7 24 7q23 0 23 -7v-371q0 -3 -7 -5t-16 -2t-16.5 2t-7.5 5v371zM62 216q0 4 7 6t17 2q9 0 16 -2t7 -6v-370q0 -4 -7 -6t-16 -2q-10 0 -17 2t-7 6v370z" />
    <glyph glyph-name="section" unicode="&#xa7;" horiz-adv-x="488" 
d="M398 -58q0 -63 -50 -96.5t-120 -33.5q-50 0 -86 18q-11 7 -11 17l-8 117q0 2 5.5 2t6.5 -2l19.5 -39t47 -62.5t59.5 -27.5q23 0 37 17t14 50q0 35 -14.5 60.5t-36 43t-58.5 42.5q-40 26 -64 46.5t-40.5 51.5t-16.5 73q0 35 16.5 65t59.5 66q-41 41 -41 92q0 63 50 96.5
t120 33.5q51 0 86 -19q11 -5 11 -16l8 -117q0 -3 -5.5 -3t-6.5 3q-2 3 -19.5 38.5t-47 63t-59.5 27.5q-24 0 -38 -17t-14 -50q0 -35 15 -60.5t37 -44t58 -41.5q40 -27 64 -47.5t40.5 -51t16.5 -72.5q0 -35 -16.5 -65t-60.5 -66q42 -40 42 -92zM176 189q18 -33 44 -55t68 -49
q10 -7 26.5 -18.5t26.5 -19.5q16 26 16 69q0 45 -18 78t-43 54t-68 50q-33 21 -55 39q-15 -26 -15 -69q0 -46 18 -79z" />
    <glyph glyph-name="dieresis" unicode="&#xa8;" horiz-adv-x="275" 
d="M11 478.5q-15 14.5 -15 40.5q0 24 15 38t40 14t39 -14t14 -38q0 -26 -14 -40.5t-39 -14.5t-40 14.5zM186 478.5q-14 14.5 -14 40.5q0 24 14.5 37.5t39.5 13.5q24 0 37.5 -13.5t13.5 -37.5q0 -26 -13.5 -40.5t-37.5 -14.5q-26 0 -40 14.5z" />
    <glyph glyph-name="copyright" unicode="&#xa9;" horiz-adv-x="727" 
d="M222.5 -71q-72.5 35 -115.5 101.5t-43 156.5q0 91 49 163t129.5 112.5t169.5 40.5q78 0 138 -32.5t92.5 -86.5t32.5 -116q0 -59 -34 -111.5t-94.5 -85t-135.5 -32.5q-94 0 -139 46t-45 110q0 52 25.5 90t66 58.5t85.5 20.5q42 0 74.5 -15.5t32.5 -45.5q0 -42 -43 -42
q-15 0 -25 9.5t-18 26.5q-12 22 -23 32.5t-31 10.5q-31 0 -42 -26t-11 -84q0 -71 36 -117t110 -46q37 0 70.5 21t53.5 59.5t20 88.5q0 67 -30 123t-83 88.5t-118 32.5q-74 0 -128.5 -36t-82.5 -97t-28 -134q0 -86 34.5 -150t97.5 -99t148 -35q51 0 94.5 11t89.5 40h1
q3 0 5.5 -3.5t-0.5 -4.5q-56 -44 -111.5 -61t-115.5 -17q-86 0 -158.5 35z" />
    <glyph glyph-name="ordfeminine" unicode="&#xaa;" horiz-adv-x="292" 
d="M291 426q3 0 6 -2.5t2 -3.5q-39 -56 -78 -56q-44 0 -44 62l-1 27q-18 -46 -47.5 -69t-63.5 -23q-26 0 -42 20.5t-16 61.5q0 42 22.5 86.5t57.5 74t72 29.5q30 0 52 -16q12 11 17 20q1 2 5 1t4 -3l-2 -209q0 -30 14 -30q16 0 41 30h1zM147.5 440q21.5 34 27.5 75v10l2 1
v14q1 29 -12 45t-35 16q-33 0 -50.5 -30.5t-18.5 -80.5q0 -44 11 -64t27 -20q27 0 48.5 34zM272 297q0 -14 -4 -14h-248q-2 0 -3.5 5t-1.5 11q0 5 1.5 9.5t2.5 4.5h248q5 0 5 -16z" />
    <glyph glyph-name="guillemotleft" unicode="&#xab;" horiz-adv-x="475" 
d="M53 189q-4 4 -4 12q0 7 4 11l188 149q0 1 2 1t4 -2.5t1 -3.5l-92 -155l92 -155q1 -2 -2.5 -5.5t-4.5 -0.5zM223 189q-4 6 -4 12q0 5 4 11l189 149q0 1 2 1t4 -2.5t1 -3.5l-93 -155l93 -155q1 -2 -2.5 -5.5t-4.5 -0.5z" />
    <glyph glyph-name="logicalnot" unicode="&#xac;" horiz-adv-x="395" 
d="M364 77q0 -2 -8 -3.5t-17 -1.5q-8 0 -15 1t-7 3v149h-283q-2 0 -3.5 8t-1.5 17q0 8 1 14.5t3 6.5h331v-194z" />
    <glyph glyph-name="uni00AD" unicode="&#xad;" horiz-adv-x="323" 
d="M28.5 166q-1.5 10 -1.5 21q0 23 3 24l261 46q2 1 3.5 -7.5t1.5 -18.5t-1.5 -18t-3.5 -9l-259 -47q-2 -1 -3.5 9z" />
    <glyph glyph-name="registered" unicode="&#xae;" horiz-adv-x="740" 
d="M550 689.5q66 -35.5 102 -98t36 -140.5q0 -86 -43 -157.5t-117.5 -113.5t-163.5 -42q-77 0 -146 35t-111.5 99t-42.5 147q0 92 46 161.5t122.5 107t165.5 37.5q86 0 152 -35.5zM565.5 234q55.5 70 55.5 184q0 88 -33 152t-92.5 97.5t-136.5 33.5q-79 0 -131.5 -33.5
t-77 -88.5t-24.5 -123q0 -84 36.5 -150.5t99.5 -104t140 -37.5q108 0 163.5 70zM563 277.5q0 -3.5 -2 -3.5h-98q-9 0 -29.5 38t-60.5 122q-24 -2 -37 -2v-102q0 -30 7.5 -37.5t34.5 -7.5q2 0 2 -5.5t-2 -5.5l-73 1l-71 -1q-1 0 -1 5.5t1 5.5q15 0 21 3t8 12t2 30v215
q0 28 -5.5 36t-25.5 8q-1 0 -1 6t1 6l71 -1q12 0 44 2q28 2 38 2q51 0 76 -16.5t25 -52.5q0 -29 -15 -50.5t-41 -33.5q36 -75 64 -111.5t65 -57.5q2 -1 2 -4.5zM398.5 458.5q16.5 14.5 16.5 56.5q0 76 -44 76q-15 0 -22 -2.5t-10 -12.5t-3 -33v-96q46 -3 62.5 11.5z" />
    <glyph glyph-name="macron" unicode="&#xaf;" horiz-adv-x="333" 
d="M47 479q-3 6 -3 14t3 14t7 6h228q5 0 8 -6t3 -14t-3 -14t-8 -6h-228q-4 0 -7 6z" />
    <glyph glyph-name="degree" unicode="&#xb0;" horiz-adv-x="332" 
d="M67.5 410q-38.5 37 -38.5 93q0 53 38.5 90t99.5 37t98.5 -37t37.5 -92t-37.5 -91.5t-98.5 -36.5t-99.5 37zM217 413q10 26 10 81q0 62 -16 92t-50 30q-32 0 -43.5 -28t-11.5 -82q0 -57 15 -88t53 -31q33 0 43 26z" />
    <glyph glyph-name="plusminus" unicode="&#xb1;" horiz-adv-x="398" 
d="M30.5 236q-1.5 8 -1.5 18q0 9 1 16t3 7h141v141q0 4 25 4q24 0 24 -4v-141h141q2 0 3.5 -7.5t1.5 -16.5t-1.5 -17t-3.5 -8h-141v-140q0 -2 -8 -3.5t-18 -1.5q-9 0 -16 1t-7 3v141h-140q-2 0 -3.5 8zM367.5 37.5q1.5 -6.5 1.5 -14.5t-1.5 -15t-3.5 -7h-330q-2 0 -3.5 7.5
t-1.5 15.5q0 7 1.5 13.5t2.5 6.5h331q2 0 3.5 -6.5z" />
    <glyph glyph-name="uni00B2" unicode="&#xb2;" horiz-adv-x="253" 
d="M50 488.5q18 29.5 45 59.5q24 27 34.5 46t10.5 50q0 58 -41 58q-22 0 -38.5 -14t-23.5 -37q0 -2 -4 -2q-3 0 -5.5 1.5t-1.5 3.5q11 35 34 55.5t67 20.5t66 -20.5t22 -53.5t-20 -56.5t-59 -52.5q-31 -23 -48.5 -40t-24.5 -39q-1 -4 2 -4q62 0 92.5 3t43 11.5t12.5 25.5
q0 2 6 2t6 -2l-2 -96q0 -4 -4 -4h-196q-5 0 -3 5q12 50 30 79.5z" />
    <glyph glyph-name="uni00B3" unicode="&#xb3;" horiz-adv-x="251" 
d="M209 549q20 -20 20 -50q0 -24 -13 -47.5t-38.5 -38.5t-61.5 -15q-39 0 -61 18t-34 51q-1 3 5 4.5t7 -2.5q10 -21 27.5 -32.5t38.5 -11.5q23 0 38.5 16.5t15.5 53.5q0 70 -75 70q-2 0 -3.5 1.5t-1.5 3.5t1.5 4.5t3.5 2.5q30 0 46 18t16 49q0 29 -11.5 42t-30.5 13
q-22 0 -38.5 -14.5t-20.5 -33.5q-2 -2 -5 -2t-5.5 1.5t-1.5 3.5q10 35 34.5 55.5t65.5 20.5q43 0 66 -21t23 -53q0 -26 -17.5 -48t-42.5 -32q33 -7 53 -27z" />
    <glyph glyph-name="acute" unicode="&#xb4;" horiz-adv-x="212" 
d="M66 471q-3 0 -6 2t-2 3l33 240q1 6 27.5 11t50.5 5q23 0 20 -5l-119 -254q-2 -2 -4 -2z" />
    <glyph glyph-name="paragraph" unicode="&#xb6;" horiz-adv-x="657" 
d="M284.5 -177.5q-24.5 15.5 -24.5 44.5q0 20 12.5 32.5t37.5 12.5q28 0 36.5 -13.5t11.5 -39.5q2 -17 5.5 -25t14.5 -8q20 0 27.5 38.5t7.5 143.5v117q-19 -3 -45 -3q-80 0 -151 26t-117 85t-46 153q0 119 76.5 180.5t211.5 61.5q30 0 64 -3q75 -3 84 -3q20 0 58 2l52 1
q3 0 3 -6t-3 -6q-43 0 -66 -21t-23 -60l1 -477q0 -129 -37.5 -188.5t-121.5 -59.5q-44 0 -68.5 15.5z" />
    <glyph glyph-name="periodcentered" unicode="&#xb7;" horiz-adv-x="195" 
d="M52.5 157.5q-16.5 16.5 -16.5 44.5q0 26 16.5 42t44.5 16t43.5 -15.5t15.5 -42.5q0 -29 -15.5 -45t-43.5 -16t-44.5 16.5z" />
    <glyph glyph-name="cedilla" unicode="&#xb8;" horiz-adv-x="196" 
d="M24.5 -260q-26.5 15 -26.5 38q-1 17 9 25.5t26 8.5q18 0 27.5 -9.5t18.5 -27.5q9 -17 15.5 -24t18.5 -7t17.5 6.5t4.5 17.5q-2 17 -19.5 40t-47.5 54q-13 13 -13 33q0 16 9 45l19 60h16q-4 -12 -4 -24q0 -22 11 -37.5t38 -42.5q25 -26 36 -45t11 -38q1 -19 -10 -39.5
t-34.5 -34.5t-59.5 -14t-62.5 15z" />
    <glyph glyph-name="uni00B9" unicode="&#xb9;" horiz-adv-x="262" 
d="M35 409.5q0 5.5 2 5.5q31 0 43.5 4.5t16.5 18t4 46.5v118q0 41 -4 56t-18 15q-11 0 -46 -15h-1q-4 0 -6 5t1 6l136 60h2q3 0 5.5 -2.5t2.5 -4.5v-238q0 -34 3.5 -47.5t15.5 -17.5t41 -4q2 0 2 -5.5t-2 -5.5q-26 0 -41 1l-54 1l-58 -1q-16 -1 -43 -1q-2 0 -2 5.5z" />
    <glyph glyph-name="ordmasculine" unicode="&#xba;" horiz-adv-x="284" 
d="M39 398.5q-33 40.5 -31 98.5q0 58 37 95.5t94 37.5q58 0 90.5 -37t32.5 -95q0 -44 -18.5 -75.5t-49 -48t-64.5 -16.5q-58 0 -91 40.5zM186 401.5q13 24.5 13 68.5q0 58 -23 100t-56 42q-46 0 -49 -88q0 -61 22.5 -104t55.5 -43q24 0 37 24.5zM20 299q0 14 3 14h244
q2 0 3.5 -4.5t1.5 -9.5q0 -6 -1.5 -11t-3.5 -5h-242q-5 0 -5 16z" />
    <glyph glyph-name="guillemotright" unicode="&#xbb;" horiz-adv-x="475" 
d="M251 212q5 -5 5 -11q0 -7 -5 -12l-188 -149q0 -1 -2 -1t-4 2.5t-1 4.5l93 154l-93 156q-1 2 2.5 5t4.5 0zM422 212q5 -5 5 -11q0 -7 -5 -12l-188 -149q0 -1 -2 -1t-4 2.5t-1 4.5l92 154l-92 156q-1 2 2.5 5t4.5 0z" />
    <glyph glyph-name="onequarter" unicode="&#xbc;" horiz-adv-x="607" 
d="M35 314.5q0 5.5 2 5.5q31 0 43.5 4.5t16.5 18t4 46.5v119q0 41 -4 56t-18 15q-7 0 -19.5 -4.5t-26.5 -10.5h-2q-3 0 -5 4.5t1 5.5l136 60h2q3 0 5.5 -2.5t2.5 -4.5v-238q0 -34 3.5 -47.5t15.5 -17.5t41 -4q2 0 2 -5.5t-2 -5.5q-26 0 -41 1l-54 1l-58 -1q-16 -1 -43 -1
q-2 0 -2 5.5zM172 4q-16 8 -15 10l279 616q2 4 18 -3.5t15 -10.5l-280 -617q-1 -3 -17 5zM547 90v-49q0 -14 2 -19.5t10 -8t27 -2.5q1 -2 1 -6t-1 -6l-70 1l-88 -1q-1 0 -1 6t1 6q23 0 33 2t13.5 8t3.5 20v51q-70 2 -126 2q-4 0 -6 4t1 7l166 215q3 4 16 4q7 0 12.5 -1.5
t5.5 -3.5v-206l39 2q3 0 3 -13q0 -14 -3 -14zM478 110v129l-96 -127q-3 -3 2 -3z" />
    <glyph glyph-name="onehalf" unicode="&#xbd;" horiz-adv-x="612" 
d="M35 314.5q0 5.5 2 5.5q31 0 43.5 4.5t16.5 18t4 46.5v119q0 41 -4 56t-18 15q-7 0 -19.5 -4.5t-26.5 -10.5h-2q-3 0 -5 4.5t1 5.5l136 60h2q3 0 5.5 -2.5t2.5 -4.5v-238q0 -34 3.5 -47.5t15.5 -17.5t41 -4q2 0 2 -5.5t-2 -5.5q-26 0 -41 1l-54 1l-58 -1q-16 -1 -43 -1
q-2 0 -2 5.5zM172 4q-16 8 -15 10l279 616q2 4 18 -3.5t15 -10.5l-280 -617q-1 -3 -17 5zM408.5 84q17.5 29 45.5 61q23 25 34 45t11 51q0 57 -41 57q-22 0 -38.5 -14t-23.5 -36q0 -3 -4 -3q-3 0 -5.5 1.5t-1.5 3.5q11 35 34 55.5t67 20.5t66 -20t22 -53t-20 -56.5
t-59 -52.5q-32 -25 -49 -41.5t-24 -38.5q-1 -3 2 -3q62 0 92.5 3t43 11.5t12.5 25.5q0 2 6 2t6 -2l-2 -96q0 -5 -4 -5h-196q-4 0 -3 6q12 49 29.5 78z" />
    <glyph glyph-name="threequarters" unicode="&#xbe;" horiz-adv-x="596" 
d="M208.5 454q20.5 -20 20.5 -49q0 -24 -12.5 -47.5t-38.5 -39t-62 -15.5q-39 0 -61 18t-34 51q-1 4 5 5t7 -3q10 -21 27.5 -32.5t38.5 -11.5q23 0 38.5 16.5t15.5 53.5q0 70 -75 70q-2 0 -3.5 1.5t-1.5 3.5t1.5 4.5t3.5 2.5q30 0 46 18.5t16 49.5q0 28 -11.5 41.5
t-30.5 13.5q-21 0 -38 -15t-21 -33q-1 -3 -5 -3q-3 0 -5.5 1.5t-1.5 3.5q9 36 34 56t66 20q43 0 66 -21t23 -53q0 -27 -17.5 -48t-42.5 -32q32 -7 52.5 -27zM161 4q-16 8 -15 10l279 616q2 4 18 -3.5t15 -10.5l-280 -617q-1 -3 -17 5zM536 90v-49q0 -14 2 -19.5t10 -8
t27 -2.5q1 -2 1 -6t-1 -6l-70 1l-88 -1q-1 0 -1 6t1 6q23 0 33 2t13.5 8t3.5 20v51q-70 2 -126 2q-4 0 -6 4t1 7l166 215q3 4 16 4q7 0 12.5 -1.5t5.5 -3.5v-206l39 2q3 0 3 -13q0 -14 -3 -14zM467 110v129l-96 -127q-3 -3 2 -3z" />
    <glyph glyph-name="questiondown" unicode="&#xbf;" horiz-adv-x="327" 
d="M218.5 344.5q16.5 -16.5 16.5 -44.5q0 -26 -16.5 -42t-44.5 -16t-43.5 15.5t-15.5 42.5q0 29 15.5 45t43.5 16t44.5 -16.5zM182 -245q6 11 8 30q2 28 13.5 48.5t43.5 20.5q26 0 38 -14t12 -33q0 -35 -38.5 -58.5t-96.5 -23.5q-65 0 -109.5 31t-44.5 88q0 38 19 62.5
t56 54.5l22 18q31 27 45 56.5t14 66.5q0 15 -5 53q-1 3 7 5t9 -1q12 -27 19 -62t7 -59q0 -30 -9.5 -49.5t-28.5 -43.5q-21 -26 -32.5 -50.5t-11.5 -63.5q0 -38 11.5 -62.5t31.5 -24.5q14 0 20 11z" />
    <glyph glyph-name="Agrave" unicode="&#xc0;" horiz-adv-x="654" 
d="M663 6q0 -6 -3 -6q-18 0 -56 2q-42 2 -67 2q-26 0 -64 -2q-36 -2 -53 -2q-4 0 -4 6t4 6q30 0 43 6.5t13 23.5q0 15 -12 42l-88 211h-158l-68 -166q-16 -38 -16 -61q0 -29 23 -42.5t71 -13.5q4 0 4 -6t-5 -6q-13 0 -57 2q-50 2 -76 2q-24 0 -56 -2q-28 -2 -46 -2
q-4 0 -4 6t4 6q30 0 65.5 32.5t61.5 91.5l211 498q0 3 7 3q9 0 13 -4l224 -549q15 -35 22.5 -47t21.5 -18.5t42 -6.5q3 0 3 -6zM230 323h135l-68 163zM341 725.5q-41 12.5 -106 30.5q-13 3 5 12.5t47 17.5t45 8q5 0 9 -2q24 -23 68 -60l37 -31q2 -1 2 -4t-3 -4.5t-6 -0.5
q-57 21 -98 33.5z" />
    <glyph glyph-name="Aacute" unicode="&#xc1;" horiz-adv-x="654" 
d="M663 6q0 -6 -3 -6q-18 0 -56 2q-42 2 -67 2q-26 0 -64 -2q-36 -2 -53 -2q-4 0 -4 6t4 6q30 0 43 6.5t13 23.5q0 15 -12 42l-88 211h-158l-68 -166q-16 -38 -16 -61q0 -29 23 -42.5t71 -13.5q4 0 4 -6t-5 -6q-13 0 -57 2q-50 2 -76 2q-24 0 -56 -2q-28 -2 -46 -2
q-4 0 -4 6t4 6q30 0 65.5 32.5t61.5 91.5l211 498q0 3 7 3q9 0 13 -4l224 -549q15 -35 22.5 -47t21.5 -18.5t42 -6.5q3 0 3 -6zM230 323h135l-68 163zM275 678q-4 0 -6 4.5t1 6.5q25 20 66 63l41 41q5 5 36.5 -3.5t57 -20t14.5 -13.5q-107 -28 -208 -77z" />
    <glyph glyph-name="Acircumflex" unicode="&#xc2;" horiz-adv-x="654" 
d="M663 6q0 -6 -3 -6q-18 0 -56 2q-42 2 -67 2q-26 0 -64 -2q-36 -2 -53 -2q-4 0 -4 6t4 6q30 0 43 6.5t13 23.5q0 15 -12 42l-88 211h-158l-68 -166q-16 -38 -16 -61q0 -29 23 -42.5t71 -13.5q4 0 4 -6t-5 -6q-13 0 -57 2q-50 2 -76 2q-24 0 -56 -2q-28 -2 -46 -2
q-4 0 -4 6t4 6q30 0 65.5 32.5t61.5 91.5l211 498q0 3 7 3q9 0 13 -4l224 -549q15 -35 22.5 -47t21.5 -18.5t42 -6.5q3 0 3 -6zM230 323h135l-68 163zM235 660q-3 0 -5.5 2.5t-0.5 4.5l95 115q3 5 8 5t10 -5l104 -115q2 -2 -0.5 -5.5t-4.5 -1.5l-102 38l-103 -38h-1z" />
    <glyph glyph-name="Atilde" unicode="&#xc3;" horiz-adv-x="654" 
d="M663 6q0 -6 -3 -6q-18 0 -56 2q-42 2 -67 2q-26 0 -64 -2q-36 -2 -53 -2q-4 0 -4 6t4 6q30 0 43 6.5t13 23.5q0 15 -12 42l-88 211h-158l-68 -166q-16 -38 -16 -61q0 -29 23 -42.5t71 -13.5q4 0 4 -6t-5 -6q-13 0 -57 2q-50 2 -76 2q-24 0 -56 -2q-28 -2 -46 -2
q-4 0 -4 6t4 6q30 0 65.5 32.5t61.5 91.5l211 498q0 3 7 3q9 0 13 -4l224 -549q15 -35 22.5 -47t21.5 -18.5t42 -6.5q3 0 3 -6zM230 323h135l-68 163zM212 685q-2 0 -4.5 3t-1.5 5q36 81 85 81q10 0 48 -10q19 -6 39.5 -10.5t36.5 -4.5q21 0 33.5 6t25.5 21h1q3 0 5.5 -2.5
t1.5 -4.5q-21 -48 -38 -64.5t-43 -16.5q-16 0 -58 12q-17 5 -36 9t-34 4q-25 0 -34.5 -5.5t-24.5 -21.5q0 -1 -2 -1z" />
    <glyph glyph-name="Adieresis" unicode="&#xc4;" horiz-adv-x="654" 
d="M663 6q0 -6 -3 -6q-18 0 -56 2q-42 2 -67 2q-26 0 -64 -2q-36 -2 -53 -2q-4 0 -4 6t4 6q30 0 43 6.5t13 23.5q0 15 -12 42l-88 211h-158l-68 -166q-16 -38 -16 -61q0 -29 23 -42.5t71 -13.5q4 0 4 -6t-5 -6q-13 0 -57 2q-50 2 -76 2q-24 0 -56 -2q-28 -2 -46 -2
q-4 0 -4 6t4 6q30 0 65.5 32.5t61.5 91.5l211 498q0 3 7 3q9 0 13 -4l224 -549q15 -35 22.5 -47t21.5 -18.5t42 -6.5q3 0 3 -6zM230 323h135l-68 163zM208 717.5q-15 14.5 -15 40.5q0 24 15 38t40 14t39 -14t14 -38q0 -26 -14 -40.5t-39 -14.5t-40 14.5zM383 717.5
q-14 14.5 -14 40.5q0 24 14.5 37.5t39.5 13.5q24 0 37.5 -13.5t13.5 -37.5q0 -26 -13.5 -40.5t-37.5 -14.5q-26 0 -40 14.5z" />
    <glyph glyph-name="Aring" unicode="&#xc5;" horiz-adv-x="654" 
d="M663 6q0 -6 -3 -6q-18 0 -56 2q-42 2 -67 2q-26 0 -64 -2q-36 -2 -53 -2q-4 0 -4 6t4 6q30 0 43 6.5t13 23.5q0 15 -12 42l-88 211h-158l-68 -166q-16 -38 -16 -61q0 -29 23 -42.5t71 -13.5q4 0 4 -6t-5 -6q-13 0 -57 2q-50 2 -76 2q-24 0 -56 -2q-28 -2 -46 -2
q-4 0 -4 6t4 6q30 0 65.5 32.5t61.5 91.5l211 498q0 3 7 3q9 0 13 -4l224 -549q15 -35 22.5 -47t21.5 -18.5t42 -6.5q3 0 3 -6zM230 323h135l-68 163zM250.5 683q-28.5 23 -28.5 56q0 36 35.5 56.5t80.5 20.5q44 0 75 -23t31 -56q0 -35 -35.5 -56t-80.5 -21q-49 0 -77.5 23z
M363.5 685q6.5 11 6.5 34q0 34 -15 58.5t-37 24.5q-13 0 -18.5 -10.5t-5.5 -32.5q0 -33 13.5 -59t36.5 -26q13 0 19.5 11z" />
    <glyph glyph-name="AE" unicode="&#xc6;" horiz-adv-x="837" 
d="M792 161q3 0 6 -1.5t2 -2.5q-9 -50 -9 -142q0 -8 -3.5 -11.5t-12.5 -3.5h-412q-5 0 -5 6t5 6q36 0 48.5 9.5t12.5 38.5q0 13 -1 21l-12 230h-147l-106 -188q-13 -23 -13 -44q0 -30 25.5 -48.5t69.5 -18.5q5 0 5 -6t-5 -6q-17 0 -75 2q-64 2 -92 2q-24 0 -58 -2
q-30 -2 -48 -2q-5 0 -5 6t5 6q46 0 83 26t76 97l245 442q10 18 10 23q0 10 -14.5 11.5t-65.5 1.5q-5 0 -5 6t5 6h446q4 0 5.5 -2t1.5 -7q3 -58 3 -134q0 -3 -4 -3q-7 0 -9 4q-16 59 -61 93.5t-106 34.5h-19q-28 0 -40 -16.5t-10 -51.5l11 -204h97q51 0 74.5 17.5t25.5 58.5
q0 4 6 4q3 0 5.5 -1.5t2.5 -3.5q-1 -43 -1 -89l1 -83q1 -6 1 -20q0 -4 -6 -4q-3 0 -5.5 1.5t-2.5 3.5q-1 43 -28 65.5t-75 22.5h-93l12 -226q2 -30 7 -43.5t18 -18.5t41 -5h14q57 0 104 38t70 103q2 2 5 2zM280 339h130l-11 212z" />
    <glyph glyph-name="Ccedilla" unicode="&#xc7;" horiz-adv-x="635" 
d="M586 163q6 0 6 -6l-6 -115q-2 -13 -4 -16.5t-11 -6.5q-88 -31 -184 -31h-1q-1 -4 -1 -12q0 -22 11 -37.5t38 -42.5q25 -26 36 -45t11 -38q1 -19 -10 -39.5t-34.5 -34.5t-59.5 -14t-62.5 15t-26.5 38q-1 17 9 25.5t26 8.5q18 0 27.5 -9.5t18.5 -27.5q9 -17 15.5 -24
t18.5 -7t17.5 6.5t4.5 17.5q-2 17 -19.5 40t-47.5 54q-13 13 -13 33q0 16 9 45l15 48q-117 4 -191.5 52t-108 120.5t-33.5 152.5q0 99 48.5 172.5t129 112t174.5 38.5q46 0 96 -8.5t81 -20.5q8 -5 10.5 -9t2.5 -14l7 -134q0 -3 -4.5 -3t-6.5 3q-37 76 -94.5 117.5
t-130.5 41.5q-95 0 -145.5 -69t-50.5 -194q0 -90 31.5 -168t85.5 -124t119 -46q103 0 192 152q2 3 5 3z" />
    <glyph glyph-name="Egrave" unicode="&#xc8;" horiz-adv-x="572" 
d="M527 161q3 0 6 -1.5t2 -2.5q-10 -65 -10 -142q0 -8 -3 -11.5t-12 -3.5h-456q-4 0 -4 6t3 6q30 0 43.5 5t18 19t4.5 45v463q0 30 -5 44t-19 19.5t-42 5.5q-3 0 -3.5 6t1.5 6h431q8 0 8 -9l2 -132q0 -3 -5.5 -3t-6.5 2q-17 56 -61.5 88.5t-105.5 32.5h-19q-31 0 -44.5 -4.5
t-17.5 -16.5t-5 -40v-204h125q51 0 75 18t24 58q0 4 7 4t7 -5l-1 -55q-1 -12 -1 -34q0 -32 1 -48l1 -54q0 -5 -6 -5q-3 0 -5.5 1.5t-2.5 3.5q0 43 -26.5 65.5t-74.5 22.5h-123v-226q0 -40 12.5 -52t52.5 -12h28q65 0 119 37.5t83 100.5q2 2 5 2zM300 725.5
q-41 12.5 -106 30.5q-13 3 5 12.5t47 17.5t45 8q5 0 9 -2q24 -23 68 -60l37 -31q2 -1 2 -4t-3 -4.5t-6 -0.5q-57 21 -98 33.5z" />
    <glyph glyph-name="Eacute" unicode="&#xc9;" horiz-adv-x="572" 
d="M527 161q3 0 6 -1.5t2 -2.5q-10 -65 -10 -142q0 -8 -3 -11.5t-12 -3.5h-456q-4 0 -4 6t3 6q30 0 43.5 5t18 19t4.5 45v463q0 30 -5 44t-19 19.5t-42 5.5q-3 0 -3.5 6t1.5 6h431q8 0 8 -9l2 -132q0 -3 -5.5 -3t-6.5 2q-17 56 -61.5 88.5t-105.5 32.5h-19q-31 0 -44.5 -4.5
t-17.5 -16.5t-5 -40v-204h125q51 0 75 18t24 58q0 4 7 4t7 -5l-1 -55q-1 -12 -1 -34q0 -32 1 -48l1 -54q0 -5 -6 -5q-3 0 -5.5 1.5t-2.5 3.5q0 43 -26.5 65.5t-74.5 22.5h-123v-226q0 -40 12.5 -52t52.5 -12h28q65 0 119 37.5t83 100.5q2 2 5 2zM234 678q-4 0 -6 4.5t1 6.5
q25 20 66 63l41 41q5 5 36.5 -3.5t57 -20t14.5 -13.5q-107 -28 -208 -77z" />
    <glyph glyph-name="Ecircumflex" unicode="&#xca;" horiz-adv-x="572" 
d="M527 161q3 0 6 -1.5t2 -2.5q-10 -65 -10 -142q0 -8 -3 -11.5t-12 -3.5h-456q-4 0 -4 6t3 6q30 0 43.5 5t18 19t4.5 45v463q0 30 -5 44t-19 19.5t-42 5.5q-3 0 -3.5 6t1.5 6h431q8 0 8 -9l2 -132q0 -3 -5.5 -3t-6.5 2q-17 56 -61.5 88.5t-105.5 32.5h-19q-31 0 -44.5 -4.5
t-17.5 -16.5t-5 -40v-204h125q51 0 75 18t24 58q0 4 7 4t7 -5l-1 -55q-1 -12 -1 -34q0 -32 1 -48l1 -54q0 -5 -6 -5q-3 0 -5.5 1.5t-2.5 3.5q0 43 -26.5 65.5t-74.5 22.5h-123v-226q0 -40 12.5 -52t52.5 -12h28q65 0 119 37.5t83 100.5q2 2 5 2zM194 660q-3 0 -5.5 2.5
t-0.5 4.5l95 115q3 5 8 5t10 -5l104 -115q2 -2 -0.5 -5.5t-4.5 -1.5l-102 38l-103 -38h-1z" />
    <glyph glyph-name="Edieresis" unicode="&#xcb;" horiz-adv-x="572" 
d="M527 161q3 0 6 -1.5t2 -2.5q-10 -65 -10 -142q0 -8 -3 -11.5t-12 -3.5h-456q-4 0 -4 6t3 6q30 0 43.5 5t18 19t4.5 45v463q0 30 -5 44t-19 19.5t-42 5.5q-3 0 -3.5 6t1.5 6h431q8 0 8 -9l2 -132q0 -3 -5.5 -3t-6.5 2q-17 56 -61.5 88.5t-105.5 32.5h-19q-31 0 -44.5 -4.5
t-17.5 -16.5t-5 -40v-204h125q51 0 75 18t24 58q0 4 7 4t7 -5l-1 -55q-1 -12 -1 -34q0 -32 1 -48l1 -54q0 -5 -6 -5q-3 0 -5.5 1.5t-2.5 3.5q0 43 -26.5 65.5t-74.5 22.5h-123v-226q0 -40 12.5 -52t52.5 -12h28q65 0 119 37.5t83 100.5q2 2 5 2zM167 717.5
q-15 14.5 -15 40.5q0 24 15 38t40 14t39 -14t14 -38q0 -26 -14 -40.5t-39 -14.5t-40 14.5zM342 717.5q-14 14.5 -14 40.5q0 24 14.5 37.5t39.5 13.5q24 0 37.5 -13.5t13.5 -37.5q0 -26 -13.5 -40.5t-37.5 -14.5q-26 0 -40 14.5z" />
    <glyph glyph-name="Igrave" unicode="&#xcc;" horiz-adv-x="358" 
d="M54 6q0 6 2 6q31 0 44.5 5t18.5 19t5 45v463q0 29 -5.5 43.5t-19.5 20t-43 5.5q-2 0 -2.5 6t2.5 6l50 -1q44 -2 71 -2q30 0 76 2l49 1q2 0 2 -6t-2 -6q-30 0 -44 -6t-18.5 -20t-5.5 -45v-461q0 -30 5.5 -44t19.5 -19.5t43 -5.5q2 0 2 -6t-2 -6q-31 0 -50 1l-73 1l-71 -1
q-19 -1 -52 -1q-2 0 -2 6zM180 725.5q-41 12.5 -106 30.5q-13 3 5 12.5t47 17.5t45 8q5 0 9 -2q24 -23 68 -60l37 -31q2 -1 2 -4t-3 -4.5t-6 -0.5q-57 21 -98 33.5z" />
    <glyph glyph-name="Iacute" unicode="&#xcd;" horiz-adv-x="358" 
d="M54 6q0 6 2 6q31 0 44.5 5t18.5 19t5 45v463q0 29 -5.5 43.5t-19.5 20t-43 5.5q-2 0 -2.5 6t2.5 6l50 -1q44 -2 71 -2q30 0 76 2l49 1q2 0 2 -6t-2 -6q-30 0 -44 -6t-18.5 -20t-5.5 -45v-461q0 -30 5.5 -44t19.5 -19.5t43 -5.5q2 0 2 -6t-2 -6q-31 0 -50 1l-73 1l-71 -1
q-19 -1 -52 -1q-2 0 -2 6zM114 678q-4 0 -6 4.5t1 6.5q25 20 66 63l41 41q5 5 36.5 -3.5t57 -20t14.5 -13.5q-107 -28 -208 -77z" />
    <glyph glyph-name="Icircumflex" unicode="&#xce;" horiz-adv-x="358" 
d="M54 6q0 6 2 6q31 0 44.5 5t18.5 19t5 45v463q0 29 -5.5 43.5t-19.5 20t-43 5.5q-2 0 -2.5 6t2.5 6l50 -1q44 -2 71 -2q30 0 76 2l49 1q2 0 2 -6t-2 -6q-30 0 -44 -6t-18.5 -20t-5.5 -45v-461q0 -30 5.5 -44t19.5 -19.5t43 -5.5q2 0 2 -6t-2 -6q-31 0 -50 1l-73 1l-71 -1
q-19 -1 -52 -1q-2 0 -2 6zM74 660q-3 0 -5.5 2.5t-0.5 4.5l95 115q3 5 8 5t10 -5l104 -115q2 -2 -0.5 -5.5t-4.5 -1.5l-102 38l-103 -38h-1z" />
    <glyph glyph-name="Idieresis" unicode="&#xcf;" horiz-adv-x="358" 
d="M54 6q0 6 2 6q31 0 44.5 5t18.5 19t5 45v463q0 29 -5.5 43.5t-19.5 20t-43 5.5q-2 0 -2.5 6t2.5 6l50 -1q44 -2 71 -2q30 0 76 2l49 1q2 0 2 -6t-2 -6q-30 0 -44 -6t-18.5 -20t-5.5 -45v-461q0 -30 5.5 -44t19.5 -19.5t43 -5.5q2 0 2 -6t-2 -6q-31 0 -50 1l-73 1l-71 -1
q-19 -1 -52 -1q-2 0 -2 6zM60.5 717.5q-14.5 14.5 -14.5 40.5q0 24 15 38t40 14t39 -14t14 -38q0 -26 -14 -40.5t-39 -14.5q-26 0 -40.5 14.5zM213.5 717.5q-14.5 14.5 -14.5 40.5q0 24 15 38t40 14t39 -14t14 -38q0 -26 -14 -40.5t-39 -14.5q-26 0 -40.5 14.5z" />
    <glyph glyph-name="Eth" unicode="&#xd0;" horiz-adv-x="688" 
d="M480 588.5q81 -38.5 126 -107.5t45 -158q0 -96 -47.5 -170.5t-125.5 -115.5t-168 -41q-28 0 -63 3q-14 1 -34 2t-45 1l-74 -1q-18 -1 -51 -1q-2 0 -2 6t2 6q31 0 45 5t19.5 19.5t4.5 44.5v216h-66q-4 0 -4 14t4 14h66v219q-2 30 -7.5 44t-19.5 19.5t-42 5.5q-2 0 -2 6
t2 6l51 -1q44 -2 72 -2q33 0 66 3q42 2 62 2q105 0 186 -38.5zM423 49.5q52 33.5 80.5 97.5t28.5 154q0 77 -25 146.5t-79.5 114.5t-138.5 45q-40 0 -54 -14.5t-14 -50.5v-217h87q4 0 4 -14t-4 -14h-87v-205q1 -41 17.5 -58.5t62.5 -17.5q70 0 122 33.5z" />
    <glyph glyph-name="Ntilde" unicode="&#xd1;" horiz-adv-x="709" 
d="M697 619q0 -6 -3 -6q-41 0 -66.5 -28t-26.5 -76l-1 -516q1 -3 -4.5 -5.5t-12.5 -2.5q-10 0 -13 6l-419 526l-1 -401q-1 -48 24 -76t67 -28q4 0 4 -6t-4 -6q-28 0 -43 1l-63 1l-60 -1q-17 -1 -48 -1q-4 0 -4 6t4 6q42 0 66.5 28t25.5 76l1 439q-29 32 -51.5 45t-46.5 13
q-2 0 -2 6t2 6l54 -1q16 -1 43 -1t45.5 1t24.5 1q8 0 12.5 -4t10.5 -15q12 -18 24 -33l333 -416l2 352q1 48 -23.5 76t-67.5 28q-4 0 -4 6t4 6l39 -1q40 -2 67 -2q21 0 59 2l49 1q3 0 3 -6zM228 685q-2 0 -4.5 3t-1.5 5q36 81 85 81q10 0 48 -10q19 -6 39.5 -10.5t36.5 -4.5
q21 0 33.5 6t25.5 21h1q3 0 5.5 -2.5t1.5 -4.5q-21 -48 -38 -64.5t-43 -16.5q-16 0 -58 12q-17 5 -36 9t-34 4q-25 0 -34.5 -5.5t-24.5 -21.5q0 -1 -2 -1z" />
    <glyph glyph-name="Ograve" unicode="&#xd2;" horiz-adv-x="735" 
d="M188 31q-73 43 -112.5 116.5t-39.5 163.5q0 92 43.5 166t120 116.5t172.5 42.5q97 0 171 -41.5t114.5 -114t40.5 -161.5q0 -99 -46.5 -174.5t-125 -116t-170.5 -40.5q-95 0 -168 43zM494.5 44q41.5 30 64.5 85.5t23 130.5q0 92 -31 173t-87 130t-128 49q-55 0 -97 -30
t-65 -85.5t-23 -130.5q0 -90 31 -171.5t87.5 -131t128.5 -49.5q55 0 96.5 30zM375 725.5q-41 12.5 -106 30.5q-13 3 5 12.5t47 17.5t45 8q5 0 9 -2q24 -23 68 -60l37 -31q2 -1 2 -4t-3 -4.5t-6 -0.5q-57 21 -98 33.5z" />
    <glyph glyph-name="Oacute" unicode="&#xd3;" horiz-adv-x="735" 
d="M188 31q-73 43 -112.5 116.5t-39.5 163.5q0 92 43.5 166t120 116.5t172.5 42.5q97 0 171 -41.5t114.5 -114t40.5 -161.5q0 -99 -46.5 -174.5t-125 -116t-170.5 -40.5q-95 0 -168 43zM494.5 44q41.5 30 64.5 85.5t23 130.5q0 92 -31 173t-87 130t-128 49q-55 0 -97 -30
t-65 -85.5t-23 -130.5q0 -90 31 -171.5t87.5 -131t128.5 -49.5q55 0 96.5 30zM309 678q-4 0 -6 4.5t1 6.5q25 20 66 63l41 41q5 5 36.5 -3.5t57 -20t14.5 -13.5q-107 -28 -208 -77z" />
    <glyph glyph-name="Ocircumflex" unicode="&#xd4;" horiz-adv-x="735" 
d="M188 31q-73 43 -112.5 116.5t-39.5 163.5q0 92 43.5 166t120 116.5t172.5 42.5q97 0 171 -41.5t114.5 -114t40.5 -161.5q0 -99 -46.5 -174.5t-125 -116t-170.5 -40.5q-95 0 -168 43zM494.5 44q41.5 30 64.5 85.5t23 130.5q0 92 -31 173t-87 130t-128 49q-55 0 -97 -30
t-65 -85.5t-23 -130.5q0 -90 31 -171.5t87.5 -131t128.5 -49.5q55 0 96.5 30zM269 660q-3 0 -5.5 2.5t-0.5 4.5l95 115q3 5 8 5t10 -5l104 -115q2 -2 -0.5 -5.5t-4.5 -1.5l-102 38l-103 -38h-1z" />
    <glyph glyph-name="Otilde" unicode="&#xd5;" horiz-adv-x="735" 
d="M188 31q-73 43 -112.5 116.5t-39.5 163.5q0 92 43.5 166t120 116.5t172.5 42.5q97 0 171 -41.5t114.5 -114t40.5 -161.5q0 -99 -46.5 -174.5t-125 -116t-170.5 -40.5q-95 0 -168 43zM494.5 44q41.5 30 64.5 85.5t23 130.5q0 92 -31 173t-87 130t-128 49q-55 0 -97 -30
t-65 -85.5t-23 -130.5q0 -90 31 -171.5t87.5 -131t128.5 -49.5q55 0 96.5 30zM246 685q-2 0 -4.5 3t-1.5 5q36 81 85 81q10 0 48 -10q19 -6 39.5 -10.5t36.5 -4.5q21 0 33.5 6t25.5 21h1q3 0 5.5 -2.5t1.5 -4.5q-21 -48 -38 -64.5t-43 -16.5q-16 0 -58 12q-17 5 -36 9t-34 4
q-25 0 -34.5 -5.5t-24.5 -21.5q0 -1 -2 -1z" />
    <glyph glyph-name="Odieresis" unicode="&#xd6;" horiz-adv-x="735" 
d="M188 31q-73 43 -112.5 116.5t-39.5 163.5q0 92 43.5 166t120 116.5t172.5 42.5q97 0 171 -41.5t114.5 -114t40.5 -161.5q0 -99 -46.5 -174.5t-125 -116t-170.5 -40.5q-95 0 -168 43zM494.5 44q41.5 30 64.5 85.5t23 130.5q0 92 -31 173t-87 130t-128 49q-55 0 -97 -30
t-65 -85.5t-23 -130.5q0 -90 31 -171.5t87.5 -131t128.5 -49.5q55 0 96.5 30zM242 717.5q-15 14.5 -15 40.5q0 24 15 38t40 14t39 -14t14 -38q0 -26 -14 -40.5t-39 -14.5t-40 14.5zM417 717.5q-14 14.5 -14 40.5q0 24 14.5 37.5t39.5 13.5q24 0 37.5 -13.5t13.5 -37.5
q0 -26 -13.5 -40.5t-37.5 -14.5q-26 0 -40 14.5z" />
    <glyph glyph-name="multiply" unicode="&#xd7;" horiz-adv-x="399" 
d="M319.5 70q-17.5 -18 -20.5 -14l-99 99l-99 -100q-4 -3 -21.5 14t-15.5 20l101 101l-100 99q-2 4 15 21t19 15l101 -100l98 98q4 3 21.5 -14.5t13.5 -19.5l-99 -99l99 -99q4 -3 -13.5 -21z" />
    <glyph glyph-name="Oslash" unicode="&#xd8;" horiz-adv-x="735" 
d="M667.5 460q30.5 -64 30.5 -140q0 -100 -46.5 -175.5t-125 -116t-170.5 -40.5q-117 0 -200 64l-55 -66q-2 -3 -14 7t-10 14l55 66q-46 44 -71 105.5t-25 130.5q0 93 43.5 167.5t120 117t172.5 42.5q107 0 185 -50l41 49l1 1q6 0 16 -8t7 -12l-40 -48q55 -44 85.5 -108z
M200 155l303 366q-32 43 -74.5 67t-92.5 24q-55 0 -97 -30t-65 -85.5t-23 -130.5q0 -118 49 -211zM494.5 44q41.5 30 64.5 85.5t23 130.5q0 65 -16 125.5t-45 108.5l-305 -368q34 -53 80.5 -82.5t101.5 -29.5t96.5 30z" />
    <glyph glyph-name="Ugrave" unicode="&#xd9;" horiz-adv-x="775" 
d="M738 6q0 -6 -3 -6l-98 1l-76 -1q-11 0 -13.5 3t-2.5 16v44q-48 -40 -96.5 -57.5t-105.5 -17.5q-71 0 -127 24t-88 69t-32 105v358q0 29 -5.5 43.5t-19.5 20t-42 5.5q-3 0 -3 6t3 6l49 -1q42 -2 71 -2q26 0 72 2l50 1q4 0 4.5 -6t-2.5 -6q-30 0 -44.5 -6t-19 -20t-5.5 -45
v-321q-1 -93 46 -144.5t131 -51.5q43 0 82 15.5t82 51.5l-1 450q1 43 -12 57t-54 14q-3 0 -3 6t2 6l50 -1q44 -2 72 -2q25 0 71 2l50 1q4 0 4.5 -6t-2.5 -6q-30 0 -44.5 -5.5t-19.5 -19.5t-5 -44v-463q0 -30 6 -44.5t23 -19.5t53 -5q3 0 3 -6zM379 725.5q-41 12.5 -106 30.5
q-13 3 5 12.5t47 17.5t45 8q5 0 9 -2q24 -23 68 -60l37 -31q2 -1 2 -4t-3 -4.5t-6 -0.5q-57 21 -98 33.5z" />
    <glyph glyph-name="Uacute" unicode="&#xda;" horiz-adv-x="775" 
d="M738 6q0 -6 -3 -6l-98 1l-76 -1q-11 0 -13.5 3t-2.5 16v44q-48 -40 -96.5 -57.5t-105.5 -17.5q-71 0 -127 24t-88 69t-32 105v358q0 29 -5.5 43.5t-19.5 20t-42 5.5q-3 0 -3 6t3 6l49 -1q42 -2 71 -2q26 0 72 2l50 1q4 0 4.5 -6t-2.5 -6q-30 0 -44.5 -6t-19 -20t-5.5 -45
v-321q-1 -93 46 -144.5t131 -51.5q43 0 82 15.5t82 51.5l-1 450q1 43 -12 57t-54 14q-3 0 -3 6t2 6l50 -1q44 -2 72 -2q25 0 71 2l50 1q4 0 4.5 -6t-2.5 -6q-30 0 -44.5 -5.5t-19.5 -19.5t-5 -44v-463q0 -30 6 -44.5t23 -19.5t53 -5q3 0 3 -6zM313 678q-4 0 -6 4.5t1 6.5
q25 20 66 63l41 41q5 5 36.5 -3.5t57 -20t14.5 -13.5q-107 -28 -208 -77z" />
    <glyph glyph-name="Ucircumflex" unicode="&#xdb;" horiz-adv-x="775" 
d="M738 6q0 -6 -3 -6l-98 1l-76 -1q-11 0 -13.5 3t-2.5 16v44q-48 -40 -96.5 -57.5t-105.5 -17.5q-71 0 -127 24t-88 69t-32 105v358q0 29 -5.5 43.5t-19.5 20t-42 5.5q-3 0 -3 6t3 6l49 -1q42 -2 71 -2q26 0 72 2l50 1q4 0 4.5 -6t-2.5 -6q-30 0 -44.5 -6t-19 -20t-5.5 -45
v-321q-1 -93 46 -144.5t131 -51.5q43 0 82 15.5t82 51.5l-1 450q1 43 -12 57t-54 14q-3 0 -3 6t2 6l50 -1q44 -2 72 -2q25 0 71 2l50 1q4 0 4.5 -6t-2.5 -6q-30 0 -44.5 -5.5t-19.5 -19.5t-5 -44v-463q0 -30 6 -44.5t23 -19.5t53 -5q3 0 3 -6zM273 660q-3 0 -5.5 2.5
t-0.5 4.5l95 115q3 5 8 5t10 -5l104 -115q2 -2 -0.5 -5.5t-4.5 -1.5l-102 38l-103 -38h-1z" />
    <glyph glyph-name="Udieresis" unicode="&#xdc;" horiz-adv-x="775" 
d="M738 6q0 -6 -3 -6l-98 1l-76 -1q-11 0 -13.5 3t-2.5 16v44q-48 -40 -96.5 -57.5t-105.5 -17.5q-71 0 -127 24t-88 69t-32 105v358q0 29 -5.5 43.5t-19.5 20t-42 5.5q-3 0 -3 6t3 6l49 -1q42 -2 71 -2q26 0 72 2l50 1q4 0 4.5 -6t-2.5 -6q-30 0 -44.5 -6t-19 -20t-5.5 -45
v-321q-1 -93 46 -144.5t131 -51.5q43 0 82 15.5t82 51.5l-1 450q1 43 -12 57t-54 14q-3 0 -3 6t2 6l50 -1q44 -2 72 -2q25 0 71 2l50 1q4 0 4.5 -6t-2.5 -6q-30 0 -44.5 -5.5t-19.5 -19.5t-5 -44v-463q0 -30 6 -44.5t23 -19.5t53 -5q3 0 3 -6zM246 717.5q-15 14.5 -15 40.5
q0 24 15 38t40 14t39 -14t14 -38q0 -26 -14 -40.5t-39 -14.5t-40 14.5zM421 717.5q-14 14.5 -14 40.5q0 24 14.5 37.5t39.5 13.5q24 0 37.5 -13.5t13.5 -37.5q0 -26 -13.5 -40.5t-37.5 -14.5q-26 0 -40 14.5z" />
    <glyph glyph-name="Yacute" unicode="&#xdd;" horiz-adv-x="577" 
d="M583 619q0 -6 -5 -6q-35 0 -66.5 -26.5t-62.5 -82.5l-100 -190v-233q0 -31 5.5 -45t21.5 -19t52 -5q4 0 4 -6t-4 -6q-35 0 -54 1l-79 1l-83 -1q-20 -1 -54 -1q-4 0 -4 6t4 6q36 0 53 5.5t23.5 19.5t5.5 44l-1 219l-159 242q-24 37 -45.5 54t-43.5 17q-4 0 -4.5 6t2.5 6
l52 -1q38 -2 56 -2q25 0 75 2l51 1q3 0 3 -4q0 -3 -1.5 -5.5t-3.5 -2.5q-26 0 -37.5 -4t-11.5 -13t10 -23l150 -230l94 183q9 20 9 36q0 23 -15.5 37t-44.5 14q-4 0 -4 6t3 6l54 -1q50 -2 77 -2q17 0 39 2l34 1q5 0 5 -6zM233 678q-4 0 -6 4.5t1 6.5q25 20 66 63l41 41
q5 5 36.5 -3.5t57 -20t14.5 -13.5q-107 -28 -208 -77z" />
    <glyph glyph-name="Thorn" unicode="&#xde;" horiz-adv-x="592" 
d="M404.5 189q42.5 33 42.5 109q0 47 -18.5 89t-55.5 68t-90 26q-25 0 -58 -7l1 -393q0 -32 6 -45.5t24.5 -18.5t61.5 -5q3 0 3.5 -6t-3.5 -6q-38 0 -60 1l-87 1l-72 -1q-18 -1 -51 -1q-3 0 -3 6t3 6q31 0 45 5t19 19t5 45v463q0 30 -5 44t-19 19.5t-43 5.5q-2 0 -2 6t2 6
l49 -1q42 -2 68 -2q39 0 95 2l58 1q3 0 3.5 -6t-3.5 -6q-45 0 -63.5 -4.5t-24.5 -18.5t-7 -48v-48q43 8 93 8q112 0 179.5 -49t67.5 -133q0 -63 -38.5 -104.5t-95.5 -60.5t-115 -19q-27 0 -47 4q-2 1 -2 7q0 5 1.5 9t2.5 3q18 -3 34 -3q57 0 99.5 33z" />
    <glyph glyph-name="germandbls" unicode="&#xdf;" horiz-adv-x="511" 
d="M-34 -257q-30 18 -30 44q0 16 12.5 25.5t32.5 9.5q25 0 36 -12t21 -34q7 -16 12.5 -23.5t16.5 -7.5q10 0 14 23.5t4 81.5q0 21 -2 103l-14 465q-5 139 49.5 223.5t170.5 84.5q59 0 96 -23.5t41 -68.5q2 -33 -13 -57.5t-46 -56.5q-26 -28 -39 -48t-12 -44q0 -25 17 -49.5
t55 -66.5q49 -54 74 -93.5t25 -85.5q0 -62 -36 -103t-101 -41q-44 0 -73.5 18.5t-34.5 41.5q-1 4 -1 11q0 17 10.5 27.5t30.5 10.5q26 0 39 -11t25 -32q10 -17 19 -25.5t26 -8.5q23 0 30 13.5t7 35.5q-1 31 -21 60.5t-60 74.5q-45 52 -68 88.5t-23 77.5q0 26 8.5 49.5
t24.5 56.5q19 37 28 63t9 57q0 51 -20.5 78.5t-55.5 27.5q-51 0 -71.5 -64t-18.5 -200l14 -460q1 -16 1 -44q0 -79 -13 -124.5t-41 -65.5t-75 -20q-50 0 -80 18z" />
    <glyph glyph-name="agrave" unicode="&#xe0;" horiz-adv-x="477" 
d="M476 78q3 0 6 -3.5t2 -5.5q-28 -39 -54 -58.5t-53 -19.5q-36 0 -54 24t-18 74v68q-27 -80 -76 -125t-104 -45q-41 0 -66.5 27.5t-25.5 84.5q0 66 36 136.5t92.5 117t115.5 46.5q21 0 43.5 -6.5t40.5 -19.5q19 15 28 34q2 2 4 2q3 0 6.5 -2t2.5 -3l-2 -315q-1 -23 4.5 -35
t16.5 -12q10 0 24 9.5t28 25.5q1 1 3 1zM243.5 92q28.5 32 45 78.5t16.5 85.5q0 44 -20.5 69t-55.5 25q-51 0 -80 -49.5t-29 -128.5q1 -59 18 -85.5t44 -26.5q33 0 61.5 32zM160 727q-3 7 21 7q22 0 48 -6t27 -12l19 -240q1 -2 -3.5 -3t-4.5 2z" />
    <glyph glyph-name="aacute" unicode="&#xe1;" horiz-adv-x="477" 
d="M476 78q3 0 6 -3.5t2 -5.5q-28 -39 -54 -58.5t-53 -19.5q-36 0 -54 24t-18 74v68q-27 -80 -76 -125t-104 -45q-41 0 -66.5 27.5t-25.5 84.5q0 66 36 136.5t92.5 117t115.5 46.5q21 0 43.5 -6.5t40.5 -19.5q19 15 28 34q2 2 4 2q3 0 6.5 -2t2.5 -3l-2 -315q-1 -23 4.5 -35
t16.5 -12q10 0 24 9.5t28 25.5q1 1 3 1zM243.5 92q28.5 32 45 78.5t16.5 85.5q0 44 -20.5 69t-55.5 25q-51 0 -80 -49.5t-29 -128.5q1 -59 18 -85.5t44 -26.5q33 0 61.5 32zM252 471q-3 0 -6 2t-2 3l33 240q1 6 27.5 11t50.5 5q23 0 20 -5l-119 -254q-2 -2 -4 -2z" />
    <glyph glyph-name="acircumflex" unicode="&#xe2;" horiz-adv-x="477" 
d="M476 78q3 0 6 -3.5t2 -5.5q-28 -39 -54 -58.5t-53 -19.5q-36 0 -54 24t-18 74v68q-27 -80 -76 -125t-104 -45q-41 0 -66.5 27.5t-25.5 84.5q0 66 36 136.5t92.5 117t115.5 46.5q21 0 43.5 -6.5t40.5 -19.5q19 15 28 34q2 2 4 2q3 0 6.5 -2t2.5 -3l-2 -315q-1 -23 4.5 -35
t16.5 -12q10 0 24 9.5t28 25.5q1 1 3 1zM243.5 92q28.5 32 45 78.5t16.5 85.5q0 44 -20.5 69t-55.5 25q-51 0 -80 -49.5t-29 -128.5q1 -59 18 -85.5t44 -26.5q33 0 61.5 32zM352 477q1 -2 -5 -2.5t-7 1.5l-72 108l-74 -110q-2 -2 -4 -2q-3 0 -5.5 1.5t-2.5 3.5l76 249
q1 5 10 5q8 0 9 -5z" />
    <glyph glyph-name="atilde" unicode="&#xe3;" horiz-adv-x="477" 
d="M476 78q3 0 6 -3.5t2 -5.5q-28 -39 -54 -58.5t-53 -19.5q-36 0 -54 24t-18 74v68q-27 -80 -76 -125t-104 -45q-41 0 -66.5 27.5t-25.5 84.5q0 66 36 136.5t92.5 117t115.5 46.5q21 0 43.5 -6.5t40.5 -19.5q19 15 28 34q2 2 4 2q3 0 6.5 -2t2.5 -3l-2 -315q-1 -23 4.5 -35
t16.5 -12q10 0 24 9.5t28 25.5q1 1 3 1zM243.5 92q28.5 32 45 78.5t16.5 85.5q0 44 -20.5 69t-55.5 25q-51 0 -80 -49.5t-29 -128.5q1 -59 18 -85.5t44 -26.5q33 0 61.5 32zM132 470q-2 0 -5 2.5t-2 4.5q17 35 36 58t49 23q10 0 27 -4.5t22 -5.5q51 -15 76 -15q21 0 33.5 6
t25.5 21q0 1 0.5 1h0.5q2 0 5 -3t2 -5q-21 -48 -38 -64t-43 -16q-19 0 -58 11q-18 5 -37 9t-35 4q-24 0 -33 -5t-25 -22h-1z" />
    <glyph glyph-name="adieresis" unicode="&#xe4;" horiz-adv-x="477" 
d="M476 78q3 0 6 -3.5t2 -5.5q-28 -39 -54 -58.5t-53 -19.5q-36 0 -54 24t-18 74v68q-27 -80 -76 -125t-104 -45q-41 0 -66.5 27.5t-25.5 84.5q0 66 36 136.5t92.5 117t115.5 46.5q21 0 43.5 -6.5t40.5 -19.5q19 15 28 34q2 2 4 2q3 0 6.5 -2t2.5 -3l-2 -315q-1 -23 4.5 -35
t16.5 -12q10 0 24 9.5t28 25.5q1 1 3 1zM243.5 92q28.5 32 45 78.5t16.5 85.5q0 44 -20.5 69t-55.5 25q-51 0 -80 -49.5t-29 -128.5q1 -59 18 -85.5t44 -26.5q33 0 61.5 32zM136 478.5q-15 14.5 -15 40.5q0 24 15 38t40 14t39 -14t14 -38q0 -26 -14 -40.5t-39 -14.5
t-40 14.5zM311 478.5q-14 14.5 -14 40.5q0 24 14.5 37.5t39.5 13.5q24 0 37.5 -13.5t13.5 -37.5q0 -26 -13.5 -40.5t-37.5 -14.5q-26 0 -40 14.5z" />
    <glyph glyph-name="aring" unicode="&#xe5;" horiz-adv-x="477" 
d="M476 78q3 0 6 -3.5t2 -5.5q-28 -39 -54 -58.5t-53 -19.5q-36 0 -54 24t-18 74v68q-27 -80 -76 -125t-104 -45q-41 0 -66.5 27.5t-25.5 84.5q0 66 36 136.5t92.5 117t115.5 46.5q21 0 43.5 -6.5t40.5 -19.5q19 15 28 34q2 2 4 2q3 0 6.5 -2t2.5 -3l-2 -315q-1 -23 4.5 -35
t16.5 -12q10 0 24 9.5t28 25.5q1 1 3 1zM243.5 92q28.5 32 45 78.5t16.5 85.5q0 44 -20.5 69t-55.5 25q-51 0 -80 -49.5t-29 -128.5q1 -59 18 -85.5t44 -26.5q33 0 61.5 32zM180 491.5q-29 23.5 -29 55.5q0 36 36 57t80 21t75 -23.5t31 -56.5q0 -35 -35 -56t-81 -21
q-48 0 -77 23.5zM292.5 493q6.5 11 6.5 34q0 34 -15 59t-37 25q-24 0 -24 -44q0 -33 13.5 -59t36.5 -26q13 0 19.5 11z" />
    <glyph glyph-name="ae" unicode="&#xe6;" horiz-adv-x="636" 
d="M607 65q4 0 7 -3.5t1 -5.5q-67 -68 -145 -68q-75 0 -115 53.5t-40 145.5q-29 -91 -77.5 -145.5t-106.5 -54.5q-44 0 -71 30.5t-27 82.5q0 65 32.5 135t89.5 117t126 47q34 0 61.5 -12t37.5 -36q59 48 146 48q99 0 99 -61q1 -34 -46.5 -67.5t-172.5 -73.5q7 -78 41.5 -120
t82.5 -42q41 0 74 29q1 1 3 1zM421 329q-20 -44 -16 -114v-3q52 23 83.5 49.5t30.5 61.5q0 19 -10.5 34.5t-31.5 15.5q-36 0 -56 -44zM288 334.5q-22 32.5 -54 32.5q-28 0 -53 -26t-40 -71t-15 -99q1 -60 19 -83t41 -23q24 0 53.5 31.5t50 77t20.5 83.5q0 45 -22 77.5z" />
    <glyph glyph-name="ccedilla" unicode="&#xe7;" horiz-adv-x="372" 
d="M352 60q3 0 6.5 -3.5t1.5 -6.5q-30 -33 -65 -47.5t-76 -15.5q-1 -4 -1 -11q0 -22 11 -37.5t38 -42.5q25 -26 36 -45t11 -38q1 -19 -10 -39.5t-34.5 -34.5t-59.5 -14t-62.5 15t-26.5 38q-1 17 9 25.5t26 8.5q18 0 27.5 -9.5t18.5 -27.5q9 -17 15.5 -24t18.5 -7t17.5 6.5
t4.5 17.5q-2 17 -19.5 40t-47.5 54q-13 13 -13 33q0 16 9 45l15 47q-59 3 -99.5 34.5t-59.5 80t-16 100.5q1 53 31 98.5t78 72t98 26.5q43 0 78 -17t39 -50q2 -21 -10.5 -33t-38.5 -12q-27 0 -40 12t-23 33q-10 19 -20 29t-28 10q-32 0 -50.5 -34t-18.5 -91q0 -92 37.5 -151
t109.5 -59q52 0 82 24h1z" />
    <glyph glyph-name="egrave" unicode="&#xe8;" horiz-adv-x="381" 
d="M361 63q3 0 6 -3t1 -5q-32 -35 -73 -51t-84 -16q-60 0 -102 27t-63 71t-21 94q0 54 28 104.5t79.5 82.5t118.5 32q45 0 70.5 -14t28.5 -40q4 -44 -62 -82t-163 -55q4 -77 40.5 -126.5t99.5 -49.5q24 0 49 7.5t45 23.5h2zM144.5 330.5q-19.5 -41.5 -19.5 -106.5
q121 28 117 100q0 22 -11.5 35t-31.5 13q-35 0 -54.5 -41.5zM110 727q-3 7 21 7q22 0 48 -6t27 -12l19 -240q1 -2 -3.5 -3t-4.5 2z" />
    <glyph glyph-name="eacute" unicode="&#xe9;" horiz-adv-x="381" 
d="M361 63q3 0 6 -3t1 -5q-32 -35 -73 -51t-84 -16q-60 0 -102 27t-63 71t-21 94q0 54 28 104.5t79.5 82.5t118.5 32q45 0 70.5 -14t28.5 -40q4 -44 -62 -82t-163 -55q4 -77 40.5 -126.5t99.5 -49.5q24 0 49 7.5t45 23.5h2zM144.5 330.5q-19.5 -41.5 -19.5 -106.5
q121 28 117 100q0 22 -11.5 35t-31.5 13q-35 0 -54.5 -41.5zM202 471q-3 0 -6 2t-2 3l33 240q1 6 27.5 11t50.5 5q23 0 20 -5l-119 -254q-2 -2 -4 -2z" />
    <glyph glyph-name="ecircumflex" unicode="&#xea;" horiz-adv-x="381" 
d="M361 63q3 0 6 -3t1 -5q-32 -35 -73 -51t-84 -16q-60 0 -102 27t-63 71t-21 94q0 54 28 104.5t79.5 82.5t118.5 32q45 0 70.5 -14t28.5 -40q4 -44 -62 -82t-163 -55q4 -77 40.5 -126.5t99.5 -49.5q24 0 49 7.5t45 23.5h2zM144.5 330.5q-19.5 -41.5 -19.5 -106.5
q121 28 117 100q0 22 -11.5 35t-31.5 13q-35 0 -54.5 -41.5zM302 477q1 -2 -5 -2.5t-7 1.5l-72 108l-74 -110q-2 -2 -4 -2q-3 0 -5.5 1.5t-2.5 3.5l76 249q1 5 10 5q8 0 9 -5z" />
    <glyph glyph-name="edieresis" unicode="&#xeb;" horiz-adv-x="381" 
d="M361 63q3 0 6 -3t1 -5q-32 -35 -73 -51t-84 -16q-60 0 -102 27t-63 71t-21 94q0 54 28 104.5t79.5 82.5t118.5 32q45 0 70.5 -14t28.5 -40q4 -44 -62 -82t-163 -55q4 -77 40.5 -126.5t99.5 -49.5q24 0 49 7.5t45 23.5h2zM144.5 330.5q-19.5 -41.5 -19.5 -106.5
q121 28 117 100q0 22 -11.5 35t-31.5 13q-35 0 -54.5 -41.5zM86 478.5q-15 14.5 -15 40.5q0 24 15 38t40 14t39 -14t14 -38q0 -26 -14 -40.5t-39 -14.5t-40 14.5zM261 478.5q-14 14.5 -14 40.5q0 24 14.5 37.5t39.5 13.5q24 0 37.5 -13.5t13.5 -37.5q0 -26 -13.5 -40.5
t-37.5 -14.5q-26 0 -40 14.5z" />
    <glyph glyph-name="igrave" unicode="&#xec;" horiz-adv-x="260" 
d="M98.5 15.5q-16.5 24.5 -14.5 73.5l4 208q1 49 -26 49q-22 0 -55 -40q-1 -1 -3 -1q-3 0 -6.5 3.5t-1.5 6.5q30 42 58.5 61t58.5 19q68 0 68 -86l-4 -220q-2 -47 23 -47q10 0 20.5 8t29.5 27q2 2 4 2q4 0 6.5 -3.5t1.5 -6.5q-30 -41 -55 -59.5t-56 -18.5q-36 0 -52.5 24.5z
M15 731q22 0 53 -5.5t32 -9.5l32 -240q0 -2 -4.5 -3.5t-5.5 1.5l-121 253q-1 4 14 4z" />
    <glyph glyph-name="iacute" unicode="&#xed;" horiz-adv-x="260" 
d="M98.5 15.5q-16.5 24.5 -14.5 73.5l4 208q1 49 -26 49q-22 0 -55 -40q-1 -1 -3 -1q-3 0 -6.5 3.5t-1.5 6.5q30 42 58.5 61t58.5 19q68 0 68 -86l-4 -220q-2 -47 23 -47q10 0 20.5 8t29.5 27q2 2 4 2q4 0 6.5 -3.5t1.5 -6.5q-30 -41 -55 -59.5t-56 -18.5q-36 0 -52.5 24.5z
M117 472q-3 0 -5.5 1.5t-1.5 2.5l33 240q2 4 33 9.5t52 5.5q14 0 13 -4l-120 -253q0 -2 -4 -2z" />
    <glyph glyph-name="icircumflex" unicode="&#xee;" horiz-adv-x="260" 
d="M98.5 15.5q-16.5 24.5 -14.5 73.5l4 208q1 49 -26 49q-22 0 -55 -40q-1 -1 -3 -1q-3 0 -6.5 3.5t-1.5 6.5q30 42 58.5 61t58.5 19q68 0 68 -86l-4 -220q-2 -47 23 -47q10 0 20.5 8t29.5 27q2 2 4 2q4 0 6.5 -3.5t1.5 -6.5q-30 -41 -55 -59.5t-56 -18.5q-36 0 -52.5 24.5z
M211 477q1 -2 -5 -2.5t-7 1.5l-72 108l-74 -110q-2 -2 -4 -2q-3 0 -5.5 1.5t-2.5 3.5l76 249q1 5 10 5q8 0 9 -5z" />
    <glyph glyph-name="idieresis" unicode="&#xef;" horiz-adv-x="260" 
d="M98.5 15.5q-16.5 24.5 -14.5 73.5l4 208q1 49 -26 49q-22 0 -55 -40q-1 -1 -3 -1q-3 0 -6.5 3.5t-1.5 6.5q30 42 58.5 61t58.5 19q68 0 68 -86l-4 -220q-2 -47 23 -47q10 0 20.5 8t29.5 27q2 2 4 2q4 0 6.5 -3.5t1.5 -6.5q-30 -41 -55 -59.5t-56 -18.5q-36 0 -52.5 24.5z
M8.5 478.5q-14.5 14.5 -14.5 40.5q0 24 15 38t40 14t39 -14t14 -38q0 -26 -14 -40.5t-39 -14.5q-26 0 -40.5 14.5zM161.5 478.5q-14.5 14.5 -14.5 40.5q0 24 15 38t40 14t39 -14t14 -38q0 -26 -14 -40.5t-39 -14.5q-26 0 -40.5 14.5z" />
    <glyph glyph-name="eth" unicode="&#xf0;" horiz-adv-x="429" 
d="M375.5 406.5q37.5 -95.5 37.5 -187.5q0 -75 -28 -127t-75.5 -78.5t-105.5 -26.5q-57 0 -99 26t-64.5 70t-22.5 96q0 71 31 121t77.5 74.5t94.5 24.5q30 0 54 -10q-27 90 -65 162l-118 -56l-2 -1q-7 0 -11.5 11t1.5 13l118 55q-55 95 -115 139q-2 2 -2 3q0 4 5 7.5t9 2.5
q86 -41 161 -124l101 47h1q6 0 10.5 -10.5t-1.5 -12.5l-94 -44q65 -79 102.5 -174.5zM288 49.5q21 38.5 21 119.5q0 23 -1 35q-5 86 -28 130t-71 44q-37 0 -62 -39t-25 -107q0 -58 14.5 -109t39 -81.5t53.5 -30.5q38 0 59 38.5z" />
    <glyph glyph-name="ntilde" unicode="&#xf1;" horiz-adv-x="511" 
d="M510 79q4 0 7 -3.5t1 -6.5q-30 -41 -55 -59.5t-56 -18.5q-36 0 -52 24.5t-15 73.5l2 159q0 94 -48 94q-32 0 -58 -36t-41.5 -106.5t-16.5 -167.5v-20q0 -9 -14.5 -14.5t-43.5 -5.5q-35 0 -37 8v23q2 28 2 51l2 223q0 49 -26 49q-22 0 -55 -40q-1 -1 -3 -1q-4 0 -7 3.5
t-1 6.5q30 42 58 61t59 19q35 0 50.5 -21.5t16.5 -64.5v-92q21 87 62 134.5t97 47.5q96 0 96 -132l-1 -178q-1 -47 23 -47q11 0 22.5 9t27.5 26zM117 470q-2 0 -5 2.5t-2 4.5q17 35 36 58t49 23q10 0 27 -4.5t22 -5.5q51 -15 76 -15q21 0 33.5 6t25.5 21q0 1 0.5 1h0.5
q2 0 5 -3t2 -5q-21 -48 -38 -64t-43 -16q-19 0 -58 11q-18 5 -37 9t-35 4q-24 0 -33 -5t-25 -22h-1z" />
    <glyph glyph-name="ograve" unicode="&#xf2;" horiz-adv-x="437" 
d="M108.5 13.5q-41.5 27.5 -62.5 73.5t-21 101q0 62 26 110t72.5 74.5t104.5 26.5q88 0 137 -56t49 -145q0 -67 -29 -115t-76 -72.5t-101 -24.5q-58 0 -99.5 27.5zM295 49.5q18 38.5 18 106.5q0 58 -15.5 108.5t-42.5 80.5t-59 30q-33 0 -52 -35t-19 -104q0 -60 16 -111.5
t42.5 -82.5t57.5 -31q36 0 54 38.5zM112 727q-3 7 21 7q22 0 48 -6t27 -12l19 -240q1 -2 -3.5 -3t-4.5 2z" />
    <glyph glyph-name="oacute" unicode="&#xf3;" horiz-adv-x="437" 
d="M108.5 13.5q-41.5 27.5 -62.5 73.5t-21 101q0 62 26 110t72.5 74.5t104.5 26.5q88 0 137 -56t49 -145q0 -67 -29 -115t-76 -72.5t-101 -24.5q-58 0 -99.5 27.5zM295 49.5q18 38.5 18 106.5q0 58 -15.5 108.5t-42.5 80.5t-59 30q-33 0 -52 -35t-19 -104q0 -60 16 -111.5
t42.5 -82.5t57.5 -31q36 0 54 38.5zM204 471q-3 0 -6 2t-2 3l33 240q1 6 27.5 11t50.5 5q23 0 20 -5l-119 -254q-2 -2 -4 -2z" />
    <glyph glyph-name="ocircumflex" unicode="&#xf4;" horiz-adv-x="437" 
d="M108.5 13.5q-41.5 27.5 -62.5 73.5t-21 101q0 62 26 110t72.5 74.5t104.5 26.5q88 0 137 -56t49 -145q0 -67 -29 -115t-76 -72.5t-101 -24.5q-58 0 -99.5 27.5zM295 49.5q18 38.5 18 106.5q0 58 -15.5 108.5t-42.5 80.5t-59 30q-33 0 -52 -35t-19 -104q0 -60 16 -111.5
t42.5 -82.5t57.5 -31q36 0 54 38.5zM304 477q1 -2 -5 -2.5t-7 1.5l-72 108l-74 -110q-2 -2 -4 -2q-3 0 -5.5 1.5t-2.5 3.5l76 249q1 5 10 5q8 0 9 -5z" />
    <glyph glyph-name="otilde" unicode="&#xf5;" horiz-adv-x="437" 
d="M108.5 13.5q-41.5 27.5 -62.5 73.5t-21 101q0 62 26 110t72.5 74.5t104.5 26.5q88 0 137 -56t49 -145q0 -67 -29 -115t-76 -72.5t-101 -24.5q-58 0 -99.5 27.5zM295 49.5q18 38.5 18 106.5q0 58 -15.5 108.5t-42.5 80.5t-59 30q-33 0 -52 -35t-19 -104q0 -60 16 -111.5
t42.5 -82.5t57.5 -31q36 0 54 38.5zM84 470q-2 0 -5 2.5t-2 4.5q17 35 36 58t49 23q10 0 27 -4.5t22 -5.5q51 -15 76 -15q21 0 33.5 6t25.5 21q0 1 0.5 1h0.5q2 0 5 -3t2 -5q-21 -48 -38 -64t-43 -16q-19 0 -58 11q-18 5 -37 9t-35 4q-24 0 -33 -5t-25 -22h-1z" />
    <glyph glyph-name="odieresis" unicode="&#xf6;" horiz-adv-x="437" 
d="M108.5 13.5q-41.5 27.5 -62.5 73.5t-21 101q0 62 26 110t72.5 74.5t104.5 26.5q88 0 137 -56t49 -145q0 -67 -29 -115t-76 -72.5t-101 -24.5q-58 0 -99.5 27.5zM295 49.5q18 38.5 18 106.5q0 58 -15.5 108.5t-42.5 80.5t-59 30q-33 0 -52 -35t-19 -104q0 -60 16 -111.5
t42.5 -82.5t57.5 -31q36 0 54 38.5zM88 478.5q-15 14.5 -15 40.5q0 24 15 38t40 14t39 -14t14 -38q0 -26 -14 -40.5t-39 -14.5t-40 14.5zM263 478.5q-14 14.5 -14 40.5q0 24 14.5 37.5t39.5 13.5q24 0 37.5 -13.5t13.5 -37.5q0 -26 -13.5 -40.5t-37.5 -14.5q-26 0 -40 14.5z
" />
    <glyph glyph-name="divide" unicode="&#xf7;" horiz-adv-x="398" 
d="M156.5 290q-16.5 16 -16.5 45q0 26 16.5 41.5t44.5 15.5t43.5 -15t15.5 -42q0 -29 -15.5 -45t-43.5 -16t-44.5 16zM30.5 173q-1.5 8 -1.5 18q0 9 1 16t3 7h331q2 0 3.5 -7.5t1.5 -16.5t-1.5 -17t-3.5 -8h-330q-2 0 -3.5 8zM156.5 5.5q-16.5 16.5 -16.5 44.5q0 26 16.5 42
t44.5 16t43.5 -15.5t15.5 -42.5q0 -29 -15.5 -45t-43.5 -16t-44.5 16.5z" />
    <glyph glyph-name="oslash" unicode="&#xf8;" horiz-adv-x="437" 
d="M399 286q15 -40 15 -88q0 -67 -29 -115t-76 -72.5t-101 -24.5q-68 0 -114 38l-33 -42h-1q-5 0 -13.5 7t-5.5 11l34 42q-25 28 -37.5 66t-12.5 80q0 62 26 110t72.5 74.5t104.5 26.5q61 0 106 -29l26 32l2 1q6 0 14 -6.5t5 -9.5l-26 -34q29 -27 44 -67zM141 126l141 177
q-17 34 -39 53t-47 19q-33 0 -52 -35t-19 -104q0 -57 16 -110zM293 276l-142 -180q16 -39 40 -62t50 -23q36 0 54 38.5t18 107.5q0 61 -20 119z" />
    <glyph glyph-name="ugrave" unicode="&#xf9;" horiz-adv-x="512" 
d="M509 81q4 0 7.5 -3.5t0.5 -6.5q-31 -43 -58.5 -61.5t-58.5 -18.5q-35 0 -51 21.5t-17 64.5v85q-21 -84 -61.5 -129.5t-96.5 -45.5q-48 0 -72.5 33t-23.5 99l4 178q1 47 -24 47q-10 0 -20.5 -8t-29.5 -27q-2 -2 -3 -2q-4 0 -7 3.5t-2 6.5q31 41 55.5 59.5t54.5 18.5
q34 0 52 -24t16 -74l-3 -159q-1 -94 47 -94q30 0 55.5 33.5t41.5 99.5t18 157v40q0 9 15 14.5t44 5.5q34 0 37 -8v-23q-2 -28 -2 -51l-1 -223q0 -49 25 -49q22 0 55 40q1 1 3 1zM149 727q-3 7 21 7q22 0 48 -6t27 -12l19 -240q1 -2 -3.5 -3t-4.5 2z" />
    <glyph glyph-name="uacute" unicode="&#xfa;" horiz-adv-x="512" 
d="M509 81q4 0 7.5 -3.5t0.5 -6.5q-31 -43 -58.5 -61.5t-58.5 -18.5q-35 0 -51 21.5t-17 64.5v85q-21 -84 -61.5 -129.5t-96.5 -45.5q-48 0 -72.5 33t-23.5 99l4 178q1 47 -24 47q-10 0 -20.5 -8t-29.5 -27q-2 -2 -3 -2q-4 0 -7 3.5t-2 6.5q31 41 55.5 59.5t54.5 18.5
q34 0 52 -24t16 -74l-3 -159q-1 -94 47 -94q30 0 55.5 33.5t41.5 99.5t18 157v40q0 9 15 14.5t44 5.5q34 0 37 -8v-23q-2 -28 -2 -51l-1 -223q0 -49 25 -49q22 0 55 40q1 1 3 1zM241 471q-3 0 -6 2t-2 3l33 240q1 6 27.5 11t50.5 5q23 0 20 -5l-119 -254q-2 -2 -4 -2z" />
    <glyph glyph-name="ucircumflex" unicode="&#xfb;" horiz-adv-x="512" 
d="M509 81q4 0 7.5 -3.5t0.5 -6.5q-31 -43 -58.5 -61.5t-58.5 -18.5q-35 0 -51 21.5t-17 64.5v85q-21 -84 -61.5 -129.5t-96.5 -45.5q-48 0 -72.5 33t-23.5 99l4 178q1 47 -24 47q-10 0 -20.5 -8t-29.5 -27q-2 -2 -3 -2q-4 0 -7 3.5t-2 6.5q31 41 55.5 59.5t54.5 18.5
q34 0 52 -24t16 -74l-3 -159q-1 -94 47 -94q30 0 55.5 33.5t41.5 99.5t18 157v40q0 9 15 14.5t44 5.5q34 0 37 -8v-23q-2 -28 -2 -51l-1 -223q0 -49 25 -49q22 0 55 40q1 1 3 1zM341 477q1 -2 -5 -2.5t-7 1.5l-72 108l-74 -110q-2 -2 -4 -2q-3 0 -5.5 1.5t-2.5 3.5l76 249
q1 5 10 5q8 0 9 -5z" />
    <glyph glyph-name="udieresis" unicode="&#xfc;" horiz-adv-x="512" 
d="M509 81q4 0 7.5 -3.5t0.5 -6.5q-31 -43 -58.5 -61.5t-58.5 -18.5q-35 0 -51 21.5t-17 64.5v85q-21 -84 -61.5 -129.5t-96.5 -45.5q-48 0 -72.5 33t-23.5 99l4 178q1 47 -24 47q-10 0 -20.5 -8t-29.5 -27q-2 -2 -3 -2q-4 0 -7 3.5t-2 6.5q31 41 55.5 59.5t54.5 18.5
q34 0 52 -24t16 -74l-3 -159q-1 -94 47 -94q30 0 55.5 33.5t41.5 99.5t18 157v40q0 9 15 14.5t44 5.5q34 0 37 -8v-23q-2 -28 -2 -51l-1 -223q0 -49 25 -49q22 0 55 40q1 1 3 1zM125 478.5q-15 14.5 -15 40.5q0 24 15 38t40 14t39 -14t14 -38q0 -26 -14 -40.5t-39 -14.5
t-40 14.5zM300 478.5q-14 14.5 -14 40.5q0 24 14.5 37.5t39.5 13.5q24 0 37.5 -13.5t13.5 -37.5q0 -26 -13.5 -40.5t-37.5 -14.5q-26 0 -40 14.5z" />
    <glyph glyph-name="yacute" unicode="&#xfd;" horiz-adv-x="484" 
d="M420 392.5q9 -1.5 10 -4.5q0 -41 -2 -76l-2 -382q-2 -95 -56 -153t-148 -58q-41 0 -74.5 10t-51.5 27.5t-16 38.5q0 26 13 38.5t32 12.5q23 0 34.5 -11.5t23.5 -36.5q13 -28 28.5 -43t50.5 -15q33 0 51 36t18 130l1 253q-22 -83 -62.5 -127.5t-95.5 -44.5q-48 0 -72.5 33
t-23.5 99l4 178q1 47 -24 47q-10 0 -22 -8.5t-29 -26.5q-2 -2 -4 -2q-3 0 -5.5 3.5t-1.5 6.5q31 41 55.5 59.5t54.5 18.5q34 0 52 -24t16 -74l-3 -159q-1 -94 47 -94q29 0 53.5 32.5t41 95t19.5 148.5l1 60q0 6 13 10t36 4q29 0 38 -1.5zM242 471q-3 0 -6 2t-2 3l33 240
q1 6 27.5 11t50.5 5q23 0 20 -5l-119 -254q-2 -2 -4 -2z" />
    <glyph glyph-name="thorn" unicode="&#xfe;" horiz-adv-x="441" 
d="M146 1v-179q0 -33 8 -45t32 -12q5 0 23 2q4 1 5.5 -4.5t-2.5 -6.5l-203 -31q-3 -1 -4.5 5t2.5 7q20 4 29 10.5t11.5 21t2.5 46.5l2 479q-22 -14 -50 -34q-1 -1 -4 -1q-4 0 -6.5 4t1.5 7q34 29 60 46l1 273q1 32 -6 46.5t-23 14.5q-17 0 -44 -13h-1q-5 0 -6 5.5t3 6.5
l156 76h2q4 0 8 -3t4 -5v-350q65 26 120 26q68 0 104.5 -39t36.5 -112q0 -66 -28.5 -121.5t-80 -88.5t-115.5 -33q-10 0 -38 2zM147 337l-1 -293q42 -15 73 -15q54 0 75.5 38.5t21.5 112.5q0 80 -25.5 122t-90.5 42q-28 0 -53 -7z" />
    <glyph glyph-name="ydieresis" unicode="&#xff;" horiz-adv-x="484" 
d="M420 392.5q9 -1.5 10 -4.5q0 -41 -2 -76l-2 -382q-2 -95 -56 -153t-148 -58q-41 0 -74.5 10t-51.5 27.5t-16 38.5q0 26 13 38.5t32 12.5q23 0 34.5 -11.5t23.5 -36.5q13 -28 28.5 -43t50.5 -15q33 0 51 36t18 130l1 253q-22 -83 -62.5 -127.5t-95.5 -44.5q-48 0 -72.5 33
t-23.5 99l4 178q1 47 -24 47q-10 0 -22 -8.5t-29 -26.5q-2 -2 -4 -2q-3 0 -5.5 3.5t-1.5 6.5q31 41 55.5 59.5t54.5 18.5q34 0 52 -24t16 -74l-3 -159q-1 -94 47 -94q29 0 53.5 32.5t41 95t19.5 148.5l1 60q0 6 13 10t36 4q29 0 38 -1.5zM126 478.5q-15 14.5 -15 40.5
q0 24 15 38t40 14t39 -14t14 -38q0 -26 -14 -40.5t-39 -14.5t-40 14.5zM301 478.5q-14 14.5 -14 40.5q0 24 14.5 37.5t39.5 13.5q24 0 37.5 -13.5t13.5 -37.5q0 -26 -13.5 -40.5t-37.5 -14.5q-26 0 -40 14.5z" />
    <glyph glyph-name="Amacron" unicode="&#x100;" horiz-adv-x="654" 
d="M663 6q0 -6 -3 -6q-18 0 -56 2q-42 2 -67 2q-26 0 -64 -2q-36 -2 -53 -2q-4 0 -4 6t4 6q30 0 43 6.5t13 23.5q0 15 -12 42l-88 211h-158l-68 -166q-16 -38 -16 -61q0 -29 23 -42.5t71 -13.5q4 0 4 -6t-5 -6q-13 0 -57 2q-50 2 -76 2q-24 0 -56 -2q-28 -2 -46 -2
q-4 0 -4 6t4 6q30 0 65.5 32.5t61.5 91.5l211 498q0 3 7 3q9 0 13 -4l224 -549q15 -35 22.5 -47t21.5 -18.5t42 -6.5q3 0 3 -6zM230 323h135l-68 163zM211 718q-3 6 -3 14t3 14t7 6h228q5 0 8 -6t3 -14t-3 -14t-8 -6h-228q-4 0 -7 6z" />
    <glyph glyph-name="amacron" unicode="&#x101;" horiz-adv-x="477" 
d="M476 78q3 0 6 -3.5t2 -5.5q-28 -39 -54 -58.5t-53 -19.5q-36 0 -54 24t-18 74v68q-27 -80 -76 -125t-104 -45q-41 0 -66.5 27.5t-25.5 84.5q0 66 36 136.5t92.5 117t115.5 46.5q21 0 43.5 -6.5t40.5 -19.5q19 15 28 34q2 2 4 2q3 0 6.5 -2t2.5 -3l-2 -315q-1 -23 4.5 -35
t16.5 -12q10 0 24 9.5t28 25.5q1 1 3 1zM243.5 92q28.5 32 45 78.5t16.5 85.5q0 44 -20.5 69t-55.5 25q-51 0 -80 -49.5t-29 -128.5q1 -59 18 -85.5t44 -26.5q33 0 61.5 32zM139 479q-3 6 -3 14t3 14t7 6h228q5 0 8 -6t3 -14t-3 -14t-8 -6h-228q-4 0 -7 6z" />
    <glyph glyph-name="Abreve" unicode="&#x102;" horiz-adv-x="654" 
d="M663 6q0 -6 -3 -6q-18 0 -56 2q-42 2 -67 2q-26 0 -64 -2q-36 -2 -53 -2q-4 0 -4 6t4 6q30 0 43 6.5t13 23.5q0 15 -12 42l-88 211h-158l-68 -166q-16 -38 -16 -61q0 -29 23 -42.5t71 -13.5q4 0 4 -6t-5 -6q-13 0 -57 2q-50 2 -76 2q-24 0 -56 -2q-28 -2 -46 -2
q-4 0 -4 6t4 6q30 0 65.5 32.5t61.5 91.5l211 498q0 3 7 3q9 0 13 -4l224 -549q15 -35 22.5 -47t21.5 -18.5t42 -6.5q3 0 3 -6zM230 323h135l-68 163zM271.5 690q-27.5 25 -37.5 72q-1 6 21.5 11.5t42.5 5.5q16 0 17 -4q7 -25 20.5 -38.5t29.5 -13.5q15 0 27.5 12t19.5 36
q0 3 5 3q4 0 8 -2t3 -4q-9 -50 -36 -76.5t-60 -26.5t-60.5 25z" />
    <glyph glyph-name="abreve" unicode="&#x103;" horiz-adv-x="477" 
d="M476 78q3 0 6 -3.5t2 -5.5q-28 -39 -54 -58.5t-53 -19.5q-36 0 -54 24t-18 74v68q-27 -80 -76 -125t-104 -45q-41 0 -66.5 27.5t-25.5 84.5q0 66 36 136.5t92.5 117t115.5 46.5q21 0 43.5 -6.5t40.5 -19.5q19 15 28 34q2 2 4 2q3 0 6.5 -2t2.5 -3l-2 -315q-1 -23 4.5 -35
t16.5 -12q10 0 24 9.5t28 25.5q1 1 3 1zM243.5 92q28.5 32 45 78.5t16.5 85.5q0 44 -20.5 69t-55.5 25q-51 0 -80 -49.5t-29 -128.5q1 -59 18 -85.5t44 -26.5q33 0 61.5 32zM195.5 499q-27.5 25 -37.5 72q-1 6 21.5 11.5t42.5 5.5q16 0 17 -4q7 -25 20.5 -38.5t29.5 -13.5
q15 0 27.5 12t19.5 36q0 3 5 3q4 0 8 -2t3 -4q-9 -50 -36 -76.5t-60 -26.5t-60.5 25z" />
    <glyph glyph-name="Aogonek" unicode="&#x104;" horiz-adv-x="654" 
d="M663 6q0 -6 -3 -6l-104 1q-45 0 -72 -38t-27 -94q0 -45 26.5 -71.5t70.5 -26.5q18 0 26 4t20 14q0 1 2 1q3 0 5 -3.5t0 -5.5q-27 -30 -52 -43t-57 -13q-49 0 -87.5 25t-38.5 73q0 31 13.5 55t40.5 56q26 32 38 53t12 47q0 22 -12 50l-88 211h-158l-68 -166
q-16 -38 -16 -61q0 -29 23 -42.5t71 -13.5q4 0 4 -6t-5 -6q-13 0 -57 2q-50 2 -76 2q-24 0 -56 -2q-28 -2 -46 -2q-4 0 -4 6t4 6q30 0 65.5 32.5t61.5 91.5l211 498q0 3 7 3q9 0 13 -4l224 -549q19 -43 36 -57.5t50 -14.5q3 0 3 -6zM230 323h135l-68 163z" />
    <glyph glyph-name="aogonek" unicode="&#x105;" horiz-adv-x="480" 
d="M479 -197q3 0 6 -4t0 -6q-20 -33 -52.5 -50.5t-67.5 -17.5q-40 0 -67 22t-27 61q0 41 29.5 90t80.5 93h-4q-36 0 -54 24t-18 74l-1 63q-27 -78 -75.5 -121.5t-103.5 -43.5q-41 0 -66.5 27.5t-25.5 84.5q0 66 36 136.5t92.5 117t115.5 46.5q24 0 46.5 -7.5t37.5 -17.5
q18 14 28 33q2 2 4 2q3 0 6.5 -2t2.5 -3l-2 -315q-1 -23 4.5 -35t16.5 -12q10 0 24 9.5t28 25.5q1 1 3 1q3 0 6 -3.5t2 -5.5q-50 -52 -75.5 -86t-35.5 -62.5t-10 -64.5t17.5 -57t48.5 -21q17 0 27.5 6.5t20.5 17.5zM284.5 325q-20.5 25 -55.5 25q-51 0 -80 -49.5t-29 -128.5
q1 -59 18 -85.5t44 -26.5q33 0 61.5 32t45 78.5t16.5 85.5q0 44 -20.5 69z" />
    <glyph glyph-name="Cacute" unicode="&#x106;" horiz-adv-x="635" 
d="M185 36q-79 48 -114 121.5t-35 155.5q0 99 48.5 172.5t129 112t174.5 38.5q46 0 96 -8.5t81 -20.5q8 -5 10.5 -9t2.5 -14l7 -134q0 -3 -4.5 -3t-6.5 3q-37 76 -94.5 117.5t-130.5 41.5q-95 0 -145.5 -69t-50.5 -194q0 -90 31.5 -168t85.5 -124t119 -46q103 0 192 152
q2 3 5 3q6 0 6 -6l-6 -115q-2 -13 -4 -16.5t-11 -6.5q-88 -31 -184 -31q-123 0 -202 48zM313 678q-4 0 -6 4.5t1 6.5q25 20 66 63l41 41q5 5 36.5 -3.5t57 -20t14.5 -13.5q-107 -28 -208 -77z" />
    <glyph glyph-name="cacute" unicode="&#x107;" horiz-adv-x="372" 
d="M106.5 18q-42.5 31 -62.5 80.5t-17 103.5q1 53 31 98.5t78 72t98 26.5q43 0 78 -17t39 -50q2 -21 -10.5 -33t-38.5 -12q-27 0 -40 12t-23 33q-10 19 -20 29t-28 10q-32 0 -50.5 -34t-18.5 -91q0 -92 37.5 -151t109.5 -59q52 0 82 24h1q3 0 6.5 -3.5t1.5 -6.5
q-31 -35 -68 -49t-80 -14q-63 0 -105.5 31zM199 471q-3 0 -6 2t-2 3l33 240q1 6 27.5 11t50.5 5q23 0 20 -5l-119 -254q-2 -2 -4 -2z" />
    <glyph glyph-name="Ccircumflex" unicode="&#x108;" horiz-adv-x="635" 
d="M185 36q-79 48 -114 121.5t-35 155.5q0 99 48.5 172.5t129 112t174.5 38.5q46 0 96 -8.5t81 -20.5q8 -5 10.5 -9t2.5 -14l7 -134q0 -3 -4.5 -3t-6.5 3q-37 76 -94.5 117.5t-130.5 41.5q-95 0 -145.5 -69t-50.5 -194q0 -90 31.5 -168t85.5 -124t119 -46q103 0 192 152
q2 3 5 3q6 0 6 -6l-6 -115q-2 -13 -4 -16.5t-11 -6.5q-88 -31 -184 -31q-123 0 -202 48zM273 660q-3 0 -5.5 2.5t-0.5 4.5l95 115q3 5 8 5t10 -5l104 -115q2 -2 -0.5 -5.5t-4.5 -1.5l-102 38l-103 -38h-1z" />
    <glyph glyph-name="ccircumflex" unicode="&#x109;" horiz-adv-x="372" 
d="M106.5 18q-42.5 31 -62.5 80.5t-17 103.5q1 53 31 98.5t78 72t98 26.5q43 0 78 -17t39 -50q2 -21 -10.5 -33t-38.5 -12q-27 0 -40 12t-23 33q-10 19 -20 29t-28 10q-32 0 -50.5 -34t-18.5 -91q0 -92 37.5 -151t109.5 -59q52 0 82 24h1q3 0 6.5 -3.5t1.5 -6.5
q-31 -35 -68 -49t-80 -14q-63 0 -105.5 31zM299 477q1 -2 -5 -2.5t-7 1.5l-72 108l-74 -110q-2 -2 -4 -2q-3 0 -5.5 1.5t-2.5 3.5l76 249q1 5 10 5q8 0 9 -5z" />
    <glyph glyph-name="Cdotaccent" unicode="&#x10a;" horiz-adv-x="635" 
d="M185 36q-79 48 -114 121.5t-35 155.5q0 99 48.5 172.5t129 112t174.5 38.5q46 0 96 -8.5t81 -20.5q8 -5 10.5 -9t2.5 -14l7 -134q0 -3 -4.5 -3t-6.5 3q-37 76 -94.5 117.5t-130.5 41.5q-95 0 -145.5 -69t-50.5 -194q0 -90 31.5 -168t85.5 -124t119 -46q103 0 192 152
q2 3 5 3q6 0 6 -6l-6 -115q-2 -13 -4 -16.5t-11 -6.5q-88 -31 -184 -31q-123 0 -202 48zM330 729.5q-16 16.5 -16 44.5q0 26 16.5 42t44.5 16q27 0 42.5 -15.5t15.5 -42.5q0 -29 -15 -45t-43 -16q-29 0 -45 16.5z" />
    <glyph glyph-name="cdotaccent" unicode="&#x10b;" horiz-adv-x="372" 
d="M106.5 18q-42.5 31 -62.5 80.5t-17 103.5q1 53 31 98.5t78 72t98 26.5q43 0 78 -17t39 -50q2 -21 -10.5 -33t-38.5 -12q-27 0 -40 12t-23 33q-10 19 -20 29t-28 10q-32 0 -50.5 -34t-18.5 -91q0 -92 37.5 -151t109.5 -59q52 0 82 24h1q3 0 6.5 -3.5t1.5 -6.5
q-31 -35 -68 -49t-80 -14q-63 0 -105.5 31zM167 511q-16 16 -16 45q0 26 16.5 41.5t44.5 15.5t43 -15t15 -42q0 -29 -15 -45t-43 -16q-29 0 -45 16z" />
    <glyph glyph-name="Ccaron" unicode="&#x10c;" horiz-adv-x="635" 
d="M185 36q-79 48 -114 121.5t-35 155.5q0 99 48.5 172.5t129 112t174.5 38.5q46 0 96 -8.5t81 -20.5q8 -5 10.5 -9t2.5 -14l7 -134q0 -3 -4.5 -3t-6.5 3q-37 76 -94.5 117.5t-130.5 41.5q-95 0 -145.5 -69t-50.5 -194q0 -90 31.5 -168t85.5 -124t119 -46q103 0 192 152
q2 3 5 3q6 0 6 -6l-6 -115q-2 -13 -4 -16.5t-11 -6.5q-88 -31 -184 -31q-123 0 -202 48zM260 791l-1 2q0 2 2.5 4t4.5 1l102 -39l103 39q2 1 5.5 -2.5t1.5 -4.5l-96 -116q-3 -4 -9 -4t-10 4z" />
    <glyph glyph-name="ccaron" unicode="&#x10d;" horiz-adv-x="372" 
d="M106.5 18q-42.5 31 -62.5 80.5t-17 103.5q1 53 31 98.5t78 72t98 26.5q43 0 78 -17t39 -50q2 -21 -10.5 -33t-38.5 -12q-27 0 -40 12t-23 33q-10 19 -20 29t-28 10q-32 0 -50.5 -34t-18.5 -91q0 -92 37.5 -151t109.5 -59q52 0 82 24h1q3 0 6.5 -3.5t1.5 -6.5
q-31 -35 -68 -49t-80 -14q-63 0 -105.5 31zM127 726q-1 3 4 3.5t6 -2.5l73 -107l75 110q1 1 3 1q3 0 5.5 -1.5t2.5 -3.5l-76 -249q-2 -5 -9 -5t-9 5z" />
    <glyph glyph-name="Dcaron" unicode="&#x10e;" horiz-adv-x="688" 
d="M247 -1q-14 1 -34 2t-45 1l-74 -1q-18 -1 -51 -1q-2 0 -2 6t2 6q31 0 45 5t19.5 19.5t4.5 44.5v463q-2 30 -7.5 44t-19.5 19.5t-42 5.5q-2 0 -2 6t2 6l51 -1q44 -2 72 -2q33 0 66 3q42 2 62 2q105 0 186 -38.5t126 -107.5t45 -158q0 -96 -47.5 -170.5t-125.5 -115.5
t-168 -41q-28 0 -63 3zM423 49.5q52 33.5 80.5 97.5t28.5 154q0 77 -25 146.5t-79.5 114.5t-138.5 45q-40 0 -54 -14.5t-14 -50.5v-450q1 -41 17.5 -58.5t62.5 -17.5q70 0 122 33.5zM170 791l-1 2q0 2 2.5 4t4.5 1l102 -39l103 39q2 1 5.5 -2.5t1.5 -4.5l-96 -116
q-3 -4 -9 -4t-10 4z" />
    <glyph glyph-name="dcaron" unicode="&#x10f;" horiz-adv-x="484" 
d="M491 79q4 0 6.5 -3.5t0.5 -6.5q-30 -41 -54.5 -59.5t-55.5 -18.5q-36 0 -52.5 24.5t-15.5 73.5l1 69q-30 -80 -72 -125.5t-98 -45.5q-48 0 -83 34.5t-35 103.5q0 70 36 133.5t92.5 102t115.5 38.5q25 0 45 -7l2 197q1 32 -6 46.5t-24 14.5q-18 0 -44 -13h-1q-4 0 -6.5 5
t0.5 7l158 76h2q4 0 8 -3t4 -5l-1 -628q-1 -26 5 -36.5t17 -10.5q12 0 23 8.5t28 26.5zM254.5 85q27.5 28 44.5 69t22 80l1 44q-6 34 -33.5 53t-63.5 19q-52 0 -79 -42t-27 -116q0 -135 73 -135q35 0 62.5 28zM468 723q1 5 20.5 -2.5t37 -20t15.5 -21.5l-55 -228
q-1 -2 -5.5 -2t-5.5 2z" />
    <glyph glyph-name="Dcroat" unicode="&#x110;" horiz-adv-x="688" 
d="M480 588.5q81 -38.5 126 -107.5t45 -158q0 -96 -47.5 -170.5t-125.5 -115.5t-168 -41q-28 0 -63 3q-14 1 -34 2t-45 1l-74 -1q-18 -1 -51 -1q-2 0 -2 6t2 6q31 0 45 5t19.5 19.5t4.5 44.5v216h-66q-4 0 -4 14t4 14h66v219q-2 30 -7.5 44t-19.5 19.5t-42 5.5q-2 0 -2 6
t2 6l51 -1q44 -2 72 -2q33 0 66 3q42 2 62 2q105 0 186 -38.5zM423 49.5q52 33.5 80.5 97.5t28.5 154q0 77 -25 146.5t-79.5 114.5t-138.5 45q-40 0 -54 -14.5t-14 -50.5v-217h87q4 0 4 -14t-4 -14h-87v-205q1 -41 17.5 -58.5t62.5 -17.5q70 0 122 33.5z" />
    <glyph glyph-name="dcroat" unicode="&#x111;" horiz-adv-x="484" 
d="M491 79q4 0 6.5 -3.5t0.5 -6.5q-30 -41 -54.5 -59.5t-55.5 -18.5q-36 0 -52.5 24.5t-15.5 73.5l1 69q-30 -80 -72 -125.5t-98 -45.5q-48 0 -83 34.5t-35 103.5q0 70 36 133.5t92.5 102t115.5 38.5q25 0 45 -7l1 106h-130q-4 0 -4 12t4 12h130l1 67q1 32 -6 46.5t-24 14.5
q-18 0 -44 -13h-1q-4 0 -6.5 5t0.5 7l158 76h2q4 0 8 -3t4 -5v-195h65q4 0 4 -12t-4 -12h-65l-1 -409q-1 -26 5 -36.5t17 -10.5q12 0 23 8.5t28 26.5zM254.5 85q27.5 28 44.5 69t22 80l1 44q-6 34 -33.5 53t-63.5 19q-52 0 -79 -42t-27 -116q0 -135 73 -135q35 0 62.5 28z
" />
    <glyph glyph-name="Emacron" unicode="&#x112;" horiz-adv-x="572" 
d="M527 161q3 0 6 -1.5t2 -2.5q-10 -65 -10 -142q0 -8 -3 -11.5t-12 -3.5h-456q-4 0 -4 6t3 6q30 0 43.5 5t18 19t4.5 45v463q0 30 -5 44t-19 19.5t-42 5.5q-3 0 -3.5 6t1.5 6h431q8 0 8 -9l2 -132q0 -3 -5.5 -3t-6.5 2q-17 56 -61.5 88.5t-105.5 32.5h-19q-31 0 -44.5 -4.5
t-17.5 -16.5t-5 -40v-204h125q51 0 75 18t24 58q0 4 7 4t7 -5l-1 -55q-1 -12 -1 -34q0 -32 1 -48l1 -54q0 -5 -6 -5q-3 0 -5.5 1.5t-2.5 3.5q0 43 -26.5 65.5t-74.5 22.5h-123v-226q0 -40 12.5 -52t52.5 -12h28q65 0 119 37.5t83 100.5q2 2 5 2zM170 718q-3 6 -3 14t3 14
t7 6h228q5 0 8 -6t3 -14t-3 -14t-8 -6h-228q-4 0 -7 6z" />
    <glyph glyph-name="emacron" unicode="&#x113;" horiz-adv-x="381" 
d="M361 63q3 0 6 -3t1 -5q-32 -35 -73 -51t-84 -16q-60 0 -102 27t-63 71t-21 94q0 54 28 104.5t79.5 82.5t118.5 32q45 0 70.5 -14t28.5 -40q4 -44 -62 -82t-163 -55q4 -77 40.5 -126.5t99.5 -49.5q24 0 49 7.5t45 23.5h2zM144.5 330.5q-19.5 -41.5 -19.5 -106.5
q121 28 117 100q0 22 -11.5 35t-31.5 13q-35 0 -54.5 -41.5zM89 479q-3 6 -3 14t3 14t7 6h228q5 0 8 -6t3 -14t-3 -14t-8 -6h-228q-4 0 -7 6z" />
    <glyph glyph-name="Ebreve" unicode="&#x114;" horiz-adv-x="572" 
d="M527 161q3 0 6 -1.5t2 -2.5q-10 -65 -10 -142q0 -8 -3 -11.5t-12 -3.5h-456q-4 0 -4 6t3 6q30 0 43.5 5t18 19t4.5 45v463q0 30 -5 44t-19 19.5t-42 5.5q-3 0 -3.5 6t1.5 6h431q8 0 8 -9l2 -132q0 -3 -5.5 -3t-6.5 2q-17 56 -61.5 88.5t-105.5 32.5h-19q-31 0 -44.5 -4.5
t-17.5 -16.5t-5 -40v-204h125q51 0 75 18t24 58q0 4 7 4t7 -5l-1 -55q-1 -12 -1 -34q0 -32 1 -48l1 -54q0 -5 -6 -5q-3 0 -5.5 1.5t-2.5 3.5q0 43 -26.5 65.5t-74.5 22.5h-123v-226q0 -40 12.5 -52t52.5 -12h28q65 0 119 37.5t83 100.5q2 2 5 2zM235.5 690
q-27.5 25 -37.5 72q-1 6 21.5 11.5t42.5 5.5q16 0 17 -4q7 -25 20.5 -38.5t29.5 -13.5q15 0 27.5 12t19.5 36q0 3 5 3q4 0 8 -2t3 -4q-9 -50 -36 -76.5t-60 -26.5t-60.5 25z" />
    <glyph glyph-name="ebreve" unicode="&#x115;" horiz-adv-x="381" 
d="M361 63q3 0 6 -3t1 -5q-32 -35 -73 -51t-84 -16q-60 0 -102 27t-63 71t-21 94q0 54 28 104.5t79.5 82.5t118.5 32q45 0 70.5 -14t28.5 -40q4 -44 -62 -82t-163 -55q4 -77 40.5 -126.5t99.5 -49.5q24 0 49 7.5t45 23.5h2zM144.5 330.5q-19.5 -41.5 -19.5 -106.5
q121 28 117 100q0 22 -11.5 35t-31.5 13q-35 0 -54.5 -41.5zM145.5 499q-27.5 25 -37.5 72q-1 6 21.5 11.5t42.5 5.5q16 0 17 -4q7 -25 20.5 -38.5t29.5 -13.5q15 0 27.5 12t19.5 36q0 3 5 3q4 0 8 -2t3 -4q-9 -50 -36 -76.5t-60 -26.5t-60.5 25z" />
    <glyph glyph-name="Edotaccent" unicode="&#x116;" horiz-adv-x="572" 
d="M527 161q3 0 6 -1.5t2 -2.5q-10 -65 -10 -142q0 -8 -3 -11.5t-12 -3.5h-456q-4 0 -4 6t3 6q30 0 43.5 5t18 19t4.5 45v463q0 30 -5 44t-19 19.5t-42 5.5q-3 0 -3.5 6t1.5 6h431q8 0 8 -9l2 -132q0 -3 -5.5 -3t-6.5 2q-17 56 -61.5 88.5t-105.5 32.5h-19q-31 0 -44.5 -4.5
t-17.5 -16.5t-5 -40v-204h125q51 0 75 18t24 58q0 4 7 4t7 -5l-1 -55q-1 -12 -1 -34q0 -32 1 -48l1 -54q0 -5 -6 -5q-3 0 -5.5 1.5t-2.5 3.5q0 43 -26.5 65.5t-74.5 22.5h-123v-226q0 -40 12.5 -52t52.5 -12h28q65 0 119 37.5t83 100.5q2 2 5 2zM251 729.5
q-16 16.5 -16 44.5q0 26 16.5 42t44.5 16q27 0 42.5 -15.5t15.5 -42.5q0 -29 -15 -45t-43 -16q-29 0 -45 16.5z" />
    <glyph glyph-name="edotaccent" unicode="&#x117;" horiz-adv-x="381" 
d="M361 63q3 0 6 -3t1 -5q-32 -35 -73 -51t-84 -16q-60 0 -102 27t-63 71t-21 94q0 54 28 104.5t79.5 82.5t118.5 32q45 0 70.5 -14t28.5 -40q4 -44 -62 -82t-163 -55q4 -77 40.5 -126.5t99.5 -49.5q24 0 49 7.5t45 23.5h2zM144.5 330.5q-19.5 -41.5 -19.5 -106.5
q121 28 117 100q0 22 -11.5 35t-31.5 13q-35 0 -54.5 -41.5zM170 511q-16 16 -16 45q0 26 16.5 41.5t44.5 15.5t43 -15t15 -42q0 -29 -15 -45t-43 -16q-29 0 -45 16z" />
    <glyph glyph-name="Eogonek" unicode="&#x118;" horiz-adv-x="572" 
d="M530 -211q3 0 5.5 -4t0.5 -6q-23 -29 -45.5 -41.5t-50.5 -12.5q-46 0 -74.5 29.5t-28.5 73.5q0 42 28 82.5t82 89.5h-393q-4 0 -4 6t3 6q30 0 43.5 5t18 19t4.5 45v463q0 30 -5 44t-19 19.5t-42 5.5q-3 0 -3.5 6t1.5 6h431q8 0 8 -9l2 -132q0 -3 -5.5 -3t-6.5 2
q-17 56 -61.5 88.5t-105.5 32.5h-19q-31 0 -44.5 -4.5t-17.5 -16.5t-5 -40v-204h125q51 0 75 18t24 58q0 4 7 4t7 -5l-1 -55q-1 -12 -1 -34q0 -32 1 -48l1 -54q0 -5 -6 -5q-3 0 -5.5 1.5t-2.5 3.5q0 43 -26.5 65.5t-74.5 22.5h-123v-226q0 -40 12.5 -52t52.5 -12h28
q65 0 119 37.5t83 100.5q2 2 5 2t6 -1.5t2 -2.5q-10 -65 -10 -142q0 -8 -3 -11.5t-12 -3.5h-41q-24 -38 -37 -70.5t-12 -67.5q0 -39 17.5 -66.5t47.5 -27.5q13 0 24.5 5.5t18.5 14.5z" />
    <glyph glyph-name="eogonek" unicode="&#x119;" horiz-adv-x="381" 
d="M360 47q-58 -60 -82 -105t-24 -85q0 -33 13.5 -55.5t41.5 -22.5q15 0 28 6.5t20 15.5q1 1 3 1t4.5 -2.5t1.5 -4.5q-11 -28 -37 -49t-61 -21q-38 0 -67.5 24t-29.5 67q0 38 28 79t100 111q-40 -18 -88 -18q-60 0 -102 27t-63 71t-21 94q0 54 28 104.5t79.5 82.5t118.5 32
q45 0 70.5 -14t28.5 -40q4 -44 -62 -82t-163 -55q4 -77 40.5 -126.5t99.5 -49.5q24 0 49 7.5t45 23.5h2q3 0 6 -3t1 -5zM144.5 330.5q-19.5 -41.5 -19.5 -106.5q121 28 117 100q0 22 -11.5 35t-31.5 13q-35 0 -54.5 -41.5z" />
    <glyph glyph-name="Ecaron" unicode="&#x11a;" horiz-adv-x="572" 
d="M527 161q3 0 6 -1.5t2 -2.5q-10 -65 -10 -142q0 -8 -3 -11.5t-12 -3.5h-456q-4 0 -4 6t3 6q30 0 43.5 5t18 19t4.5 45v463q0 30 -5 44t-19 19.5t-42 5.5q-3 0 -3.5 6t1.5 6h431q8 0 8 -9l2 -132q0 -3 -5.5 -3t-6.5 2q-17 56 -61.5 88.5t-105.5 32.5h-19q-31 0 -44.5 -4.5
t-17.5 -16.5t-5 -40v-204h125q51 0 75 18t24 58q0 4 7 4t7 -5l-1 -55q-1 -12 -1 -34q0 -32 1 -48l1 -54q0 -5 -6 -5q-3 0 -5.5 1.5t-2.5 3.5q0 43 -26.5 65.5t-74.5 22.5h-123v-226q0 -40 12.5 -52t52.5 -12h28q65 0 119 37.5t83 100.5q2 2 5 2zM181 791l-1 2q0 2 2.5 4
t4.5 1l102 -39l103 39q2 1 5.5 -2.5t1.5 -4.5l-96 -116q-3 -4 -9 -4t-10 4z" />
    <glyph glyph-name="ecaron" unicode="&#x11b;" horiz-adv-x="381" 
d="M361 63q3 0 6 -3t1 -5q-32 -35 -73 -51t-84 -16q-60 0 -102 27t-63 71t-21 94q0 54 28 104.5t79.5 82.5t118.5 32q45 0 70.5 -14t28.5 -40q4 -44 -62 -82t-163 -55q4 -77 40.5 -126.5t99.5 -49.5q24 0 49 7.5t45 23.5h2zM144.5 330.5q-19.5 -41.5 -19.5 -106.5
q121 28 117 100q0 22 -11.5 35t-31.5 13q-35 0 -54.5 -41.5zM130 726q-1 3 4 3.5t6 -2.5l73 -107l75 110q1 1 3 1q3 0 5.5 -1.5t2.5 -3.5l-76 -249q-2 -5 -9 -5t-9 5z" />
    <glyph glyph-name="Gcircumflex" unicode="&#x11c;" horiz-adv-x="684" 
d="M203.5 31q-81.5 43 -124.5 118.5t-43 169.5q0 91 48 163.5t131 113t185 40.5q47 0 96 -8.5t77 -20.5q8 -4 10 -8t3 -15l8 -131q0 -4 -5 -5t-7 2q-35 76 -92 118.5t-132 42.5q-97 0 -151 -68.5t-54 -186.5q0 -103 36 -182t98.5 -122t141.5 -43q36 0 55 10.5t26.5 35
t7.5 71.5q0 49 -9 71t-33 29t-77 7q-6 0 -6 8q0 3 1.5 5.5t3.5 2.5q83 -5 138 -5q52 0 108 3q4 0 5 -7t-3 -7q-16 1 -20 -8t-4 -41v-68q0 -45 3 -63t3 -25q0 -6 -1.5 -8t-7.5 -4q-128 -28 -223 -28q-111 0 -192.5 43zM281 660q-3 0 -5.5 2.5t-0.5 4.5l95 115q3 5 8 5t10 -5
l104 -115q2 -2 -0.5 -5.5t-4.5 -1.5l-102 38l-103 -38h-1z" />
    <glyph glyph-name="gcircumflex" unicode="&#x11d;" horiz-adv-x="455" 
d="M394 409q3 0 5.5 -1.5t2.5 -3.5l-1 -437q-1 -118 -57.5 -183t-156.5 -65q-65 0 -105.5 24.5t-40.5 63.5q0 19 13.5 29t32.5 10q23 0 34.5 -12t23.5 -38q13 -28 27 -42.5t44 -14.5q41 0 64.5 43.5t24.5 161.5v213q-27 -80 -76 -125t-104 -45q-41 0 -66.5 27.5t-25.5 84.5
q0 66 36 136.5t92.5 117t115.5 46.5q21 0 43.5 -6.5t40.5 -19.5q19 15 28 34q2 2 5 2zM243.5 92q28.5 32 45 78.5t16.5 85.5q0 44 -20.5 69t-55.5 25q-51 0 -80 -49.5t-29 -128.5q1 -59 18 -85.5t44 -26.5q33 0 61.5 32zM344 477q1 -2 -5 -2.5t-7 1.5l-72 108l-74 -110
q-2 -2 -4 -2q-3 0 -5.5 1.5t-2.5 3.5l76 249q1 5 10 5q8 0 9 -5z" />
    <glyph glyph-name="Gbreve" unicode="&#x11e;" horiz-adv-x="684" 
d="M203.5 31q-81.5 43 -124.5 118.5t-43 169.5q0 91 48 163.5t131 113t185 40.5q47 0 96 -8.5t77 -20.5q8 -4 10 -8t3 -15l8 -131q0 -4 -5 -5t-7 2q-35 76 -92 118.5t-132 42.5q-97 0 -151 -68.5t-54 -186.5q0 -103 36 -182t98.5 -122t141.5 -43q36 0 55 10.5t26.5 35
t7.5 71.5q0 49 -9 71t-33 29t-77 7q-6 0 -6 8q0 3 1.5 5.5t3.5 2.5q83 -5 138 -5q52 0 108 3q4 0 5 -7t-3 -7q-16 1 -20 -8t-4 -41v-68q0 -45 3 -63t3 -25q0 -6 -1.5 -8t-7.5 -4q-128 -28 -223 -28q-111 0 -192.5 43zM317.5 690q-27.5 25 -37.5 72q-1 6 21.5 11.5t42.5 5.5
q16 0 17 -4q7 -25 20.5 -38.5t29.5 -13.5q15 0 27.5 12t19.5 36q0 3 5 3q4 0 8 -2t3 -4q-9 -50 -36 -76.5t-60 -26.5t-60.5 25z" />
    <glyph glyph-name="gbreve" unicode="&#x11f;" horiz-adv-x="455" 
d="M394 409q3 0 5.5 -1.5t2.5 -3.5l-1 -437q-1 -118 -57.5 -183t-156.5 -65q-65 0 -105.5 24.5t-40.5 63.5q0 19 13.5 29t32.5 10q23 0 34.5 -12t23.5 -38q13 -28 27 -42.5t44 -14.5q41 0 64.5 43.5t24.5 161.5v213q-27 -80 -76 -125t-104 -45q-41 0 -66.5 27.5t-25.5 84.5
q0 66 36 136.5t92.5 117t115.5 46.5q21 0 43.5 -6.5t40.5 -19.5q19 15 28 34q2 2 5 2zM243.5 92q28.5 32 45 78.5t16.5 85.5q0 44 -20.5 69t-55.5 25q-51 0 -80 -49.5t-29 -128.5q1 -59 18 -85.5t44 -26.5q33 0 61.5 32zM185 504q-27 29 -34 67q-1 6 22.5 11t43.5 5
q15 0 15 -3q6 -23 20 -37.5t31 -14.5q18 0 28 11t18 37q1 3 5 3t8 -2t3 -4q-11 -51 -32 -76.5t-58 -25.5q-43 0 -70 29z" />
    <glyph glyph-name="Gdotaccent" unicode="&#x120;" horiz-adv-x="684" 
d="M203.5 31q-81.5 43 -124.5 118.5t-43 169.5q0 91 48 163.5t131 113t185 40.5q47 0 96 -8.5t77 -20.5q8 -4 10 -8t3 -15l8 -131q0 -4 -5 -5t-7 2q-35 76 -92 118.5t-132 42.5q-97 0 -151 -68.5t-54 -186.5q0 -103 36 -182t98.5 -122t141.5 -43q36 0 55 10.5t26.5 35
t7.5 71.5q0 49 -9 71t-33 29t-77 7q-6 0 -6 8q0 3 1.5 5.5t3.5 2.5q83 -5 138 -5q52 0 108 3q4 0 5 -7t-3 -7q-16 1 -20 -8t-4 -41v-68q0 -45 3 -63t3 -25q0 -6 -1.5 -8t-7.5 -4q-128 -28 -223 -28q-111 0 -192.5 43zM338 729.5q-16 16.5 -16 44.5q0 26 16.5 42t44.5 16
q27 0 42.5 -15.5t15.5 -42.5q0 -29 -15 -45t-43 -16q-29 0 -45 16.5z" />
    <glyph glyph-name="gdotaccent" unicode="&#x121;" horiz-adv-x="455" 
d="M394 409q3 0 5.5 -1.5t2.5 -3.5l-1 -437q-1 -118 -57.5 -183t-156.5 -65q-65 0 -105.5 24.5t-40.5 63.5q0 19 13.5 29t32.5 10q23 0 34.5 -12t23.5 -38q13 -28 27 -42.5t44 -14.5q41 0 64.5 43.5t24.5 161.5v213q-27 -80 -76 -125t-104 -45q-41 0 -66.5 27.5t-25.5 84.5
q0 66 36 136.5t92.5 117t115.5 46.5q21 0 43.5 -6.5t40.5 -19.5q19 15 28 34q2 2 5 2zM243.5 92q28.5 32 45 78.5t16.5 85.5q0 44 -20.5 69t-55.5 25q-51 0 -80 -49.5t-29 -128.5q1 -59 18 -85.5t44 -26.5q33 0 61.5 32zM212 511q-16 16 -16 45q0 26 16.5 41.5t44.5 15.5
q27 0 42.5 -15t15.5 -42q0 -29 -15 -45t-43 -16q-29 0 -45 16z" />
    <glyph glyph-name="Gcommaaccent" unicode="&#x122;" horiz-adv-x="684" 
d="M203.5 31q-81.5 43 -124.5 118.5t-43 169.5q0 91 48 163.5t131 113t185 40.5q47 0 96 -8.5t77 -20.5q8 -4 10 -8t3 -15l8 -131q0 -4 -5 -5t-7 2q-35 76 -92 118.5t-132 42.5q-97 0 -151 -68.5t-54 -186.5q0 -103 36 -182t98.5 -122t141.5 -43q36 0 55 10.5t26.5 35
t7.5 71.5q0 49 -9 71t-33 29t-77 7q-6 0 -6 8q0 3 1.5 5.5t3.5 2.5q83 -5 138 -5q52 0 108 3q4 0 5 -7t-3 -7q-16 1 -20 -8t-4 -41v-68q0 -45 3 -63t3 -25q0 -6 -1.5 -8t-7.5 -4q-128 -28 -223 -28q-111 0 -192.5 43zM458 -91q18 -22 18 -59q0 -39 -20 -69t-56 -56l-2 -1
q-4 0 -6 4.5t1 6.5q22 16 35 32.5t13 34.5q0 23 -10 33q-10 -19 -40 -19q-22 0 -36 16t-14 41q0 27 19 42.5t46 15.5q34 0 52 -22z" />
    <glyph glyph-name="gcommaaccent" unicode="&#x123;" horiz-adv-x="455" 
d="M205 477q-18 22 -18 59q0 39 20 69t56 56l2 1q4 0 6 -4.5t-1 -6.5q-22 -16 -35 -32.5t-13 -34.5q0 -23 10 -33q10 19 40 19q22 0 36 -16t14 -41q0 -27 -19 -42.5t-46 -15.5q-34 0 -52 22zM394 409q3 0 5.5 -1.5t2.5 -3.5l-1 -437q-1 -118 -57.5 -183t-156.5 -65
q-65 0 -105.5 24.5t-40.5 63.5q0 19 13.5 29t32.5 10q23 0 34.5 -12t23.5 -38q13 -28 27 -42.5t44 -14.5q41 0 64.5 43.5t24.5 161.5v213q-27 -80 -76 -125t-104 -45q-41 0 -66.5 27.5t-25.5 84.5q0 66 36 136.5t92.5 117t115.5 46.5q21 0 43.5 -6.5t40.5 -19.5q19 15 28 34
q2 2 5 2zM243.5 92q28.5 32 45 78.5t16.5 85.5q0 44 -20.5 69t-55.5 25q-51 0 -80 -49.5t-29 -128.5q1 -59 18 -85.5t44 -26.5q33 0 61.5 32z" />
    <glyph glyph-name="Hcircumflex" unicode="&#x124;" horiz-adv-x="731" 
d="M690 6q0 -6 -2 -6q-28 0 -46 1l-75 1l-72 -1q-19 -1 -52 -1q-2 0 -2.5 6t2.5 6q31 0 44.5 5t17.5 19t4 45v230h-288v-230q0 -30 5.5 -44t19.5 -19.5t44 -5.5q3 0 3 -6t-3 -6q-33 0 -51 1l-74 1l-69 -1q-19 -1 -50 -1q-3 0 -3 6t3 6q30 0 43.5 5t18 19t4.5 45v463
q1 42 -12 55.5t-54 13.5q-3 0 -3 6t3 6l48 -1q44 -2 71 -2t73 2l51 1q2 0 2 -6t-2 -6q-30 0 -44 -6t-18.5 -20.5t-5.5 -44.5v-203h287v203q0 43 -12.5 57t-53.5 14q-2 0 -2.5 6t2.5 6l49 -1q44 -2 72 -2q27 0 71 2l51 1q3 0 3 -6t-3 -6q-30 0 -43.5 -5.5t-18.5 -19.5t-7 -44
v-463q0 -29 6.5 -43.5t21.5 -20t44 -5.5q2 0 2 -6zM265 660q-3 0 -5.5 2.5t-0.5 4.5l95 115q3 5 8 5t10 -5l104 -115q2 -2 -0.5 -5.5t-4.5 -1.5l-102 38l-103 -38h-1z" />
    <glyph glyph-name="hcircumflex" unicode="&#x125;" horiz-adv-x="455" 
d="M488 79q4 0 6.5 -3.5t1.5 -6.5q-31 -41 -55.5 -59.5t-55.5 -18.5q-35 0 -51.5 24.5t-15.5 73.5l1 159q0 94 -46 94q-32 0 -58 -36.5t-41.5 -108t-16.5 -170.5v-15q0 -9 -15 -14.5t-44 -5.5q-35 0 -37 8v23q2 28 2 51l4 515q1 32 -6.5 47t-24.5 15q-16 0 -44 -14h-1
q-4 0 -6.5 5t1.5 7l158 76h2q4 0 8 -3t4 -5l-1 -495q21 85 62 131t97 46q97 0 97 -132l-2 -178q-2 -47 23 -47q19 0 51 36q1 1 3 1zM28.5 713.5q-3.5 3.5 -1.5 4.5l96 116q5 5 9 5q5 0 10 -5l103 -116v-1q0 -3 -2 -5t-4 -1l-102 39l-103 -39q-2 -1 -5.5 2.5z" />
    <glyph glyph-name="Hbar" unicode="&#x126;" horiz-adv-x="731" 
d="M690 6q0 -6 -2 -6q-28 0 -46 1l-75 1l-72 -1q-19 -1 -52 -1q-2 0 -2.5 6t2.5 6q31 0 44.5 5t17.5 19t4 45v137h-288v-137q0 -30 5.5 -44t19.5 -19.5t44 -5.5q3 0 3 -6t-3 -6q-33 0 -51 1l-74 1l-69 -1q-19 -1 -50 -1q-3 0 -3 6t3 6q30 0 43.5 5t18 19t4.5 45v463
q1 42 -12 55.5t-54 13.5q-3 0 -3 6t3 6l48 -1q44 -2 71 -2t73 2l51 1q2 0 2 -6t-2 -6q-30 0 -44 -6t-18.5 -20.5t-5.5 -44.5v-109h287v109q0 43 -12.5 57t-53.5 14q-2 0 -2.5 6t2.5 6l49 -1q44 -2 72 -2q27 0 71 2l51 1q3 0 3 -6t-3 -6q-30 0 -43.5 -5.5t-18.5 -19.5t-7 -44
v-463q0 -29 6.5 -43.5t21.5 -20t44 -5.5q2 0 2 -6zM221 246h288l-1 159h-287v-159z" />
    <glyph glyph-name="hbar" unicode="&#x127;" horiz-adv-x="489" 
d="M488 79q4 0 6.5 -3.5t1.5 -6.5q-31 -41 -55.5 -59.5t-55.5 -18.5q-35 0 -51.5 24.5t-15.5 73.5l1 159q0 94 -46 94q-32 0 -58 -36.5t-41.5 -108t-16.5 -170.5v-15q0 -9 -15 -14.5t-44 -5.5q-35 0 -37 8v23q2 28 2 51l3 424h-75q-2 0 -3.5 4t-1.5 8t1.5 8t3.5 4h75l1 67
q1 32 -6.5 47t-24.5 15q-16 0 -44 -14h-1q-4 0 -6.5 5t1.5 7l158 76h2q4 0 8 -3t4 -5v-195h119q2 0 3.5 -4t1.5 -9q0 -11 -4 -11h-120l-1 -276q21 85 62 131t97 46q97 0 97 -132l-2 -178q-2 -47 23 -47q19 0 51 36q1 1 3 1z" />
    <glyph glyph-name="Itilde" unicode="&#x128;" horiz-adv-x="358" 
d="M54 6q0 6 2 6q31 0 44.5 5t18.5 19t5 45v463q0 29 -5.5 43.5t-19.5 20t-43 5.5q-2 0 -2.5 6t2.5 6l50 -1q44 -2 71 -2q30 0 76 2l49 1q2 0 2 -6t-2 -6q-30 0 -44 -6t-18.5 -20t-5.5 -45v-461q0 -30 5.5 -44t19.5 -19.5t43 -5.5q2 0 2 -6t-2 -6q-31 0 -50 1l-73 1l-71 -1
q-19 -1 -52 -1q-2 0 -2 6zM45.5 685h-0.5q-2 0 -5 3t-2 5q16 34 36 57.5t50 23.5q9 0 47 -10q54 -15 78 -15q21 0 33.5 6t24.5 21h1q2 0 5 -2.5t2 -4.5q-21 -49 -37.5 -65t-42.5 -16q-17 0 -59 12q-5 1 -28 7t-43 6q-22 0 -31.5 -4.5t-17 -12l-10.5 -10.5q0 -1 -0.5 -1z" />
    <glyph glyph-name="itilde" unicode="&#x129;" horiz-adv-x="260" 
d="M98.5 15.5q-16.5 24.5 -14.5 73.5l4 208q1 49 -26 49q-22 0 -55 -40q-1 -1 -3 -1q-3 0 -6.5 3.5t-1.5 6.5q30 42 58.5 61t58.5 19q68 0 68 -86l-4 -220q-2 -47 23 -47q10 0 20.5 8t29.5 27q2 2 4 2q4 0 6.5 -3.5t1.5 -6.5q-30 -41 -55 -59.5t-56 -18.5q-36 0 -52.5 24.5z
M14 470q-2 0 -5 2.5t-2 4.5q39 81 82 81q12 0 34 -11q32 -14 50 -14q21 0 32 6.5t24 20.5q0 1 0.5 1h0.5q2 0 5 -3t2 -5q-22 -47 -38.5 -63.5t-37.5 -16.5q-12 0 -24.5 5t-16.5 6q-30 13 -49 13t-29 -5.5t-17 -12t-10 -9.5h-1z" />
    <glyph glyph-name="Imacron" unicode="&#x12a;" horiz-adv-x="358" 
d="M54 6q0 6 2 6q31 0 44.5 5t18.5 19t5 45v463q0 29 -5.5 43.5t-19.5 20t-43 5.5q-2 0 -2.5 6t2.5 6l50 -1q44 -2 71 -2q30 0 76 2l49 1q2 0 2 -6t-2 -6q-30 0 -44 -6t-18.5 -20t-5.5 -45v-461q0 -30 5.5 -44t19.5 -19.5t43 -5.5q2 0 2 -6t-2 -6q-31 0 -50 1l-73 1l-71 -1
q-19 -1 -52 -1q-2 0 -2 6zM50 718q-3 6 -3 14t3 14t7 6h228q5 0 8 -6t3 -14t-3 -14t-8 -6h-228q-4 0 -7 6z" />
    <glyph glyph-name="imacron" unicode="&#x12b;" horiz-adv-x="260" 
d="M98.5 15.5q-16.5 24.5 -14.5 73.5l4 208q1 49 -26 49q-22 0 -55 -40q-1 -1 -3 -1q-3 0 -6.5 3.5t-1.5 6.5q30 42 58.5 61t58.5 19q68 0 68 -86l-4 -220q-2 -47 23 -47q10 0 20.5 8t29.5 27q2 2 4 2q4 0 6.5 -3.5t1.5 -6.5q-30 -41 -55 -59.5t-56 -18.5q-36 0 -52.5 24.5z
M-2 479q-3 6 -3 14t3 14t7 6h228q5 0 8 -6t3 -14t-3 -14t-8 -6h-228q-4 0 -7 6z" />
    <glyph glyph-name="Ibreve" unicode="&#x12c;" horiz-adv-x="358" 
d="M54 6q0 6 2 6q31 0 44.5 5t18.5 19t5 45v463q0 29 -5.5 43.5t-19.5 20t-43 5.5q-2 0 -2.5 6t2.5 6l50 -1q44 -2 71 -2q30 0 76 2l49 1q2 0 2 -6t-2 -6q-30 0 -44 -6t-18.5 -20t-5.5 -45v-461q0 -30 5.5 -44t19.5 -19.5t43 -5.5q2 0 2 -6t-2 -6q-31 0 -50 1l-73 1l-71 -1
q-19 -1 -52 -1q-2 0 -2 6zM115.5 690q-27.5 25 -37.5 72q-1 6 21.5 11.5t42.5 5.5q16 0 17 -4q7 -25 20.5 -38.5t29.5 -13.5q15 0 27.5 12t19.5 36q0 3 5 3q4 0 8 -2t3 -4q-9 -50 -36 -76.5t-60 -26.5t-60.5 25z" />
    <glyph glyph-name="ibreve" unicode="&#x12d;" horiz-adv-x="260" 
d="M98.5 15.5q-16.5 24.5 -14.5 73.5l4 208q1 49 -26 49q-22 0 -55 -40q-1 -1 -3 -1q-3 0 -6.5 3.5t-1.5 6.5q30 42 58.5 61t58.5 19q68 0 68 -86l-4 -220q-2 -47 23 -47q10 0 20.5 8t29.5 27q2 2 4 2q4 0 6.5 -3.5t1.5 -6.5q-30 -41 -55 -59.5t-56 -18.5q-36 0 -52.5 24.5z
M52 504q-27 29 -34 67q-1 6 22.5 11t43.5 5q15 0 15 -3q6 -23 20 -37.5t31 -14.5q18 0 28 11t18 37q1 3 5 3t8 -2t3 -4q-11 -51 -32 -76.5t-58 -25.5q-43 0 -70 29z" />
    <glyph glyph-name="Iogonek" unicode="&#x12e;" horiz-adv-x="358" 
d="M304 6q0 -6 -2 -6q-28 0 -43 1l-63 1q-21 -65 -21 -115q0 -16 1 -25q1 -39 17 -65t43 -26q24 0 36 17l2 1q3 0 5.5 -4t0.5 -6q-23 -29 -45.5 -41.5t-50.5 -12.5q-40 0 -65.5 30.5t-25.5 74.5q-1 42 20.5 82t64.5 90l-71 -1q-18 -1 -51 -1q-2 0 -2 6t2 6q31 0 44.5 5
t18.5 19t5 45v463q0 29 -5.5 43.5t-19.5 20t-43 5.5q-2 0 -2.5 6t2.5 6l50 -1q44 -2 71 -2q30 0 76 2l49 1q2 0 2 -6t-2 -6q-30 0 -44 -6t-18.5 -20t-5.5 -45v-461q0 -30 5.5 -44t19.5 -19.5t43 -5.5q2 0 2 -6z" />
    <glyph glyph-name="iogonek" unicode="&#x12f;" horiz-adv-x="260" 
d="M81.5 511q-16.5 16 -16.5 45q0 26 16.5 41.5t44.5 15.5t43.5 -15t15.5 -42q0 -29 -15.5 -45t-43.5 -16t-44.5 16zM257 -197q4 0 6.5 -4t0.5 -6q-20 -34 -53 -51t-68 -17q-40 0 -67 21.5t-27 61.5q0 41 30 90.5t82 92.5h-9q-35 0 -51.5 24.5t-15.5 73.5l2 208q0 49 -26 49
q-22 0 -55 -40q-1 -1 -3 -1q-4 0 -7 3.5t-1 6.5q30 42 58 61t59 19q35 0 50.5 -21.5t16.5 -64.5l-1 -220q-1 -47 23 -47q19 0 50 35l4 2q4 0 7 -3.5t1 -6.5q-52 -54 -77.5 -86.5t-35.5 -59t-10 -59.5q0 -36 17.5 -61t50.5 -25q27 0 47 24z" />
    <glyph glyph-name="Idotaccent" unicode="&#x130;" horiz-adv-x="358" 
d="M54 6q0 6 2 6q31 0 44.5 5t18.5 19t5 45v463q0 29 -5.5 43.5t-19.5 20t-43 5.5q-2 0 -2.5 6t2.5 6l50 -1q44 -2 71 -2q30 0 76 2l49 1q2 0 2 -6t-2 -6q-30 0 -44 -6t-18.5 -20t-5.5 -45v-461q0 -30 5.5 -44t19.5 -19.5t43 -5.5q2 0 2 -6t-2 -6q-31 0 -50 1l-73 1l-71 -1
q-19 -1 -52 -1q-2 0 -2 6zM131 729.5q-16 16.5 -16 44.5q0 26 16.5 42t44.5 16q27 0 42.5 -15.5t15.5 -42.5q0 -29 -15 -45t-43 -16q-29 0 -45 16.5z" />
    <glyph glyph-name="dotlessi" unicode="&#x131;" horiz-adv-x="260" 
d="M98.5 15.5q-16.5 24.5 -14.5 73.5l4 208q1 49 -26 49q-22 0 -55 -40q-1 -1 -3 -1q-3 0 -6.5 3.5t-1.5 6.5q30 42 58.5 61t58.5 19q68 0 68 -86l-4 -220q-2 -47 23 -47q10 0 20.5 8t29.5 27q2 2 4 2q4 0 6.5 -3.5t1.5 -6.5q-30 -41 -55 -59.5t-56 -18.5q-36 0 -52.5 24.5z
" />
    <glyph glyph-name="IJ" unicode="&#x132;" horiz-adv-x="669" 
d="M20.5 275q-0.5 6 4.5 6q32 0 46.5 5t19.5 19t5 45v194q0 30 -5.5 44t-20 19.5t-45.5 5.5q-4 0 -4 6t4 6l56 -1q44 -2 72 -2q31 0 79 2l50 1q5 0 5 -6t-5 -6q-32 0 -47 -6t-20 -20t-6 -45v-192q0 -30 5.5 -44.5t20.5 -19.5t46 -5q4 0 4.5 -6t-3.5 -6q-34 0 -54 1l-77 1
l-72 -1q-20 -1 -53 -1q-5 0 -5.5 6zM211.5 7.5q-53.5 21.5 -85.5 56t-34 72.5q-2 25 11.5 40t43.5 15q37 0 50 -20t21 -61q6 -33 14.5 -53.5t31 -35t65.5 -14.5q77 0 114 51t37 142v344q0 30 -6 44t-23.5 19.5t-54.5 5.5q-3 0 -3 6t3 6l61 -1q48 -2 76 -2q29 0 73 2l48 1
q5 0 5 -6t-5 -6q-28 0 -41 -6t-17.5 -20.5t-4.5 -44.5l2 -284q0 -86 -33.5 -147.5t-93 -93t-136.5 -31.5q-65 0 -118.5 21.5z" />
    <glyph glyph-name="ij" unicode="&#x133;" horiz-adv-x="441" 
d="M57 511q-16 16 -16 45q0 26 16.5 41.5t44.5 15.5t43 -15t15 -42q0 -29 -15 -45t-43 -16q-29 0 -45 16zM259 511q-16 16 -16 45q0 26 16.5 41.5t44.5 15.5t43 -15t15 -42q0 -29 -15 -45t-43 -16q-29 0 -45 16zM381.5 392.5q7.5 -1.5 9.5 -4.5q0 -41 -3 -76l-2 -382
q-1 -94 -50.5 -152.5t-134.5 -58.5q-57 0 -94.5 22t-35.5 54q0 26 12 38.5t30 12.5q21 0 31.5 -11.5t21.5 -36.5q12 -28 26 -43t45 -15q30 0 47 36t17 130l1 257q-20 -85 -56.5 -130.5t-87.5 -45.5q-43 0 -66 33t-22 99l4 178q1 47 -21 47q-9 0 -19.5 -8.5t-26.5 -26.5
q-2 -2 -4 -2q-3 0 -5.5 3.5t-1.5 6.5q28 41 50 59.5t50 18.5q65 0 62 -98l-4 -159q-1 -47 10.5 -70.5t33.5 -23.5q27 0 49.5 34.5t37.5 100.5t17 157l1 44q0 6 11.5 10t32.5 4q27 0 34.5 -1.5z" />
    <glyph glyph-name="Jcircumflex" unicode="&#x134;" horiz-adv-x="337" 
d="M35.5 -189q-2.5 5 -0.5 7q44 27 63 81.5t17 140.5v504q0 29 -5.5 43.5t-19.5 20t-43 5.5q-3 0 -3 6t3 6l52 -1q42 -2 68 -2q34 0 78 2l47 1q3 0 3.5 -6t-3.5 -6q-29 0 -43 -6t-18.5 -20.5t-5.5 -44.5v-475q0 -78 -18.5 -126.5t-57.5 -78.5t-107 -55q-4 -1 -6.5 4zM62 660
q-3 0 -5.5 2.5t-0.5 4.5l95 115q3 5 8 5t10 -5l104 -115q2 -2 -0.5 -5.5t-4.5 -1.5l-102 38l-103 -38h-1z" />
    <glyph glyph-name="jcircumflex" unicode="&#x135;" horiz-adv-x="262" 
d="M-17 -258q-30 17 -30 42q0 18 12 28t30 10q27 0 38.5 -12t21.5 -35q6 -16 11.5 -23t16.5 -7q9 0 12.5 9.5t5 32.5t1.5 73v93v344q0 49 -26 49q-22 0 -55 -40q-1 -1 -3 -1q-3 0 -6.5 3.5t-0.5 6.5q31 43 58.5 61.5t57.5 18.5q35 0 51 -21.5t17 -64.5v-330
q1 -96 -11.5 -150.5t-41.5 -79t-80 -24.5q-49 0 -79 17zM215 477q1 -2 -5 -2.5t-7 1.5l-72 108l-74 -110q-2 -2 -4 -2q-3 0 -5.5 1.5t-2.5 3.5l76 249q1 5 10 5q8 0 9 -5z" />
    <glyph glyph-name="Kcommaaccent" unicode="&#x136;" horiz-adv-x="675" 
d="M680.5 6q0.5 -6 -3.5 -6h-102q-59 0 -73.5 6t-47 58t-65.5 96l-129 175l-39 -39v-215q0 -34 3 -46.5t16.5 -17.5t47.5 -5q2 0 2 -6t-2 -6q-33 0 -50 1l-75 1l-69 -1q-19 -1 -51 -1q-2 0 -2 6t2 6q31 0 45 5t19 19.5t5 44.5v463q0 30 -5 44t-19 19.5t-42 5.5q-3 0 -3 6
t3 6l48 -1q44 -2 71 -2t73 2l51 1q2 0 2 -6t-2 -6q-30 0 -44 -6t-18.5 -20t-5.5 -45v-215l192 197q26 26 26 50q0 18 -14 28.5t-38 10.5q-4 0 -4 6t3 6l55 -1q56 -2 88 -2q34 0 70 2l38 1q3 0 3 -6t-3 -6q-44 0 -97 -25.5t-98 -69.5l-112 -112l140 -190
q76 -101 107.5 -139.5t52 -51.5t47.5 -13q3 0 3.5 -6zM417 -91q18 -22 18 -59q0 -39 -20 -69t-56 -56l-2 -1q-4 0 -6 4.5t1 6.5q22 16 35 32.5t13 34.5q0 23 -10 33q-10 -19 -40 -19q-22 0 -36 16t-14 41q0 27 19 42.5t46 15.5q34 0 52 -22z" />
    <glyph glyph-name="kcommaaccent" unicode="&#x137;" horiz-adv-x="453" 
d="M476 77q4 0 6.5 -4t0.5 -6q-30 -39 -54 -57.5t-47 -18.5q-29 0 -53.5 14.5t-57.5 52.5l-83 96q-11 12 -17 17t-14 6v-165q0 -9 -15 -14.5t-44 -5.5q-35 0 -37 8v23q2 28 2 51l4 515q1 32 -6 46.5t-24 14.5q-18 0 -44 -13h-2q-4 0 -6.5 5t1.5 7l158 76h2q3 0 7.5 -2.5
t4.5 -5.5l-1 -388q34 33 75.5 51.5t85.5 18.5q47 0 65.5 -18t20.5 -42q1 -37 -39 -72.5t-115 -62.5l90 -102q27 -32 44.5 -42.5t34.5 -10.5q24 0 55 27zM185 314.5q-26 -41.5 -28 -109.5v-8q72 16 105.5 41t33.5 62q0 26 -10.5 41t-30.5 15q-44 0 -70 -41.5zM273 -91
q18 -22 18 -59q0 -39 -20 -69t-56 -56l-2 -1q-4 0 -6 4.5t1 6.5q22 16 35 32.5t13 34.5q0 23 -10 33q-10 -19 -40 -19q-22 0 -36 16t-14 41q0 27 19 42.5t46 15.5q34 0 52 -22z" />
    <glyph glyph-name="kgreenlandic" unicode="&#x138;" horiz-adv-x="463" 
d="M497 76q4 0 7 -3.5t1 -5.5q-57 -76 -100 -76q-29 0 -54 14.5t-59 52.5l-81 96q-13 13 -19 18t-14 5v-165q0 -9 -14.5 -14.5t-43.5 -5.5q-35 0 -37 8v23q2 28 2 51l2 223q0 49 -26 49q-22 0 -55 -40q-1 -1 -3 -1q-4 0 -7 3.5t-1 6.5q30 42 58 61t59 19t46.5 -17t19.5 -50
q34 33 76 52t86 19q79 0 86 -60q1 -37 -39 -73t-115 -62l91 -102q27 -32 44 -42.5t34 -10.5q11 0 26 6.5t28 19.5zM206.5 314.5q-26.5 -41.5 -28.5 -109.5v-9q72 16 106 41.5t34 62.5l-1 11q-3 45 -40 45q-44 0 -70.5 -41.5z" />
    <glyph glyph-name="Lacute" unicode="&#x139;" horiz-adv-x="544" 
d="M42 6q0 6 2 6q31 0 45 5t18.5 19t4.5 45v463q0 30 -5 44t-19 19.5t-42 5.5q-3 0 -3 6t3 6l48 -1q44 -2 71 -2t73 2l51 1q2 0 2 -6t-2 -6q-31 0 -44.5 -5.5t-18 -19.5t-5.5 -45v-458q0 -39 11 -51.5t42 -12.5h28q81 0 135.5 36.5t87.5 113.5q2 2 5 2t6 -1.5t3 -3.5
q-8 -82 -8 -153q0 -15 -15 -15h-472q-2 0 -2 6zM103 678q-4 0 -6 4.5t1 6.5q25 20 66 63l41 41q5 5 36.5 -3.5t57 -20t14.5 -13.5q-107 -28 -208 -77z" />
    <glyph glyph-name="lacute" unicode="&#x13a;" horiz-adv-x="260" 
d="M85 15.5q-16 24.5 -15 73.5l3 500q1 32 -6 46.5t-24 14.5q-18 0 -44 -13h-2q-5 0 -6.5 5.5t2.5 6.5l157 76h2q4 0 8 -3t4 -5l-1 -628q-2 -47 23 -47q10 0 22.5 9t28.5 26q2 2 4 2q3 0 5.5 -3.5t1.5 -6.5q-30 -41 -55 -59.5t-56 -18.5q-36 0 -52 24.5zM57 715q-4 0 -6 4.5
t1 6.5q25 20 66 63l41 41q5 5 36.5 -3.5t57 -20t14.5 -13.5q-107 -28 -208 -77z" />
    <glyph glyph-name="Lcommaaccent" unicode="&#x13b;" horiz-adv-x="544" 
d="M42 6q0 6 2 6q31 0 45 5t18.5 19t4.5 45v463q0 30 -5 44t-19 19.5t-42 5.5q-3 0 -3 6t3 6l48 -1q44 -2 71 -2t73 2l51 1q2 0 2 -6t-2 -6q-31 0 -44.5 -5.5t-18 -19.5t-5.5 -45v-458q0 -39 11 -51.5t42 -12.5h28q81 0 135.5 36.5t87.5 113.5q2 2 5 2t6 -1.5t3 -3.5
q-8 -82 -8 -153q0 -15 -15 -15h-472q-2 0 -2 6zM369 -91q18 -22 18 -59q0 -39 -20 -69t-56 -56l-2 -1q-4 0 -6 4.5t1 6.5q22 16 35 32.5t13 34.5q0 23 -10 33q-10 -19 -40 -19q-22 0 -36 16t-14 41q0 27 19 42.5t46 15.5q34 0 52 -22z" />
    <glyph glyph-name="lcommaaccent" unicode="&#x13c;" horiz-adv-x="260" 
d="M85 15.5q-16 24.5 -15 73.5l3 500q1 32 -6 46.5t-24 14.5q-18 0 -44 -13h-2q-5 0 -6.5 5.5t2.5 6.5l157 76h2q4 0 8 -3t4 -5l-1 -628q-2 -47 23 -47q10 0 22.5 9t28.5 26q2 2 4 2q3 0 5.5 -3.5t1.5 -6.5q-30 -41 -55 -59.5t-56 -18.5q-36 0 -52 24.5zM189 -91
q18 -22 18 -59q0 -39 -20 -69t-56 -56l-2 -1q-4 0 -6 4.5t1 6.5q22 16 35 32.5t13 34.5q0 23 -10 33q-10 -19 -40 -19q-22 0 -36 16t-14 41q0 27 19 42.5t46 15.5q34 0 52 -22z" />
    <glyph glyph-name="Lcaron" unicode="&#x13d;" horiz-adv-x="544" 
d="M42 6q0 6 2 6q31 0 45 5t18.5 19t4.5 45v463q0 30 -5 44t-19 19.5t-42 5.5q-3 0 -3 6t3 6l48 -1q44 -2 71 -2t73 2l51 1q2 0 2 -6t-2 -6q-31 0 -44.5 -5.5t-18 -19.5t-5.5 -45v-458q0 -39 11 -51.5t42 -12.5h28q81 0 135.5 36.5t87.5 113.5q2 2 5 2t6 -1.5t3 -3.5
q-8 -82 -8 -153q0 -15 -15 -15h-472q-2 0 -2 6zM396 625q1 5 20.5 -2.5t37 -20t15.5 -21.5l-55 -228q-1 -2 -5.5 -2t-5.5 2z" />
    <glyph glyph-name="lcaron" unicode="&#x13e;" horiz-adv-x="260" 
d="M85 15.5q-16 24.5 -15 73.5l3 500q1 32 -6 46.5t-24 14.5q-18 0 -44 -13h-2q-5 0 -6.5 5.5t2.5 6.5l157 76h2q4 0 8 -3t4 -5l-1 -628q-2 -47 23 -47q10 0 22.5 9t28.5 26q2 2 4 2q3 0 5.5 -3.5t1.5 -6.5q-30 -41 -55 -59.5t-56 -18.5q-36 0 -52 24.5zM189 737
q1 5 20.5 -2.5t37 -20t15.5 -21.5l-55 -228q-1 -2 -5.5 -2t-5.5 2z" />
    <glyph glyph-name="Ldot" unicode="&#x13f;" horiz-adv-x="544" 
d="M42 6q0 6 2 6q31 0 45 5t18.5 19t4.5 45v463q0 30 -5 44t-19 19.5t-42 5.5q-3 0 -3 6t3 6l48 -1q44 -2 71 -2t73 2l51 1q2 0 2 -6t-2 -6q-31 0 -44.5 -5.5t-18 -19.5t-5.5 -45v-458q0 -39 11 -51.5t42 -12.5h28q81 0 135.5 36.5t87.5 113.5q2 2 5 2t6 -1.5t3 -3.5
q-8 -82 -8 -153q0 -15 -15 -15h-472q-2 0 -2 6zM399.5 262.5q-16.5 16.5 -16.5 44.5q0 26 16.5 42t44.5 16t43.5 -15.5t15.5 -42.5q0 -29 -15.5 -45t-43.5 -16t-44.5 16.5z" />
    <glyph glyph-name="ldot" unicode="&#x140;" horiz-adv-x="260" 
d="M85 15.5q-16 24.5 -15 73.5l3 500q1 32 -6 46.5t-24 14.5q-18 0 -44 -13h-2q-5 0 -6.5 5.5t2.5 6.5l157 76h2q4 0 8 -3t4 -5l-1 -628q-2 -47 23 -47q10 0 22.5 9t28.5 26q2 2 4 2q3 0 5.5 -3.5t1.5 -6.5q-30 -41 -55 -59.5t-56 -18.5q-36 0 -52 24.5zM203.5 303.5
q-16.5 16.5 -16.5 44.5q0 26 16.5 42t44.5 16t43.5 -15.5t15.5 -42.5q0 -29 -15.5 -45t-43.5 -16t-44.5 16.5z" />
    <glyph glyph-name="Lslash" unicode="&#x141;" horiz-adv-x="544" 
d="M530 173q3 0 6 -1.5t3 -3.5q-8 -82 -8 -153q0 -15 -15 -15h-472q-2 0 -2 6t2 6q31 0 45 5t18.5 19t4.5 45v173l-54 -38h-1q-4 0 -9 7.5t-2 9.5l66 46v265q0 30 -5 44t-19 19.5t-42 5.5q-3 0 -3 6t3 6l48 -1q44 -2 71 -2t73 2l51 1q2 0 2 -6t-2 -6q-31 0 -44.5 -5.5
t-18 -19.5t-5.5 -45v-188l56 39l2 1q4 0 9 -7.5t2 -9.5l-69 -48v-245q0 -39 11 -51.5t42 -12.5h28q81 0 135.5 36.5t87.5 113.5q2 2 5 2z" />
    <glyph glyph-name="lslash" unicode="&#x142;" horiz-adv-x="271" 
d="M246 79q3 0 5.5 -3.5t1.5 -6.5q-30 -41 -55 -59.5t-56 -18.5q-36 0 -52 24.5t-15 73.5l1 228l-51 -32q-4 -1 -11.5 9t-4.5 12l68 42l1 241q1 32 -6 46.5t-24 14.5q-18 0 -44 -13h-2q-5 0 -6.5 5.5t2.5 6.5l157 76h2q4 0 8 -3t4 -5v-312l56 35q3 2 10.5 -8.5t4.5 -12.5
l-72 -45v-285q-2 -47 23 -47q10 0 22.5 9t28.5 26q2 2 4 2z" />
    <glyph glyph-name="Nacute" unicode="&#x143;" horiz-adv-x="709" 
d="M697 619q0 -6 -3 -6q-41 0 -66.5 -28t-26.5 -76l-1 -516q1 -3 -4.5 -5.5t-12.5 -2.5q-10 0 -13 6l-419 526l-1 -401q-1 -48 24 -76t67 -28q4 0 4 -6t-4 -6q-28 0 -43 1l-63 1l-60 -1q-17 -1 -48 -1q-4 0 -4 6t4 6q42 0 66.5 28t25.5 76l1 439q-29 32 -51.5 45t-46.5 13
q-2 0 -2 6t2 6l54 -1q16 -1 43 -1t45.5 1t24.5 1q8 0 12.5 -4t10.5 -15q12 -18 24 -33l333 -416l2 352q1 48 -23.5 76t-67.5 28q-4 0 -4 6t4 6l39 -1q40 -2 67 -2q21 0 59 2l49 1q3 0 3 -6zM291 678q-4 0 -6 4.5t1 6.5q25 20 66 63l41 41q5 5 36.5 -3.5t57 -20t14.5 -13.5
q-107 -28 -208 -77z" />
    <glyph glyph-name="nacute" unicode="&#x144;" horiz-adv-x="511" 
d="M510 79q4 0 7 -3.5t1 -6.5q-30 -41 -55 -59.5t-56 -18.5q-36 0 -52 24.5t-15 73.5l2 159q0 94 -48 94q-32 0 -58 -36t-41.5 -106.5t-16.5 -167.5v-20q0 -9 -14.5 -14.5t-43.5 -5.5q-35 0 -37 8v23q2 28 2 51l2 223q0 49 -26 49q-22 0 -55 -40q-1 -1 -3 -1q-4 0 -7 3.5
t-1 6.5q30 42 58 61t59 19q35 0 50.5 -21.5t16.5 -64.5v-92q21 87 62 134.5t97 47.5q96 0 96 -132l-1 -178q-1 -47 23 -47q11 0 22.5 9t27.5 26zM237 471q-3 0 -6 2t-2 3l33 240q1 6 27.5 11t50.5 5q23 0 20 -5l-119 -254q-2 -2 -4 -2z" />
    <glyph glyph-name="Ncommaaccent" unicode="&#x145;" horiz-adv-x="709" 
d="M697 619q0 -6 -3 -6q-41 0 -66.5 -28t-26.5 -76l-1 -516q1 -3 -4.5 -5.5t-12.5 -2.5q-10 0 -13 6l-419 526l-1 -401q-1 -48 24 -76t67 -28q4 0 4 -6t-4 -6q-28 0 -43 1l-63 1l-60 -1q-17 -1 -48 -1q-4 0 -4 6t4 6q42 0 66.5 28t25.5 76l1 439q-29 32 -51.5 45t-46.5 13
q-2 0 -2 6t2 6l54 -1q16 -1 43 -1t45.5 1t24.5 1q8 0 12.5 -4t10.5 -15q12 -18 24 -33l333 -416l2 352q1 48 -23.5 76t-67.5 28q-4 0 -4 6t4 6l39 -1q40 -2 67 -2q21 0 59 2l49 1q3 0 3 -6zM429 -91q18 -22 18 -59q0 -39 -20 -69t-56 -56l-2 -1q-4 0 -6 4.5t1 6.5
q22 16 35 32.5t13 34.5q0 23 -10 33q-10 -19 -40 -19q-22 0 -36 16t-14 41q0 27 19 42.5t46 15.5q34 0 52 -22z" />
    <glyph glyph-name="ncommaaccent" unicode="&#x146;" horiz-adv-x="511" 
d="M510 79q4 0 7 -3.5t1 -6.5q-30 -41 -55 -59.5t-56 -18.5q-36 0 -52 24.5t-15 73.5l2 159q0 94 -48 94q-32 0 -58 -36t-41.5 -106.5t-16.5 -167.5v-20q0 -9 -14.5 -14.5t-43.5 -5.5q-35 0 -37 8v23q2 28 2 51l2 223q0 49 -26 49q-22 0 -55 -40q-1 -1 -3 -1q-4 0 -7 3.5
t-1 6.5q30 42 58 61t59 19q35 0 50.5 -21.5t16.5 -64.5v-92q21 87 62 134.5t97 47.5q96 0 96 -132l-1 -178q-1 -47 23 -47q11 0 22.5 9t27.5 26zM332 -91q18 -22 18 -59q0 -39 -20 -69t-56 -56l-2 -1q-4 0 -6 4.5t1 6.5q22 16 35 32.5t13 34.5q0 23 -10 33q-10 -19 -40 -19
q-22 0 -36 16t-14 41q0 27 19 42.5t46 15.5q34 0 52 -22z" />
    <glyph glyph-name="Ncaron" unicode="&#x147;" horiz-adv-x="709" 
d="M697 619q0 -6 -3 -6q-41 0 -66.5 -28t-26.5 -76l-1 -516q1 -3 -4.5 -5.5t-12.5 -2.5q-10 0 -13 6l-419 526l-1 -401q-1 -48 24 -76t67 -28q4 0 4 -6t-4 -6q-28 0 -43 1l-63 1l-60 -1q-17 -1 -48 -1q-4 0 -4 6t4 6q42 0 66.5 28t25.5 76l1 439q-29 32 -51.5 45t-46.5 13
q-2 0 -2 6t2 6l54 -1q16 -1 43 -1t45.5 1t24.5 1q8 0 12.5 -4t10.5 -15q12 -18 24 -33l333 -416l2 352q1 48 -23.5 76t-67.5 28q-4 0 -4 6t4 6l39 -1q40 -2 67 -2q21 0 59 2l49 1q3 0 3 -6zM238 791l-1 2q0 2 2.5 4t4.5 1l102 -39l103 39q2 1 5.5 -2.5t1.5 -4.5l-96 -116
q-3 -4 -9 -4t-10 4z" />
    <glyph glyph-name="ncaron" unicode="&#x148;" horiz-adv-x="511" 
d="M510 79q4 0 7 -3.5t1 -6.5q-30 -41 -55 -59.5t-56 -18.5q-36 0 -52 24.5t-15 73.5l2 159q0 94 -48 94q-32 0 -58 -36t-41.5 -106.5t-16.5 -167.5v-20q0 -9 -14.5 -14.5t-43.5 -5.5q-35 0 -37 8v23q2 28 2 51l2 223q0 49 -26 49q-22 0 -55 -40q-1 -1 -3 -1q-4 0 -7 3.5
t-1 6.5q30 42 58 61t59 19q35 0 50.5 -21.5t16.5 -64.5v-92q21 87 62 134.5t97 47.5q96 0 96 -132l-1 -178q-1 -47 23 -47q11 0 22.5 9t27.5 26zM165 726q-1 3 4 3.5t6 -2.5l73 -107l75 110q1 1 3 1q3 0 5.5 -1.5t2.5 -3.5l-76 -249q-2 -5 -9 -5t-9 5z" />
    <glyph glyph-name="napostrophe" unicode="&#x149;" horiz-adv-x="511" 
d="M510 79q4 0 7 -3.5t1 -6.5q-30 -41 -55 -59.5t-56 -18.5q-36 0 -52 24.5t-15 73.5l2 159q0 94 -48 94q-32 0 -58 -36t-41.5 -106.5t-16.5 -167.5v-20q0 -9 -14.5 -14.5t-43.5 -5.5q-35 0 -37 8v23q2 28 2 51l2 223q0 49 -26 49q-22 0 -55 -40q-1 -1 -3 -1q-4 0 -7 3.5
t-1 6.5q30 42 58 61t59 19q35 0 50.5 -21.5t16.5 -64.5v-92q21 87 62 134.5t97 47.5q96 0 96 -132l-1 -178q-1 -47 23 -47q11 0 22.5 9t27.5 26zM138.5 633q19.5 -27 19.5 -77q0 -45 -20 -83.5t-60 -77.5q-1 -1 -3 -1q-3 0 -5 3t0 5q49 50 49 118q0 28 -10 41
q-9 -15 -37 -15q-24 0 -38.5 15.5t-14.5 40.5q0 27 17.5 42.5t47.5 15.5q35 0 54.5 -27z" />
    <glyph glyph-name="Eng" unicode="&#x14a;" horiz-adv-x="709" 
d="M697 619q0 -6 -3 -6q-41 0 -66.5 -28t-26.5 -76l-1 -516v-1q-1 -183 -127 -183q-46 0 -76.5 21.5t-30.5 56.5q0 44 48 44q25 0 36 -11.5t21 -33.5q9 -18 17 -26.5t23 -8.5q60 0 61 137q-2 2 -2 3l-419 526l-1 -401q-1 -48 24 -76t67 -28q4 0 4 -6t-4 -6q-28 0 -43 1
l-63 1l-60 -1q-17 -1 -48 -1q-4 0 -4 6t4 6q42 0 66.5 28t25.5 76l1 439q-29 32 -51.5 45t-46.5 13q-2 0 -2 6t2 6l54 -1q16 -1 43 -1t45.5 1t24.5 1q8 0 12.5 -4t10.5 -15q12 -18 24 -33l333 -416l2 352q1 48 -23.5 76t-67.5 28q-4 0 -4 6t4 6l39 -1q40 -2 67 -2q21 0 59 2
l49 1q3 0 3 -6z" />
    <glyph glyph-name="eng" unicode="&#x14b;" horiz-adv-x="484" 
d="M434 267l-4 -287q-1 -96 -13.5 -151t-41 -79.5t-78.5 -24.5t-80 17t-30 42q0 18 12.5 28t29.5 10q27 0 38.5 -12t21.5 -35q6 -16 11.5 -23t16.5 -7q10 0 13.5 11.5t5 47.5t1.5 89q1 18 1 61l4 294q0 94 -48 94q-32 0 -58 -36t-41.5 -106.5t-16.5 -167.5v-20
q0 -9 -14.5 -14.5t-43.5 -5.5q-35 0 -37 8v23q2 28 2 51l2 223q0 49 -26 49q-22 0 -55 -40q-1 -1 -3 -1q-4 0 -6.5 3t-1.5 7q30 42 58 61t59 19q35 0 50.5 -21.5t16.5 -64.5v-92q21 87 62 134.5t97 47.5q96 0 96 -132z" />
    <glyph glyph-name="Omacron" unicode="&#x14c;" horiz-adv-x="735" 
d="M188 31q-73 43 -112.5 116.5t-39.5 163.5q0 92 43.5 166t120 116.5t172.5 42.5q97 0 171 -41.5t114.5 -114t40.5 -161.5q0 -99 -46.5 -174.5t-125 -116t-170.5 -40.5q-95 0 -168 43zM494.5 44q41.5 30 64.5 85.5t23 130.5q0 92 -31 173t-87 130t-128 49q-55 0 -97 -30
t-65 -85.5t-23 -130.5q0 -90 31 -171.5t87.5 -131t128.5 -49.5q55 0 96.5 30zM245 718q-3 6 -3 14t3 14t7 6h228q5 0 8 -6t3 -14t-3 -14t-8 -6h-228q-4 0 -7 6z" />
    <glyph glyph-name="omacron" unicode="&#x14d;" horiz-adv-x="437" 
d="M108.5 13.5q-41.5 27.5 -62.5 73.5t-21 101q0 62 26 110t72.5 74.5t104.5 26.5q88 0 137 -56t49 -145q0 -67 -29 -115t-76 -72.5t-101 -24.5q-58 0 -99.5 27.5zM295 49.5q18 38.5 18 106.5q0 58 -15.5 108.5t-42.5 80.5t-59 30q-33 0 -52 -35t-19 -104q0 -60 16 -111.5
t42.5 -82.5t57.5 -31q36 0 54 38.5zM91 479q-3 6 -3 14t3 14t7 6h228q5 0 8 -6t3 -14t-3 -14t-8 -6h-228q-4 0 -7 6z" />
    <glyph glyph-name="Obreve" unicode="&#x14e;" horiz-adv-x="735" 
d="M188 31q-73 43 -112.5 116.5t-39.5 163.5q0 92 43.5 166t120 116.5t172.5 42.5q97 0 171 -41.5t114.5 -114t40.5 -161.5q0 -99 -46.5 -174.5t-125 -116t-170.5 -40.5q-95 0 -168 43zM494.5 44q41.5 30 64.5 85.5t23 130.5q0 92 -31 173t-87 130t-128 49q-55 0 -97 -30
t-65 -85.5t-23 -130.5q0 -90 31 -171.5t87.5 -131t128.5 -49.5q55 0 96.5 30zM310.5 690q-27.5 25 -37.5 72q-1 6 21.5 11.5t42.5 5.5q16 0 17 -4q7 -25 20.5 -38.5t29.5 -13.5q15 0 27.5 12t19.5 36q0 3 5 3q4 0 8 -2t3 -4q-9 -50 -36 -76.5t-60 -26.5t-60.5 25z" />
    <glyph glyph-name="obreve" unicode="&#x14f;" horiz-adv-x="437" 
d="M108.5 13.5q-41.5 27.5 -62.5 73.5t-21 101q0 62 26 110t72.5 74.5t104.5 26.5q88 0 137 -56t49 -145q0 -67 -29 -115t-76 -72.5t-101 -24.5q-58 0 -99.5 27.5zM295 49.5q18 38.5 18 106.5q0 58 -15.5 108.5t-42.5 80.5t-59 30q-33 0 -52 -35t-19 -104q0 -60 16 -111.5
t42.5 -82.5t57.5 -31q36 0 54 38.5zM147.5 499q-27.5 25 -37.5 72q-1 6 21.5 11.5t42.5 5.5q16 0 17 -4q7 -25 20.5 -38.5t29.5 -13.5q15 0 27.5 12t19.5 36q0 3 5 3q4 0 8 -2t3 -4q-9 -50 -36 -76.5t-60 -26.5t-60.5 25z" />
    <glyph glyph-name="Ohungarumlaut" unicode="&#x150;" horiz-adv-x="735" 
d="M188 31q-73 43 -112.5 116.5t-39.5 163.5q0 92 43.5 166t120 116.5t172.5 42.5q97 0 171 -41.5t114.5 -114t40.5 -161.5q0 -99 -46.5 -174.5t-125 -116t-170.5 -40.5q-95 0 -168 43zM494.5 44q41.5 30 64.5 85.5t23 130.5q0 92 -31 173t-87 130t-128 49q-55 0 -97 -30
t-65 -85.5t-23 -130.5q0 -90 31 -171.5t87.5 -131t128.5 -49.5q55 0 96.5 30zM257 666q-2 0 -3 4.5t1 6.5l33 38q50 59 68 84q2 3 11 3q14 0 38 -6.5t38 -15t4 -13.5q-19 -10 -57 -28q-34 -16 -68.5 -34.5t-62.5 -37.5zM398 666q-3 0 -4.5 4.5t1.5 6.5q65 70 102 122
q2 3 10 3q14 0 37.5 -7t37.5 -15t5 -13q-104 -47 -187 -100z" />
    <glyph glyph-name="ohungarumlaut" unicode="&#x151;" horiz-adv-x="437" 
d="M108.5 13.5q-41.5 27.5 -62.5 73.5t-21 101q0 62 26 110t72.5 74.5t104.5 26.5q88 0 137 -56t49 -145q0 -67 -29 -115t-76 -72.5t-101 -24.5q-58 0 -99.5 27.5zM295 49.5q18 38.5 18 106.5q0 58 -15.5 108.5t-42.5 80.5t-59 30q-33 0 -52 -35t-19 -104q0 -60 16 -111.5
t42.5 -82.5t57.5 -31q36 0 54 38.5zM109 449q-3 0 -4.5 4.5t1.5 7.5q64 69 102 121q2 3 11 3q15 0 38.5 -6t37 -14t3.5 -14l-55 -28q-34 -17 -69 -35.5t-63 -37.5zM249 449q-3 0 -4 4.5t1 7.5q64 69 102 121q2 3 10 3q14 0 38 -6.5t38 -14.5t4 -13q-113 -53 -187 -101z" />
    <glyph glyph-name="OE" unicode="&#x152;" horiz-adv-x="891" 
d="M846 161q3 0 6 -1.5t2 -2.5q-10 -56 -10 -142q0 -8 -3 -11.5t-12 -3.5h-290q-24 0 -74 -2q-44 -2 -60 -2q-107 0 -191.5 41t-131 112t-46.5 158q0 95 48.5 167.5t129.5 112.5t177 40q40 0 64 -1l78 -1h279q4 0 5.5 -2t1.5 -7l2 -134q0 -4 -6 -4t-7 3q-16 60 -47.5 91.5
t-87.5 31.5h-20q-32 0 -45 -4.5t-17 -16.5t-5 -40v-204h99q50 0 74 17.5t25 58.5q2 5 8 5q7 0 7 -5q0 -26 -2 -56l-1 -34q0 -17 2 -47q2 -34 2 -55q0 -4 -7 -4t-7 4q0 43 -27.5 65.5t-75.5 22.5h-97v-226q1 -29 6 -43t18 -19t41 -5h29q60 0 95 34.5t66 106.5q1 2 5 2z
M446.5 19.5q17.5 3.5 25 17.5t6.5 45l-1 449q-2 30 -8.5 45.5t-21.5 22.5t-45 7q-113 0 -179.5 -71t-66.5 -204q0 -89 30.5 -161t84.5 -113t122 -41q36 0 53.5 3.5z" />
    <glyph glyph-name="oe" unicode="&#x153;" horiz-adv-x="656" 
d="M644 63q3 0 6 -3t0 -5q-33 -35 -73.5 -51t-84.5 -16q-88 0 -140 60q-29 -30 -68.5 -46t-82.5 -16q-58 0 -99 27.5t-62 74t-21 102.5q0 61 26 108.5t72.5 74t104.5 26.5q48 0 85 -18t61 -50q30 32 72 50t93 18q45 0 70.5 -14t28.5 -40q3 -44 -62.5 -82t-162.5 -55
q4 -77 40.5 -126.5t99.5 -49.5q24 0 50 7.5t45 23.5h2zM290.5 264.5q-15.5 50.5 -42.5 80.5t-59 30q-33 0 -51.5 -35t-18.5 -104q0 -60 16 -111.5t42.5 -82.5t57.5 -31q35 0 53 38.5t18 106.5q0 58 -15.5 108.5zM426 330.5q-19 -41.5 -19 -106.5q120 30 117 100
q0 22 -11.5 35t-31.5 13q-36 0 -55 -41.5z" />
    <glyph glyph-name="Racute" unicode="&#x154;" horiz-adv-x="687" 
d="M704.5 6q0.5 -6 -3.5 -6h-164q-24 0 -83.5 80.5t-143.5 242.5q-28 -7 -62 -7q-5 0 -13 2v-237q-1 -29 4.5 -43.5t20 -20t44.5 -5.5q4 0 4.5 -6t-3.5 -6q-34 0 -52 1l-74 1l-75 -1q-20 -1 -54 -1q-4 0 -4.5 6t3.5 6q33 0 49 5.5t21.5 20t6.5 43.5v463q0 30 -5.5 44
t-20.5 19.5t-46 5.5q-4 0 -4 6t4 6l53 -1q44 -2 72 -2q34 0 74 4q32 2 42 2q101 0 151.5 -33t50.5 -92q0 -43 -28.5 -83t-75.5 -67q78 -129 132.5 -202.5t96 -106t79.5 -32.5q3 0 3.5 -6zM264 343q66 0 93.5 29t27.5 97q0 71 -27.5 104.5t-67.5 33.5q-27 0 -37 -3.5
t-13.5 -16t-4.5 -45.5v-196q12 -3 29 -3zM227 678q-4 0 -6 4.5t1 6.5q25 20 66 63l41 41q5 5 36.5 -3.5t57 -20t14.5 -13.5q-107 -28 -208 -77z" />
    <glyph glyph-name="racute" unicode="&#x155;" horiz-adv-x="379" 
d="M344 308.5q-16 -19.5 -35 -19.5q-10 0 -17.5 3.5t-18.5 9.5q-7 4 -13.5 7t-12.5 3q-19 0 -35.5 -48.5t-26 -118t-10.5 -125.5v-8q0 -20 -57 -20q-35 0 -37 8v23q2 28 2 51l1 223q0 49 -26 49q-23 0 -54 -40q-2 -2 -4 -2q-4 0 -7 3.5t0 7.5q30 42 58 61t59 19
q35 0 50 -21.5t17 -64.5l-1 -107q13 89 39 141.5t68 52.5q25 0 51 -15.5t26 -35.5q0 -17 -16 -36.5zM172 471q-3 0 -6 2t-2 3l33 240q1 6 27.5 11t50.5 5q23 0 20 -5l-119 -254q-2 -2 -4 -2z" />
    <glyph glyph-name="Rcommaaccent" unicode="&#x156;" horiz-adv-x="687" 
d="M704.5 6q0.5 -6 -3.5 -6h-164q-24 0 -83.5 80.5t-143.5 242.5q-28 -7 -62 -7q-5 0 -13 2v-237q-1 -29 4.5 -43.5t20 -20t44.5 -5.5q4 0 4.5 -6t-3.5 -6q-34 0 -52 1l-74 1l-75 -1q-20 -1 -54 -1q-4 0 -4.5 6t3.5 6q33 0 49 5.5t21.5 20t6.5 43.5v463q0 30 -5.5 44
t-20.5 19.5t-46 5.5q-4 0 -4 6t4 6l53 -1q44 -2 72 -2q34 0 74 4q32 2 42 2q101 0 151.5 -33t50.5 -92q0 -43 -28.5 -83t-75.5 -67q78 -129 132.5 -202.5t96 -106t79.5 -32.5q3 0 3.5 -6zM264 343q66 0 93.5 29t27.5 97q0 71 -27.5 104.5t-67.5 33.5q-27 0 -37 -3.5
t-13.5 -16t-4.5 -45.5v-196q12 -3 29 -3zM423 -91q18 -22 18 -59q0 -39 -20 -69t-56 -56l-2 -1q-4 0 -6 4.5t1 6.5q22 16 35 32.5t13 34.5q0 23 -10 33q-10 -19 -40 -19q-22 0 -36 16t-14 41q0 27 19 42.5t46 15.5q34 0 52 -22z" />
    <glyph glyph-name="rcommaaccent" unicode="&#x157;" horiz-adv-x="379" 
d="M344 308.5q-16 -19.5 -35 -19.5q-10 0 -17.5 3.5t-18.5 9.5q-7 4 -13.5 7t-12.5 3q-19 0 -35.5 -48.5t-26 -118t-10.5 -125.5v-8q0 -20 -57 -20q-35 0 -37 8v23q2 28 2 51l1 223q0 49 -26 49q-23 0 -54 -40q-2 -2 -4 -2q-4 0 -7 3.5t0 7.5q30 42 58 61t59 19
q35 0 50 -21.5t17 -64.5l-1 -107q13 89 39 141.5t68 52.5q25 0 51 -15.5t26 -35.5q0 -17 -16 -36.5zM189 -91q18 -22 18 -59q0 -39 -20 -69t-56 -56l-2 -1q-4 0 -6 4.5t1 6.5q22 16 35 32.5t13 34.5q0 23 -10 33q-10 -19 -40 -19q-22 0 -36 16t-14 41q0 27 19 42.5t46 15.5
q34 0 52 -22z" />
    <glyph glyph-name="Rcaron" unicode="&#x158;" horiz-adv-x="687" 
d="M704.5 6q0.5 -6 -3.5 -6h-164q-24 0 -83.5 80.5t-143.5 242.5q-28 -7 -62 -7q-5 0 -13 2v-237q-1 -29 4.5 -43.5t20 -20t44.5 -5.5q4 0 4.5 -6t-3.5 -6q-34 0 -52 1l-74 1l-75 -1q-20 -1 -54 -1q-4 0 -4.5 6t3.5 6q33 0 49 5.5t21.5 20t6.5 43.5v463q0 30 -5.5 44
t-20.5 19.5t-46 5.5q-4 0 -4 6t4 6l53 -1q44 -2 72 -2q34 0 74 4q32 2 42 2q101 0 151.5 -33t50.5 -92q0 -43 -28.5 -83t-75.5 -67q78 -129 132.5 -202.5t96 -106t79.5 -32.5q3 0 3.5 -6zM264 343q66 0 93.5 29t27.5 97q0 71 -27.5 104.5t-67.5 33.5q-27 0 -37 -3.5
t-13.5 -16t-4.5 -45.5v-196q12 -3 29 -3zM174 791l-1 2q0 2 2.5 4t4.5 1l102 -39l103 39q2 1 5.5 -2.5t1.5 -4.5l-96 -116q-3 -4 -9 -4t-10 4z" />
    <glyph glyph-name="rcaron" unicode="&#x159;" horiz-adv-x="379" 
d="M344 308.5q-16 -19.5 -35 -19.5q-10 0 -17.5 3.5t-18.5 9.5q-7 4 -13.5 7t-12.5 3q-19 0 -35.5 -48.5t-26 -118t-10.5 -125.5v-8q0 -20 -57 -20q-35 0 -37 8v23q2 28 2 51l1 223q0 49 -26 49q-23 0 -54 -40q-2 -2 -4 -2q-4 0 -7 3.5t0 7.5q30 42 58 61t59 19
q35 0 50 -21.5t17 -64.5l-1 -107q13 89 39 141.5t68 52.5q25 0 51 -15.5t26 -35.5q0 -17 -16 -36.5zM100 726q-1 3 4 3.5t6 -2.5l73 -107l75 110q1 1 3 1q3 0 5.5 -1.5t2.5 -3.5l-76 -249q-2 -5 -9 -5t-9 5z" />
    <glyph glyph-name="Sacute" unicode="&#x15a;" horiz-adv-x="505" 
d="M187 465q19 -29 46.5 -50.5t74.5 -51.5q51 -33 80.5 -57t50.5 -57.5t21 -76.5q0 -85 -59.5 -134.5t-153.5 -49.5q-45 0 -96 12.5t-68 27.5q-5 3 -6.5 6.5t-2.5 12.5l-4 159q-1 4 4.5 5t7.5 -3q28 -58 52.5 -97.5t59.5 -68.5t79 -29q88 0 88 96q0 46 -20.5 81t-50 58.5
t-78.5 55.5q-45 29 -72 50.5t-45.5 51.5t-18.5 68q0 54 30.5 90.5t78.5 54t102 17.5q35 0 73.5 -6.5t59.5 -15.5q9 -5 12 -9.5t3 -10.5v-147q0 -3 -5 -4.5t-7 1.5q-3 6 -21.5 51.5t-56 82t-85.5 36.5q-40 0 -66 -23.5t-26 -60.5q0 -36 19 -65zM201 678q-4 0 -6 4.5t1 6.5
q25 20 66 63l41 41q5 5 36.5 -3.5t57 -20t14.5 -13.5q-107 -28 -208 -77z" />
    <glyph glyph-name="sacute" unicode="&#x15b;" horiz-adv-x="336" 
d="M64.5 10q-38.5 21 -39.5 51q0 20 12 30.5t31 10.5q18 0 31 -9.5t30 -28.5q20 -21 34.5 -31t35.5 -10q19 0 26.5 8.5t7.5 27.5q0 36 -25 60.5t-74 55.5q-34 22 -53 37t-32.5 35t-13.5 46q0 25 18 49t50.5 39t74.5 15q53 0 86 -16.5t34 -43.5q2 -19 -10.5 -30t-29.5 -11
q-24 0 -36.5 9t-25.5 28q-13 18 -24.5 27t-33.5 9q-18 0 -26 -9t-8 -22q0 -31 24 -53.5t71 -52.5q52 -33 78 -59.5t26 -63.5q-1 -27 -19 -54.5t-52 -46t-80 -18.5q-49 0 -87.5 21zM153 471q-3 0 -6 2t-2 3l33 240q1 6 27.5 11t50.5 5q23 0 20 -5l-119 -254q-2 -2 -4 -2z" />
    <glyph glyph-name="Scircumflex" unicode="&#x15c;" horiz-adv-x="505" 
d="M187 465q19 -29 46.5 -50.5t74.5 -51.5q51 -33 80.5 -57t50.5 -57.5t21 -76.5q0 -85 -59.5 -134.5t-153.5 -49.5q-45 0 -96 12.5t-68 27.5q-5 3 -6.5 6.5t-2.5 12.5l-4 159q-1 4 4.5 5t7.5 -3q28 -58 52.5 -97.5t59.5 -68.5t79 -29q88 0 88 96q0 46 -20.5 81t-50 58.5
t-78.5 55.5q-45 29 -72 50.5t-45.5 51.5t-18.5 68q0 54 30.5 90.5t78.5 54t102 17.5q35 0 73.5 -6.5t59.5 -15.5q9 -5 12 -9.5t3 -10.5v-147q0 -3 -5 -4.5t-7 1.5q-3 6 -21.5 51.5t-56 82t-85.5 36.5q-40 0 -66 -23.5t-26 -60.5q0 -36 19 -65zM161 660q-3 0 -5.5 2.5
t-0.5 4.5l95 115q3 5 8 5t10 -5l104 -115q2 -2 -0.5 -5.5t-4.5 -1.5l-102 38l-103 -38h-1z" />
    <glyph glyph-name="scircumflex" unicode="&#x15d;" horiz-adv-x="336" 
d="M64.5 10q-38.5 21 -39.5 51q0 20 12 30.5t31 10.5q18 0 31 -9.5t30 -28.5q20 -21 34.5 -31t35.5 -10q19 0 26.5 8.5t7.5 27.5q0 36 -25 60.5t-74 55.5q-34 22 -53 37t-32.5 35t-13.5 46q0 25 18 49t50.5 39t74.5 15q53 0 86 -16.5t34 -43.5q2 -19 -10.5 -30t-29.5 -11
q-24 0 -36.5 9t-25.5 28q-13 18 -24.5 27t-33.5 9q-18 0 -26 -9t-8 -22q0 -31 24 -53.5t71 -52.5q52 -33 78 -59.5t26 -63.5q-1 -27 -19 -54.5t-52 -46t-80 -18.5q-49 0 -87.5 21zM253 477q1 -2 -5 -2.5t-7 1.5l-72 108l-74 -110q-2 -2 -4 -2q-3 0 -5.5 1.5t-2.5 3.5l76 249
q1 5 10 5q8 0 9 -5z" />
    <glyph glyph-name="Scedilla" unicode="&#x15e;" horiz-adv-x="505" 
d="M416 51.5q-44 -47.5 -119 -59.5q-2 -12 -2 -17q0 -22 11 -37t38 -42q25 -26 36 -45t11 -38q1 -19 -10 -39.5t-34.5 -34.5t-59.5 -14t-62.5 15t-26.5 38q-1 17 9 25.5t26 8.5q18 0 27.5 -9.5t18.5 -27.5q9 -17 15.5 -24t18.5 -7t17.5 6.5t4.5 17.5q-2 17 -19.5 40
t-47.5 54q-13 13 -13 33q0 16 9 45l16 50q-22 -2 -33 -2q-45 0 -96 12.5t-68 27.5q-5 3 -6.5 6.5t-2.5 12.5l-4 159q-1 4 4.5 5t7.5 -3q28 -58 52.5 -97.5t59.5 -68.5t79 -29q88 0 88 96q0 46 -20.5 81t-50 58.5t-78.5 55.5q-45 29 -72 50.5t-45.5 51.5t-18.5 68
q0 54 30.5 90.5t78.5 54t102 17.5q35 0 73.5 -6.5t59.5 -15.5q9 -5 12 -9.5t3 -10.5v-147q0 -3 -5 -4.5t-7 1.5q-3 6 -21.5 51.5t-56 82t-85.5 36.5q-40 0 -66 -23.5t-26 -60.5q0 -36 19 -65t46.5 -50.5t74.5 -51.5q51 -33 80.5 -57t50.5 -57.5t21 -76.5q0 -73 -44 -120.5z
" />
    <glyph glyph-name="scedilla" unicode="&#x15f;" horiz-adv-x="336" 
d="M263 -149q11 -19 11 -38q1 -19 -10 -39.5t-34.5 -34.5t-59.5 -14t-62.5 15t-26.5 38q-1 17 9 25.5t26 8.5q18 0 27.5 -9.5t18.5 -27.5q9 -17 15.5 -24t18.5 -7t17.5 6.5t4.5 17.5q-2 17 -19.5 40t-47.5 54q-13 13 -13 33q0 16 9 45l16 49h-11q-49 0 -87.5 21t-39.5 51
q0 20 12 30.5t31 10.5q18 0 31 -9.5t30 -28.5q20 -21 34.5 -31t35.5 -10q19 0 26.5 8.5t7.5 27.5q0 36 -25 60.5t-74 55.5q-34 22 -53 37t-32.5 35t-13.5 46q0 25 18 49t50.5 39t74.5 15q53 0 86 -16.5t34 -43.5q2 -19 -10.5 -30t-29.5 -11q-24 0 -36.5 9t-25.5 28
q-13 18 -24.5 27t-33.5 9q-18 0 -26 -9t-8 -22q0 -31 24 -53.5t71 -52.5q52 -33 78 -59.5t26 -63.5q-1 -24 -15.5 -49t-42 -44t-65.5 -24q-1 -5 -1 -15q0 -23 11 -38.5t37 -41.5q25 -26 36 -45z" />
    <glyph glyph-name="Scaron" unicode="&#x160;" horiz-adv-x="505" 
d="M187 465q19 -29 46.5 -50.5t74.5 -51.5q51 -33 80.5 -57t50.5 -57.5t21 -76.5q0 -85 -59.5 -134.5t-153.5 -49.5q-45 0 -96 12.5t-68 27.5q-5 3 -6.5 6.5t-2.5 12.5l-4 159q-1 4 4.5 5t7.5 -3q28 -58 52.5 -97.5t59.5 -68.5t79 -29q88 0 88 96q0 46 -20.5 81t-50 58.5
t-78.5 55.5q-45 29 -72 50.5t-45.5 51.5t-18.5 68q0 54 30.5 90.5t78.5 54t102 17.5q35 0 73.5 -6.5t59.5 -15.5q9 -5 12 -9.5t3 -10.5v-147q0 -3 -5 -4.5t-7 1.5q-3 6 -21.5 51.5t-56 82t-85.5 36.5q-40 0 -66 -23.5t-26 -60.5q0 -36 19 -65zM148 791l-1 2q0 2 2.5 4t4.5 1
l102 -39l103 39q2 1 5.5 -2.5t1.5 -4.5l-96 -116q-3 -4 -9 -4t-10 4z" />
    <glyph glyph-name="scaron" unicode="&#x161;" horiz-adv-x="336" 
d="M64.5 10q-38.5 21 -39.5 51q0 20 12 30.5t31 10.5q18 0 31 -9.5t30 -28.5q20 -21 34.5 -31t35.5 -10q19 0 26.5 8.5t7.5 27.5q0 36 -25 60.5t-74 55.5q-34 22 -53 37t-32.5 35t-13.5 46q0 25 18 49t50.5 39t74.5 15q53 0 86 -16.5t34 -43.5q2 -19 -10.5 -30t-29.5 -11
q-24 0 -36.5 9t-25.5 28q-13 18 -24.5 27t-33.5 9q-18 0 -26 -9t-8 -22q0 -31 24 -53.5t71 -52.5q52 -33 78 -59.5t26 -63.5q-1 -27 -19 -54.5t-52 -46t-80 -18.5q-49 0 -87.5 21zM81 726q-1 3 4 3.5t6 -2.5l73 -107l75 110q1 1 3 1q3 0 5.5 -1.5t2.5 -3.5l-76 -249
q-2 -5 -9 -5t-9 5z" />
    <glyph glyph-name="uni0162" unicode="&#x162;" horiz-adv-x="596" 
d="M568.5 652.5q5.5 -0.5 4.5 -4.5q-3 -44 -6 -110.5t-2 -89.5q0 -3 -6 -3q-8 0 -8 4q0 41 -18.5 76t-51 56t-70.5 21h-13q-20 0 -28.5 -5t-10.5 -16.5t-3 -38.5l1 -461q0 -31 6.5 -45t25.5 -19t62 -5q3 0 3 -6t-3 -6q-34 0 -54 1l-83 1q-3 -18 -3 -30q0 -24 9 -38t34 -38
q25 -26 36 -45t11 -38q1 -19 -10 -39.5t-34.5 -34.5t-59.5 -14t-62.5 15t-26.5 38q-1 17 9 25.5t26 8.5q18 0 27.5 -9.5t18.5 -27.5q9 -17 15.5 -24t18.5 -7t17.5 6.5t4.5 17.5q-2 17 -19.5 40t-47.5 54q-13 13 -13 33q0 16 9 45l20 62l-81 -1q-21 -1 -59 -1q-3 0 -3 6t2 6
q42 0 61.5 5t26.5 19.5t7 44.5v463q1 35 -9 46.5t-38 11.5h-13q-34 0 -67 -21.5t-56 -57t-28 -77.5q0 -2 -5 -2q-3 0 -5.5 1.5t-1.5 2.5q5 38 15 199q0 3 5 3q3 0 5.5 -1t2.5 -3q0 -21 45 -21q81 -3 203 -3q55 0 123 2l70 1q33 0 48 5t19 20q2 3 7.5 2.5z" />
    <glyph glyph-name="uni0163" unicode="&#x163;" horiz-adv-x="319" 
d="M317 81q3 0 6 -3.5t1 -6.5q-39 -40 -71.5 -59.5t-66.5 -22.5q-1 -4 -1 -12q0 -23 11 -38.5t38 -42.5q25 -26 36 -45t11 -38q1 -19 -10 -39.5t-34.5 -34.5t-59.5 -14t-62.5 15t-26.5 38q-1 17 9 25.5t26 8.5q18 0 27.5 -9.5t18.5 -27.5q9 -17 15.5 -24t18.5 -7t17.5 6.5
t4.5 17.5q-2 17 -19.5 40t-47.5 54q-13 13 -13 33q0 16 9 45l15 48q-104 2 -102 106l1 212q1 32 -9 42.5t-41 10.5q-4 0 -4.5 8t2.5 8q90 0 123 88q2 3 8 3q5 0 9.5 -2t4.5 -4v-82q41 2 130 8q5 0 8 -4t3 -8q-1 -11 -10.5 -24.5t-20.5 -12.5q-63 10 -110 12l-1 -238
q0 -35 16.5 -51.5t51.5 -16.5q44 0 88 38h1z" />
    <glyph glyph-name="Tcaron" unicode="&#x164;" horiz-adv-x="596" 
d="M151 6q0 6 2 6q42 0 61.5 5t26.5 19.5t7 44.5v463q1 35 -9 46.5t-38 11.5h-13q-34 0 -67 -21.5t-56 -57t-28 -77.5q0 -2 -5 -2q-3 0 -5.5 1.5t-1.5 2.5q5 38 15 199q0 3 5 3q3 0 5.5 -1t2.5 -3q0 -21 45 -21q81 -3 203 -3q55 0 123 2l70 1q33 0 48 5t19 20q2 3 7.5 2.5
t4.5 -4.5q-3 -44 -6 -110.5t-2 -89.5q0 -3 -6 -3q-8 0 -8 4q0 41 -18.5 76t-51 56t-70.5 21h-13q-20 0 -28.5 -5t-10.5 -16.5t-3 -38.5l1 -461q0 -31 6.5 -45t25.5 -19t62 -5q3 0 3 -6t-3 -6q-37 0 -58 1l-91 1l-86 -1q-22 -1 -62 -1q-3 0 -3 6zM185 791l-1 2q0 2 2.5 4
t4.5 1l102 -39l103 39q2 1 5.5 -2.5t1.5 -4.5l-96 -116q-3 -4 -9 -4t-10 4z" />
    <glyph glyph-name="tcaron" unicode="&#x165;" horiz-adv-x="319" 
d="M317 81q3 0 6 -3.5t1 -6.5q-43 -44 -78 -63.5t-73 -19.5q-108 0 -106 106l1 212q1 32 -9 42.5t-41 10.5q-4 0 -4.5 8t2.5 8q90 0 123 88q2 3 8 3q5 0 9.5 -2t4.5 -4v-82q41 2 130 8q5 0 8 -4t3 -8q-1 -11 -10.5 -24.5t-20.5 -12.5q-63 10 -110 12l-1 -238
q0 -35 16.5 -51.5t51.5 -16.5q44 0 88 38h1zM206 720q1 5 20.5 -2.5t37 -20t15.5 -21.5l-55 -228q-1 -2 -5.5 -2t-5.5 2z" />
    </font>
</defs>
</svg>
